<svg width="1441" height="661" viewBox="0 0 1441 661" fill="none" xmlns="http://www.w3.org/2000/svg">
<path fill-rule="evenodd" clip-rule="evenodd" d="M1361.37 109.487C1402.51 74.7656 1428.49 36.6363 1440.71 0.326859V35.5062C1425.31 64.6562 1401.89 93.6083 1370.4 120.186C1299.31 180.179 1186.54 228.677 1028.92 241.596C989.404 244.835 952.117 247.228 916.857 249.454L910.781 249.838L910.775 249.838L910.772 249.838C877.748 251.922 846.54 253.891 816.865 256.318C753.859 261.472 698.155 268.666 647.475 283.23C546.694 312.19 464.94 370.516 386.328 502.458C347.207 568.12 306.185 609.862 265.252 633.844C224.212 657.888 183.608 663.869 145.897 658.554C87.2293 650.285 36.1031 614.802 0.761719 578.84V558.384C34.6463 596.287 87.47 636.181 147.85 644.691C182.543 649.58 219.95 644.159 258.174 621.764C296.505 599.307 336.002 559.573 374.301 495.292C454.482 360.716 538.961 299.846 643.608 269.774C695.641 254.822 752.449 247.54 815.724 242.365C845.536 239.926 876.871 237.949 909.86 235.868L909.86 235.868L909.861 235.868L915.974 235.482C951.235 233.255 988.405 230.87 1027.78 227.642C1183.18 214.906 1292.98 167.201 1361.37 109.487Z" fill="url(#paint0_linear_6055_1986)"/>
<defs>
<linearGradient id="paint0_linear_6055_1986" x1="-23.8885" y1="454.503" x2="1371.7" y2="6.27569" gradientUnits="userSpaceOnUse">
<stop offset="0.0269556" stop-color="#E16F99"/>
<stop offset="0.12643" stop-color="#E69169"/>
<stop offset="0.21066" stop-color="#EAA356"/>
<stop offset="0.343687" stop-color="#EDC749"/>
<stop offset="0.467232" stop-color="#E8D74D"/>
<stop offset="0.579048" stop-color="#CCD75E"/>
<stop offset="0.694295" stop-color="#9DD570"/>
<stop offset="0.816207" stop-color="#86D287"/>
<stop offset="0.939668" stop-color="#67C6CF"/>
</linearGradient>
</defs>
</svg>
