<svg width="639" height="96" viewBox="0 0 639 96" fill="none" xmlns="http://www.w3.org/2000/svg">
<g clip-path="url(#clip0_5855_1015)">
<path d="M158.404 11.2794C158.33 9.88989 158.542 8.5042 159.02 7.19695C159.498 5.88969 160.241 4.69822 161.2 3.68977C162.156 2.68132 163.305 1.87829 164.586 1.32925C165.862 0.780199 167.236 0.496338 168.625 0.496338C170.013 0.496338 171.387 0.780199 172.664 1.32925C173.94 1.87829 175.094 2.68132 176.049 3.68977C177.005 4.69822 177.748 5.88969 178.229 7.19695C178.711 8.50047 178.92 9.88989 178.845 11.2794C178.707 13.8976 177.572 16.3664 175.669 18.1704C173.765 19.9745 171.245 20.9829 168.625 20.9829C166.004 20.9829 163.481 19.9782 161.581 18.1704C159.681 16.3627 158.542 13.8976 158.404 11.2794Z" fill="#F74FD7"/>
<path d="M176.273 29.7788H160.864V93.7409H176.273V29.7788Z" fill="white"/>
<path d="M185.971 60.4732C185.971 39.1164 198.637 28.1093 217.525 28.1093C236.414 28.1093 249.135 38.9147 249.135 60.4732V93.7409H233.696V60.4732C233.696 48.2821 227.25 42.4816 217.525 42.4816C207.801 42.4816 201.355 48.1402 201.355 60.4732V93.7409H185.975V60.4732H185.971Z" fill="white"/>
<path d="M256.627 61.123C256.627 39.2284 272.94 28.1093 288.461 28.1093C292.668 27.9337 296.849 28.8526 300.589 30.7836C304.333 32.7146 307.506 35.583 309.806 39.1126V1.82971H325.185V61.2388C325.185 81.9457 311.217 95.4142 291.257 95.4142C271.297 95.4142 256.624 81.3556 256.624 61.1268L256.627 61.123ZM309.809 61.7729C309.809 50.4559 302.288 42.4779 291.037 42.4779C288.498 42.3845 285.968 42.8215 283.605 43.7627C281.246 44.7039 279.107 46.127 277.326 47.9459C275.549 49.7611 274.168 51.9312 273.276 54.3104C272.384 56.6933 271.999 59.2331 272.149 61.7729C272.003 64.309 272.384 66.8488 273.276 69.2318C274.168 71.611 275.545 73.7773 277.326 75.5925C279.107 77.4077 281.242 78.8307 283.605 79.7682C285.968 80.7057 288.495 81.139 291.033 81.0381C302.284 81.0381 309.806 73.034 309.806 61.7729H309.809Z" fill="white"/>
<path d="M332.849 74.8454H348.37C348.37 79.1183 352.245 81.9457 359.681 81.9457C367.117 81.9457 370.987 78.7223 370.987 74.8454C370.987 69.9227 365.332 69.1869 358.434 68.3689C348.594 67.0691 334.092 65.5415 334.092 49.7275C334.092 36.6587 344.073 28.1129 359.539 28.1129C375.004 28.1129 384.788 36.9126 385.184 48.17H369.89C369.524 44.293 365.903 41.5777 359.826 41.5777C353.096 41.5777 349.733 44.801 349.733 48.5659C349.733 53.4886 355.526 54.2244 362.398 55.1582C370.879 56.3197 386.602 57.9856 386.602 73.9415C386.602 86.8684 376.113 95.4141 359.826 95.4141C343.54 95.4141 333.222 86.7564 332.852 74.8491L332.849 74.8454Z" fill="white"/>
<path d="M391.604 61.7766C391.604 42.3433 405.741 28.1129 426.014 28.1129C446.287 28.1129 460.166 42.2574 460.166 61.7766V67.2073H407.775C408.585 71.3756 410.877 75.1106 414.233 77.7139C417.585 80.3172 421.773 81.6095 426.01 81.3518C432.882 81.3518 437.914 79.3984 441.136 75.2712H457.59C452.7 87.522 441.136 95.4963 426.01 95.4963C405.823 95.4963 391.6 81.1837 391.6 61.7766H391.604ZM443.879 54.9004C442.618 51.158 440.214 47.9085 437.007 45.604C433.801 43.2995 429.956 42.0632 426.01 42.0632C422.064 42.0632 418.216 43.3032 415.013 45.604C411.806 47.9085 409.406 51.158 408.141 54.9004H443.879Z" fill="white"/>
<path d="M467.688 69.1309V7.11853H483.097V29.749H516.062V43.7254H483.097V69.1869C483.097 77.6729 487.479 81.0979 493.81 81.0979C500.141 81.0979 504.553 77.8746 504.553 69.1869V67.5174H519.963V69.1869C519.963 87.0104 509.246 95.4964 493.81 95.4964C478.375 95.4964 467.688 87.0067 467.688 69.1309Z" fill="white"/>
<path d="M522.027 85.1988C522.038 83.1745 522.647 81.2024 523.778 79.5254C524.909 77.8483 526.514 76.5448 528.384 75.7791C530.254 75.0135 532.311 74.8193 534.293 75.2189C536.275 75.6185 538.093 76.6008 539.519 78.0351C540.945 79.4693 541.916 81.292 542.304 83.2791C542.696 85.2623 542.487 87.3203 541.71 89.1878C540.934 91.0553 539.624 92.6502 537.94 93.7744C536.257 94.8987 534.282 95.4963 532.259 95.4963C530.904 95.5224 529.556 95.2759 528.298 94.7679C527.04 94.26 525.898 93.5018 524.942 92.5381C523.987 91.5745 523.233 90.4279 522.732 89.1654C522.232 87.903 521.99 86.5547 522.027 85.1988Z" fill="#F4E311"/>
<path d="M542.214 62.3967C542.214 42.0857 556.351 28.1093 576.766 28.1093C597.181 28.1093 610.694 41.6898 610.694 62.2846V93.7409H596.557V81.1801C594.698 85.5762 591.529 89.2962 587.479 91.8286C583.433 94.3609 578.703 95.5823 573.936 95.3245C558.527 95.4926 542.214 84.1793 542.214 62.3967ZM595.397 61.7729C595.397 50.4559 587.905 42.4779 576.654 42.4779C574.112 42.377 571.581 42.814 569.218 43.7515C566.855 44.6927 564.716 46.1158 562.935 47.9347C561.155 49.7537 559.777 51.9237 558.889 54.3067C557.997 56.6896 557.616 59.2331 557.769 61.7729C557.62 64.309 558.004 66.8488 558.897 69.2318C559.789 71.611 561.166 73.7773 562.947 75.5925C564.724 77.4077 566.862 78.8307 569.225 79.7682C571.585 80.7057 574.115 81.139 576.654 81.0381C587.905 81.0381 595.397 73.034 595.397 61.7729Z" fill="white"/>
<path d="M618.044 11.2794C617.973 9.88989 618.182 8.5042 618.66 7.19695C619.141 5.89343 619.884 4.69822 620.84 3.68977C621.795 2.68132 622.949 1.87829 624.225 1.32925C625.502 0.780199 626.876 0.496338 628.264 0.496338C629.653 0.496338 631.027 0.780199 632.307 1.32925C633.584 1.87829 634.734 2.68132 635.693 3.68977C636.648 4.69822 637.388 5.88969 637.873 7.19695C638.354 8.50047 638.563 9.88989 638.489 11.2794C638.351 13.8976 637.216 16.3664 635.312 18.1704C633.412 19.9745 630.889 20.9829 628.268 20.9829C625.648 20.9829 623.128 19.9782 621.224 18.1704C619.324 16.3664 618.186 13.8976 618.048 11.2794H618.044Z" fill="#FC9010"/>
<path d="M635.939 29.7788H620.53V93.7409H635.939V29.7788Z" fill="white"/>
<path d="M11.0379 53.3205C5.21835 53.3205 0.5 48.5995 0.5 42.7766V84.9562C0.5 90.7789 5.21835 95.5 11.0379 95.5C16.8574 95.5 21.5758 90.7789 21.5758 84.9562V42.7729C21.5758 48.5957 16.8574 53.3168 11.0379 53.3168V53.3205Z" fill="#F74FD7"/>
<path d="M74.2728 53.3205C68.4532 53.3205 63.7349 48.5995 63.7349 42.7766V84.9562C63.7349 90.7789 68.4532 95.5 74.2728 95.5C80.0923 95.5 84.8107 90.7789 84.8107 84.9562V42.7729C84.8107 48.5957 80.0923 53.3168 74.2728 53.3168V53.3205Z" fill="#F4E311"/>
<path d="M105.89 0.593506C93.2991 0.593506 81.996 6.11759 74.2727 14.8762C80.8313 22.3126 84.8106 32.0759 84.8106 42.773C84.8106 31.1235 94.2473 21.6814 105.89 21.6814C117.533 21.6814 126.97 31.1235 126.97 42.773V84.9524C126.97 90.7753 131.688 95.4964 137.508 95.4964C143.327 95.4964 148.046 90.7753 148.046 84.9524V42.773C148.046 19.4777 129.172 0.593506 105.89 0.593506Z" fill="#59C1ED"/>
<path d="M74.2728 14.8799C67.7141 22.3163 63.7349 32.0796 63.7349 42.7767C63.7349 48.5996 68.4532 53.3206 74.2728 53.3206C80.0923 53.3206 84.8107 48.5996 84.8107 42.7767C84.8107 32.0796 80.8277 22.3163 74.2728 14.8799Z" fill="#28CEBE"/>
<path d="M42.6553 0.593506C19.3734 0.593506 0.5 19.4777 0.5 42.773C0.5 48.5958 5.21835 53.3169 11.0379 53.3169C16.8574 53.3169 21.5758 48.5958 21.5758 42.773C21.5758 31.1235 31.0125 21.6814 42.6553 21.6814C54.2981 21.6814 63.7348 31.1235 63.7348 42.773C63.7348 32.0759 67.7178 22.3126 74.2727 14.8762C66.5494 6.12132 55.2463 0.593506 42.6553 0.593506Z" fill="#FC9010"/>
</g>
<defs>
<clipPath id="clip0_5855_1015">
<rect width="638" height="95" fill="white" transform="translate(0.5 0.5)"/>
</clipPath>
</defs>
</svg>
