<svg xmlns="http://www.w3.org/2000/svg" viewBox="0 0 512 512" width="512" height="512" style="width: 100%; height: 100%; transform: translate3d(0px, 0px, 0px);" preserveAspectRatio="xMidYMid meet"><defs><clipPath id="__lottie_element_52"><rect width="512" height="512" x="0" y="0"/></clipPath><clipPath id="__lottie_element_123"><path fill="#ffffff" clip-rule="nonzero" d=" M83.83999633789062,-9.67300033569336 C21.077999114990234,-3.006999969482422 -23.40999984741211,14.392000198364258 -23.40999984741211,44.07699966430664 C-23.40999984741211,73.76200103759766 24.60700035095215,97.8270034790039 83.83999633789062,97.8270034790039 C143.072998046875,97.8270034790039 182.1840057373047,90.58399963378906 191.08999633789062,44.07699966430664 C199.99600219726562,-2.430000066757202 146.6020050048828,-16.339000701904297 83.83999633789062,-9.67300033569336" fill-opacity="1"/></clipPath><clipPath id="__lottie_element_147"><path fill="#ffffff" clip-rule="nonzero" d=" M-110.66000366210938,41.32699966430664 C-173.4219970703125,47.99300003051758 -217.91000366210938,65.39199829101562 -217.91000366210938,95.0770034790039 C-217.91000366210938,124.76200103759766 -169.89300537109375,148.82699584960938 -110.66000366210938,148.82699584960938 C-51.426998138427734,148.82699584960938 -12.315999984741211,141.58399963378906 -3.4100000858306885,95.0770034790039 C5.495999813079834,48.56999969482422 -47.89799880981445,34.6609992980957 -110.66000366210938,41.32699966430664" fill-opacity="1"/></clipPath></defs><g clip-path="url(#__lottie_element_52)"><g style="display: block;" transform="matrix(1,0,0,1,89.01200866699219,108.56400299072266)" opacity="1"><g opacity="1" transform="matrix(1,0,0,1,166.6479949951172,120.95099639892578)"><path fill="rgb(54,53,58)" fill-opacity="1" d=" M150.0780029296875,120.70099639892578 C150.0780029296875,120.70099639892578 -150.0780029296875,120.70099639892578 -150.0780029296875,120.70099639892578 C-159.08999633789062,120.69400024414062 -166.39100646972656,113.38899993896484 -166.3979949951172,104.38099670410156 C-166.3979949951172,104.38099670410156 -166.3979949951172,-104.38099670410156 -166.3979949951172,-104.38099670410156 C-166.39100646972656,-113.38800048828125 -159.08999633789062,-120.68900299072266 -150.0780029296875,-120.70099639892578 C-150.0780029296875,-120.70099639892578 150.0780029296875,-120.70099639892578 150.0780029296875,-120.70099639892578 C159.08999633789062,-120.68900299072266 166.39100646972656,-113.38800048828125 166.3979949951172,-104.38099670410156 C166.3979949951172,-104.38099670410156 166.3979949951172,104.38099670410156 166.3979949951172,104.38099670410156 C166.39100646972656,113.38899993896484 159.08999633789062,120.69400024414062 150.0780029296875,120.70099639892578z M-150.0780029296875,-115.58399963378906 C-156.26600646972656,-115.57599639892578 -161.2729949951172,-110.56400299072266 -161.281005859375,-104.38099670410156 C-161.281005859375,-104.38099670410156 -161.281005859375,104.38099670410156 -161.281005859375,104.38099670410156 C-161.2729949951172,110.56500244140625 -156.26199340820312,115.57599639892578 -150.0780029296875,115.58399963378906 C-150.0780029296875,115.58399963378906 150.0780029296875,115.58399963378906 150.0780029296875,115.58399963378906 C156.26199340820312,115.57599639892578 161.2729949951172,110.56500244140625 161.281005859375,104.38099670410156 C161.281005859375,104.38099670410156 161.281005859375,-104.38099670410156 161.281005859375,-104.38099670410156 C161.2729949951172,-110.56400299072266 156.26199340820312,-115.5719985961914 150.0780029296875,-115.58399963378906 C150.0780029296875,-115.58399963378906 -150.0780029296875,-115.58399963378906 -150.0780029296875,-115.58399963378906z"/></g><g opacity="1" transform="matrix(1,0,0,1,166.6479949951172,217.02200317382812)"><path fill="rgb(54,53,58)" fill-opacity="1" d=" M150.0780029296875,24.6299991607666 C150.0780029296875,24.6299991607666 -150.0780029296875,24.6299991607666 -150.0780029296875,24.6299991607666 C-159.08999633789062,24.62299919128418 -166.39100646972656,17.31800079345703 -166.3979949951172,8.3100004196167 C-166.3979949951172,8.3100004196167 -166.3979949951172,-22.072999954223633 -166.3979949951172,-22.072999954223633 C-166.3979949951172,-23.48699951171875 -165.25399780273438,-24.631000518798828 -163.83999633789062,-24.631000518798828 C-163.83999633789062,-24.631000518798828 163.83999633789062,-24.631000518798828 163.83999633789062,-24.631000518798828 C165.25399780273438,-24.631000518798828 166.3979949951172,-23.48699951171875 166.3979949951172,-22.072999954223633 C166.3979949951172,-22.072999954223633 166.3979949951172,8.3100004196167 166.3979949951172,8.3100004196167 C166.39100646972656,17.31800079345703 159.08999633789062,24.62299919128418 150.0780029296875,24.6299991607666z M-161.281005859375,-19.513999938964844 C-161.281005859375,-19.513999938964844 -161.281005859375,8.3100004196167 -161.281005859375,8.3100004196167 C-161.2729949951172,14.494000434875488 -156.26199340820312,19.5049991607666 -150.0780029296875,19.51300048828125 C-150.0780029296875,19.51300048828125 150.0780029296875,19.51300048828125 150.0780029296875,19.51300048828125 C156.26199340820312,19.5049991607666 161.2729949951172,14.494000434875488 161.281005859375,8.3100004196167 C161.281005859375,8.3100004196167 161.281005859375,-19.513999938964844 161.281005859375,-19.513999938964844 C161.281005859375,-19.513999938964844 -161.281005859375,-19.513999938964844 -161.281005859375,-19.513999938964844z"/></g></g><g style="display: block;" transform="matrix(1,0,0,1,179.61700439453125,343.5559997558594)" opacity="1"><g opacity="1" transform="matrix(1,0,0,1,76.03700256347656,21.368000030517578)"><path fill="rgb(54,53,58)" fill-opacity="1" d=" M48.64699935913086,21.118000030517578 C48.64699935913086,21.118000030517578 -48.66600036621094,21.118000030517578 -48.66600036621094,21.118000030517578 C-50.28300094604492,21.118000030517578 -51.49800109863281,19.632999420166016 -51.17399978637695,18.042999267578125 C-51.17399978637695,18.042999267578125 -43.8849983215332,-17.773000717163086 -43.8849983215332,-17.773000717163086 C-43.20100021362305,-21.117000579833984 -38.185001373291016,-20.0939998626709 -38.86899948120117,-16.750999450683594 C-38.86899948120117,-16.750999450683594 -45.525001525878906,16.003999710083008 -45.525001525878906,16.003999710083008 C-45.525001525878906,16.003999710083008 45.52199935913086,16.003999710083008 45.52199935913086,16.003999710083008 C45.52199935913086,16.003999710083008 38.8650016784668,-16.750999450683594 38.8650016784668,-16.750999450683594 C38.18600082397461,-20.0939998626709 43.20100021362305,-21.117000579833984 43.8849983215332,-17.773000717163086 C43.8849983215332,-17.773000717163086 51.17399978637695,18.042999267578125 51.17399978637695,18.042999267578125 C51.49800109863281,19.632999420166016 50.28300094604492,21.118000030517578 48.6619987487793,21.118000030517578 C48.6619987487793,21.118000030517578 48.64699935913086,21.118000030517578 48.64699935913086,21.118000030517578z"/></g><g opacity="1" transform="matrix(1,0,0,1,76.04299926757812,48.85599899291992)"><path fill="rgb(54,53,58)" fill-opacity="1" d=" M73.23400115966797,11.496000289916992 C73.23400115966797,11.496000289916992 -73.23400115966797,11.496000289916992 -73.23400115966797,11.496000289916992 C-74.64800262451172,11.496000289916992 -75.79299926757812,10.35099983215332 -75.79299926757812,8.937000274658203 C-75.79299926757812,8.937000274658203 -75.79299926757812,5.460999965667725 -75.79299926757812,5.460999965667725 C-75.79299926757812,-3.88700008392334 -67.43000030517578,-11.496000289916992 -57.14500045776367,-11.496000289916992 C-57.14500045776367,-11.496000289916992 57.14500045776367,-11.496000289916992 57.14500045776367,-11.496000289916992 C67.43000030517578,-11.496000289916992 75.79299926757812,-3.88700008392334 75.79299926757812,5.460999965667725 C75.79299926757812,5.460999965667725 75.79299926757812,8.937000274658203 75.79299926757812,8.937000274658203 C75.79299926757812,10.35099983215332 74.64800262451172,11.496000289916992 73.23400115966797,11.496000289916992z M-70.6760025024414,6.379000186920166 C-70.6760025024414,6.379000186920166 70.6760025024414,6.379000186920166 70.6760025024414,6.379000186920166 C70.6760025024414,6.379000186920166 70.6760025024414,5.460999965667725 70.6760025024414,5.460999965667725 C70.6760025024414,-1.0670000314712524 64.6050033569336,-6.375 57.14500045776367,-6.375 C57.14500045776367,-6.375 -57.14500045776367,-6.375 -57.14500045776367,-6.375 C-64.6050033569336,-6.375 -70.6760025024414,-1.0670000314712524 -70.6760025024414,5.460999965667725 C-70.6760025024414,5.460999965667725 -70.6760025024414,6.379000186920166 -70.6760025024414,6.379000186920166z"/></g></g><g style="display: none;" transform="matrix(1,0,0,0,170.6479949951172,287.15399169921875)" opacity="1"><g opacity="1" transform="matrix(1,0,0,1,10.541000366210938,36.698001861572266)"><path fill="rgb(54,53,58)" fill-opacity="1" d=" M7.732999801635742,36.448001861572266 C7.732999801635742,36.448001861572266 -7.73199987411499,36.448001861572266 -7.73199987411499,36.448001861572266 C-9.145999908447266,36.448001861572266 -10.291000366210938,35.303001403808594 -10.291000366210938,33.888999938964844 C-10.291000366210938,33.888999938964844 -10.291000366210938,-33.8849983215332 -10.291000366210938,-33.8849983215332 C-10.291000366210938,-35.29899978637695 -9.145999908447266,-36.448001861572266 -7.73199987411499,-36.448001861572266 C-7.73199987411499,-36.448001861572266 7.732999801635742,-36.448001861572266 7.732999801635742,-36.448001861572266 C9.147000312805176,-36.448001861572266 10.291000366210938,-35.29899978637695 10.291000366210938,-33.8849983215332 C10.291000366210938,-33.8849983215332 10.291000366210938,33.888999938964844 10.291000366210938,33.888999938964844 C10.291000366210938,35.303001403808594 9.147000312805176,36.448001861572266 7.732999801635742,36.448001861572266z M-5.170000076293945,31.32699966430664 C-5.170000076293945,31.32699966430664 5.170000076293945,31.32699966430664 5.170000076293945,31.32699966430664 C5.170000076293945,31.32699966430664 5.170000076293945,-31.326000213623047 5.170000076293945,-31.326000213623047 C5.170000076293945,-31.326000213623047 -5.170000076293945,-31.326000213623047 -5.170000076293945,-31.326000213623047 C-5.170000076293945,-31.326000213623047 -5.170000076293945,31.32699966430664 -5.170000076293945,31.32699966430664z"/></g></g><g style="display: none;" transform="matrix(1,0,0,0,216.77699279785156,287.15399169921875)" opacity="1"><g opacity="1" transform="matrix(1,0,0,1,10.541000366210938,48.198001861572266)"><path fill="rgb(54,53,58)" fill-opacity="1" d=" M7.732999801635742,47.948001861572266 C7.732999801635742,47.948001861572266 -7.73199987411499,47.948001861572266 -7.73199987411499,47.948001861572266 C-9.145999908447266,47.948001861572266 -10.291000366210938,46.803001403808594 -10.291000366210938,45.388999938964844 C-10.291000366210938,45.388999938964844 -10.291000366210938,-45.3849983215332 -10.291000366210938,-45.3849983215332 C-10.291000366210938,-46.79899978637695 -9.145999908447266,-47.948001861572266 -7.73199987411499,-47.948001861572266 C-7.73199987411499,-47.948001861572266 7.732999801635742,-47.948001861572266 7.732999801635742,-47.948001861572266 C9.147000312805176,-47.948001861572266 10.291000366210938,-46.79899978637695 10.291000366210938,-45.3849983215332 C10.291000366210938,-45.3849983215332 10.291000366210938,45.388999938964844 10.291000366210938,45.388999938964844 C10.291000366210938,46.803001403808594 9.147000312805176,47.948001861572266 7.732999801635742,47.948001861572266z M-5.170000076293945,42.82699966430664 C-5.170000076293945,42.82699966430664 5.170000076293945,42.82699966430664 5.170000076293945,42.82699966430664 C5.170000076293945,42.82699966430664 5.170000076293945,-42.82600021362305 5.170000076293945,-42.82600021362305 C5.170000076293945,-42.82600021362305 -5.170000076293945,-42.82600021362305 -5.170000076293945,-42.82600021362305 C-5.170000076293945,-42.82600021362305 -5.170000076293945,42.82699966430664 -5.170000076293945,42.82699966430664z"/></g></g><g style="display: none;" transform="matrix(1,0,0,0,262.906005859375,287.15399169921875)" opacity="1"><g opacity="1" transform="matrix(1,0,0,1,10.541000366210938,41.41400146484375)"><path fill="rgb(54,53,58)" fill-opacity="1" d=" M7.732999801635742,41.16400146484375 C7.732999801635742,41.16400146484375 -7.73199987411499,41.16400146484375 -7.73199987411499,41.16400146484375 C-9.145999908447266,41.16400146484375 -10.291000366210938,40.01900100708008 -10.291000366210938,38.60499954223633 C-10.291000366210938,38.60499954223633 -10.291000366210938,-38.60200119018555 -10.291000366210938,-38.60200119018555 C-10.291000366210938,-40.01599884033203 -9.145999908447266,-41.16400146484375 -7.73199987411499,-41.16400146484375 C-7.73199987411499,-41.16400146484375 7.732999801635742,-41.16400146484375 7.732999801635742,-41.16400146484375 C9.147000312805176,-41.16400146484375 10.291000366210938,-40.01599884033203 10.291000366210938,-38.60200119018555 C10.291000366210938,-38.60200119018555 10.291000366210938,38.60499954223633 10.291000366210938,38.60499954223633 C10.291000366210938,40.01900100708008 9.147000312805176,41.16400146484375 7.732999801635742,41.16400146484375z M-5.170000076293945,36.042999267578125 C-5.170000076293945,36.042999267578125 5.170000076293945,36.042999267578125 5.170000076293945,36.042999267578125 C5.170000076293945,36.042999267578125 5.170000076293945,-36.042999267578125 5.170000076293945,-36.042999267578125 C5.170000076293945,-36.042999267578125 -5.170000076293945,-36.042999267578125 -5.170000076293945,-36.042999267578125 C-5.170000076293945,-36.042999267578125 -5.170000076293945,36.042999267578125 -5.170000076293945,36.042999267578125z"/></g></g><g style="display: none;" transform="matrix(1,0,0,0,309.03497314453125,287.15399169921875)" opacity="1"><g opacity="1" transform="matrix(1,0,0,1,10.541000366210938,52.2599983215332)"><path fill="rgb(54,53,58)" fill-opacity="1" d=" M7.73199987411499,52.0099983215332 C7.73199987411499,52.0099983215332 -7.73199987411499,52.0099983215332 -7.73199987411499,52.0099983215332 C-9.145999908447266,52.0099983215332 -10.291000366210938,50.8650016784668 -10.291000366210938,49.45100021362305 C-10.291000366210938,49.45100021362305 -10.291000366210938,-49.446998596191406 -10.291000366210938,-49.446998596191406 C-10.291000366210938,-50.861000061035156 -9.145999908447266,-52.0099983215332 -7.73199987411499,-52.0099983215332 C-7.73199987411499,-52.0099983215332 7.73199987411499,-52.0099983215332 7.73199987411499,-52.0099983215332 C9.145999908447266,-52.0099983215332 10.291000366210938,-50.861000061035156 10.291000366210938,-49.446998596191406 C10.291000366210938,-49.446998596191406 10.291000366210938,49.45100021362305 10.291000366210938,49.45100021362305 C10.291000366210938,50.8650016784668 9.145999908447266,52.0099983215332 7.73199987411499,52.0099983215332z M-5.170000076293945,46.888999938964844 C-5.170000076293945,46.888999938964844 5.170000076293945,46.888999938964844 5.170000076293945,46.888999938964844 C5.170000076293945,46.888999938964844 5.170000076293945,-46.88800048828125 5.170000076293945,-46.88800048828125 C5.170000076293945,-46.88800048828125 -5.170000076293945,-46.88800048828125 -5.170000076293945,-46.88800048828125 C-5.170000076293945,-46.88800048828125 -5.170000076293945,46.888999938964844 -5.170000076293945,46.888999938964844z"/></g></g><g clip-path="url(#__lottie_element_123)" style="display: none;" transform="matrix(1,0,0,1,169.41000366210938,125.6729965209961)" opacity="1"><g opacity="1" transform="matrix(1,0,0,1,80.02100372314453,44.85100173950195)"><path fill="rgb(54,53,58)" fill-opacity="1" d=" M15.956000328063965,11.305999755859375 C15.545000076293945,11.305999755859375 15.142000198364258,11.208999633789062 14.779000282287598,11.017999649047852 C14.779000282287598,11.017999649047852 -16.611000061035156,-5.314000129699707 -16.611000061035156,-5.314000129699707 C-19.517000198364258,-6.927999973297119 -17.239999771118164,-11.3100004196167 -14.25100040435791,-9.857000350952148 C-14.25100040435791,-9.857000350952148 17.14299964904785,6.479000091552734 17.14299964904785,6.479000091552734 C19.51799964904785,7.7170000076293945 18.638999938964844,11.310999870300293 15.956000328063965,11.310999870300293 C15.956000328063965,11.310999870300293 15.956000328063965,11.305999755859375 15.956000328063965,11.305999755859375z"/></g><g opacity="1" transform="matrix(1,0,0,1,34.840999603271484,51.02399826049805)"><path fill="rgb(54,53,58)" fill-opacity="1" d=" M-16.746999740600586,16.577999114990234 C-19.160999298095703,16.577999114990234 -20.23699951171875,13.54699993133545 -18.36199951171875,12.027000427246094 C-18.36199951171875,12.027000427246094 14.663000106811523,-14.722999572753906 14.663000106811523,-14.722999572753906 C17.280000686645508,-16.577999114990234 20.23699951171875,-12.913999557495117 17.874000549316406,-10.746000289916992 C17.874000549316406,-10.746000289916992 -15.151000022888184,16.007999420166016 -15.151000022888184,16.007999420166016 C-15.604000091552734,16.375 -16.165000915527344,16.573999404907227 -16.746999740600586,16.577999114990234z"/></g><g opacity="1" transform="matrix(1,0,0,1,132.14999389648438,33.84199905395508)"><path fill="rgb(54,53,58)" fill-opacity="1" d=" M-21.79800033569336,20.430999755859375 C-24.219999313354492,20.430999755859375 -25.291000366210938,17.38800048828125 -23.40399932861328,15.87600040435791 C-23.40399932861328,15.87600040435791 20.760000228881836,-19.51300048828125 20.760000228881836,-19.51300048828125 C21.86199951171875,-20.430999755859375 23.49799919128418,-20.26799964904785 24.39699935913086,-19.150999069213867 C25.291000366210938,-18.030000686645508 25.09600067138672,-16.395999908447266 23.96299934387207,-15.520999908447266 C23.96299934387207,-15.520999908447266 -20.201000213623047,19.868000030517578 -20.201000213623047,19.868000030517578 C-20.65399932861328,20.23200035095215 -21.215999603271484,20.430999755859375 -21.79800033569336,20.430999755859375z"/></g><g opacity="1" transform="matrix(1,0,0,1,11.359000205993652,69.74400329589844)"><path fill="rgb(54,53,58)" fill-opacity="1" d=" M0.421999990940094,11.112000465393066 C-3.9019999504089355,11.112000465393066 -7.801000118255615,8.505000114440918 -9.458000183105469,4.508999824523926 C-11.109999656677246,0.5170000195503235 -10.196000099182129,-4.083000183105469 -7.140999794006348,-7.138000011444092 C-4.083000183105469,-10.196999549865723 0.515999972820282,-11.111000061035156 4.51200008392334,-9.454000473022461 C8.508000373840332,-7.802000045776367 11.109000205993652,-3.9040000438690186 11.109000205993652,0.42100000381469727 C11.104999542236328,6.322999954223633 6.321000099182129,11.104000091552734 0.421999990940094,11.112000465393066z M0.421999990940094,-5.151000022888184 C-1.8320000171661377,-5.151000022888184 -3.864000082015991,-3.7939999103546143 -4.7270002365112305,-1.7120000123977661 C-5.590000152587891,0.3700000047683716 -5.113999843597412,2.7679998874664307 -3.5199999809265137,4.357999801635742 C-1.9259999990463257,5.952000141143799 0.4690000116825104,6.427999973297119 2.5510001182556152,5.565000057220459 C4.632999897003174,4.705999851226807 5.993000030517578,2.6740000247955322 5.993000030517578,0.42100000381469727 C5.988999843597412,-2.6540000438690186 3.496000051498413,-5.146999835968018 0.421999990940094,-5.151000022888184z"/></g><g opacity="1" transform="matrix(1,0,0,1,57.0880012512207,32.84600067138672)"><path fill="rgb(54,53,58)" fill-opacity="1" d=" M0.41999998688697815,11.112000465393066 C-3.9040000438690186,11.112000465393066 -7.802999973297119,8.505000114440918 -9.454999923706055,4.513000011444092 C-11.111000061035156,0.5170000195503235 -10.196999549865723,-4.079999923706055 -7.138999938964844,-7.138000011444092 C-4.079999923706055,-10.196999549865723 0.5170000195503235,-11.112000465393066 4.513999938964844,-9.456000328063965 C8.505999565124512,-7.803999900817871 11.111000061035156,-3.9049999713897705 11.111000061035156,0.4189999997615814 C11.102999687194824,6.321000099182129 6.322000026702881,11.104000091552734 0.41999998688697815,11.112000465393066z M0.41999998688697815,-5.151000022888184 C-1.8339999914169312,-5.151000022888184 -3.865000009536743,-3.7920000553131104 -4.724999904632568,-1.7100000381469727 C-5.5879998207092285,0.36800000071525574 -5.111000061035156,2.7679998874664307 -3.5179998874664307,4.361999988555908 C-1.9240000247955322,5.954999923706055 0.47099998593330383,6.432000160217285 2.552999973297119,5.568999767303467 C4.635000228881836,4.704999923706055 5.989999771118164,2.6730000972747803 5.989999771118164,0.4189999997615814 C5.989999771118164,-2.6549999713897705 3.497999906539917,-5.146999835968018 0.41999998688697815,-5.151000022888184z"/></g><g opacity="1" transform="matrix(1,0,0,1,103.21600341796875,55.87699890136719)"><path fill="rgb(54,53,58)" fill-opacity="1" d=" M0.42100000381469727,11.112000465393066 C-3.9040000438690186,11.112000465393066 -7.802000045776367,8.508999824523926 -9.454000473022461,4.513000011444092 C-11.111000061035156,0.5170000195503235 -10.196999549865723,-4.079999923706055 -7.138999938964844,-7.138000011444092 C-4.079999923706055,-10.192999839782715 0.5180000066757202,-11.112000465393066 4.513999938964844,-9.456000328063965 C8.506999969482422,-7.798999786376953 11.111000061035156,-3.9010000228881836 11.111000061035156,0.4230000078678131 C11.107000350952148,6.322000026702881 6.322999954223633,11.107999801635742 0.42100000381469727,11.112000465393066z M0.42100000381469727,-5.151000022888184 C-1.8329999446868896,-5.151000022888184 -3.865000009536743,-3.7920000553131104 -4.724999904632568,-1.7100000381469727 C-5.5879998207092285,0.3720000088214874 -5.111999988555908,2.7679998874664307 -3.5179998874664307,4.361999988555908 C-1.9240000247955322,5.955999851226807 0.47200000286102295,6.432000160217285 2.553999900817871,5.568999767303467 C4.636000156402588,4.705999851226807 5.989999771118164,2.6730000972747803 5.989999771118164,0.4230000078678131 C5.989999771118164,-2.6549999713897705 3.494999885559082,-5.146999835968018 0.42100000381469727,-5.151000022888184z"/></g><g opacity="1" transform="matrix(1,0,0,1,160.82200622558594,11.362000465393066)"><path fill="rgb(54,53,58)" fill-opacity="1" d=" M0.41600000858306885,11.112000465393066 C-3.9040000438690186,11.107999801635742 -7.802000045776367,8.501999855041504 -9.458999633789062,4.510000228881836 C-11.111000061035156,0.5139999985694885 -10.197999954223633,-4.083000183105469 -7.138999938964844,-7.142000198364258 C-4.080999851226807,-10.196000099182129 0.5180000066757202,-11.111000061035156 4.513999938964844,-9.458000183105469 C8.505999565124512,-7.802000045776367 11.111000061035156,-3.9030001163482666 11.111000061035156,0.42100000381469727 C11.102999687194824,6.322999954223633 6.322999954223633,11.107999801635742 0.41600000858306885,11.112000465393066z M0.41600000858306885,-5.151000022888184 C-1.8339999914169312,-5.151000022888184 -3.865999937057495,-3.7899999618530273 -4.729000091552734,-1.7079999446868896 C-5.589000225067139,0.3700000047683716 -5.111999988555908,2.7679998874664307 -3.5179998874664307,4.357999801635742 C-1.9249999523162842,5.952000141143799 0.47099998593330383,6.428999900817871 2.552999973297119,5.565000057220459 C4.635000228881836,4.705999851226807 5.988999843597412,2.674999952316284 5.988999843597412,0.42100000381469727 C5.986000061035156,-2.6570000648498535 3.49399995803833,-5.151000022888184 0.41600000858306885,-5.151000022888184z"/></g></g><g clip-path="url(#__lottie_element_147)" style="display: none;" transform="matrix(1,0,0,1,169.41000366210938,125.6729965209961)" opacity="1"><g opacity="1" transform="matrix(1,0,0,1,80.02100372314453,44.85100173950195)"><path fill="rgb(54,53,58)" fill-opacity="1" d=" M15.956000328063965,11.305999755859375 C15.545000076293945,11.305999755859375 15.142000198364258,11.208999633789062 14.779000282287598,11.017999649047852 C14.779000282287598,11.017999649047852 -16.611000061035156,-5.314000129699707 -16.611000061035156,-5.314000129699707 C-19.517000198364258,-6.927999973297119 -17.239999771118164,-11.3100004196167 -14.25100040435791,-9.857000350952148 C-14.25100040435791,-9.857000350952148 17.14299964904785,6.479000091552734 17.14299964904785,6.479000091552734 C19.51799964904785,7.7170000076293945 18.638999938964844,11.310999870300293 15.956000328063965,11.310999870300293 C15.956000328063965,11.310999870300293 15.956000328063965,11.305999755859375 15.956000328063965,11.305999755859375z"/></g><g opacity="1" transform="matrix(1,0,0,1,34.840999603271484,51.02399826049805)"><path fill="rgb(54,53,58)" fill-opacity="1" d=" M-16.746999740600586,16.577999114990234 C-19.160999298095703,16.577999114990234 -20.23699951171875,13.54699993133545 -18.36199951171875,12.027000427246094 C-18.36199951171875,12.027000427246094 14.663000106811523,-14.722999572753906 14.663000106811523,-14.722999572753906 C17.280000686645508,-16.577999114990234 20.23699951171875,-12.913999557495117 17.874000549316406,-10.746000289916992 C17.874000549316406,-10.746000289916992 -15.151000022888184,16.007999420166016 -15.151000022888184,16.007999420166016 C-15.604000091552734,16.375 -16.165000915527344,16.573999404907227 -16.746999740600586,16.577999114990234z"/></g><g opacity="1" transform="matrix(1,0,0,1,132.14999389648438,33.84199905395508)"><path fill="rgb(54,53,58)" fill-opacity="1" d=" M-21.79800033569336,20.430999755859375 C-24.219999313354492,20.430999755859375 -25.291000366210938,17.38800048828125 -23.40399932861328,15.87600040435791 C-23.40399932861328,15.87600040435791 20.760000228881836,-19.51300048828125 20.760000228881836,-19.51300048828125 C21.86199951171875,-20.430999755859375 23.49799919128418,-20.26799964904785 24.39699935913086,-19.150999069213867 C25.291000366210938,-18.030000686645508 25.09600067138672,-16.395999908447266 23.96299934387207,-15.520999908447266 C23.96299934387207,-15.520999908447266 -20.201000213623047,19.868000030517578 -20.201000213623047,19.868000030517578 C-20.65399932861328,20.23200035095215 -21.215999603271484,20.430999755859375 -21.79800033569336,20.430999755859375z"/></g><g opacity="1" transform="matrix(1,0,0,1,11.359000205993652,69.74400329589844)"><path fill="rgb(54,53,58)" fill-opacity="1" d=" M0.421999990940094,11.112000465393066 C-3.9019999504089355,11.112000465393066 -7.801000118255615,8.505000114440918 -9.458000183105469,4.508999824523926 C-11.109999656677246,0.5170000195503235 -10.196000099182129,-4.083000183105469 -7.140999794006348,-7.138000011444092 C-4.083000183105469,-10.196999549865723 0.515999972820282,-11.111000061035156 4.51200008392334,-9.454000473022461 C8.508000373840332,-7.802000045776367 11.109000205993652,-3.9040000438690186 11.109000205993652,0.42100000381469727 C11.104999542236328,6.322999954223633 6.321000099182129,11.104000091552734 0.421999990940094,11.112000465393066z M0.421999990940094,-5.151000022888184 C-1.8320000171661377,-5.151000022888184 -3.864000082015991,-3.7939999103546143 -4.7270002365112305,-1.7120000123977661 C-5.590000152587891,0.3700000047683716 -5.113999843597412,2.7679998874664307 -3.5199999809265137,4.357999801635742 C-1.9259999990463257,5.952000141143799 0.4690000116825104,6.427999973297119 2.5510001182556152,5.565000057220459 C4.632999897003174,4.705999851226807 5.993000030517578,2.6740000247955322 5.993000030517578,0.42100000381469727 C5.988999843597412,-2.6540000438690186 3.496000051498413,-5.146999835968018 0.421999990940094,-5.151000022888184z"/></g><g opacity="1" transform="matrix(1,0,0,1,57.0880012512207,32.84600067138672)"><path fill="rgb(54,53,58)" fill-opacity="1" d=" M0.41999998688697815,11.112000465393066 C-3.9040000438690186,11.112000465393066 -7.802999973297119,8.505000114440918 -9.454999923706055,4.513000011444092 C-11.111000061035156,0.5170000195503235 -10.196999549865723,-4.079999923706055 -7.138999938964844,-7.138000011444092 C-4.079999923706055,-10.196999549865723 0.5170000195503235,-11.112000465393066 4.513999938964844,-9.456000328063965 C8.505999565124512,-7.803999900817871 11.111000061035156,-3.9049999713897705 11.111000061035156,0.4189999997615814 C11.102999687194824,6.321000099182129 6.322000026702881,11.104000091552734 0.41999998688697815,11.112000465393066z M0.41999998688697815,-5.151000022888184 C-1.8339999914169312,-5.151000022888184 -3.865000009536743,-3.7920000553131104 -4.724999904632568,-1.7100000381469727 C-5.5879998207092285,0.36800000071525574 -5.111000061035156,2.7679998874664307 -3.5179998874664307,4.361999988555908 C-1.9240000247955322,5.954999923706055 0.47099998593330383,6.432000160217285 2.552999973297119,5.568999767303467 C4.635000228881836,4.704999923706055 5.989999771118164,2.6730000972747803 5.989999771118164,0.4189999997615814 C5.989999771118164,-2.6549999713897705 3.497999906539917,-5.146999835968018 0.41999998688697815,-5.151000022888184z"/></g><g opacity="1" transform="matrix(1,0,0,1,103.21600341796875,55.87699890136719)"><path fill="rgb(54,53,58)" fill-opacity="1" d=" M0.42100000381469727,11.112000465393066 C-3.9040000438690186,11.112000465393066 -7.802000045776367,8.508999824523926 -9.454000473022461,4.513000011444092 C-11.111000061035156,0.5170000195503235 -10.196999549865723,-4.079999923706055 -7.138999938964844,-7.138000011444092 C-4.079999923706055,-10.192999839782715 0.5180000066757202,-11.112000465393066 4.513999938964844,-9.456000328063965 C8.506999969482422,-7.798999786376953 11.111000061035156,-3.9010000228881836 11.111000061035156,0.4230000078678131 C11.107000350952148,6.322000026702881 6.322999954223633,11.107999801635742 0.42100000381469727,11.112000465393066z M0.42100000381469727,-5.151000022888184 C-1.8329999446868896,-5.151000022888184 -3.865000009536743,-3.7920000553131104 -4.724999904632568,-1.7100000381469727 C-5.5879998207092285,0.3720000088214874 -5.111999988555908,2.7679998874664307 -3.5179998874664307,4.361999988555908 C-1.9240000247955322,5.955999851226807 0.47200000286102295,6.432000160217285 2.553999900817871,5.568999767303467 C4.636000156402588,4.705999851226807 5.989999771118164,2.6730000972747803 5.989999771118164,0.4230000078678131 C5.989999771118164,-2.6549999713897705 3.494999885559082,-5.146999835968018 0.42100000381469727,-5.151000022888184z"/></g><g opacity="1" transform="matrix(1,0,0,1,160.82200622558594,11.362000465393066)"><path fill="rgb(54,53,58)" fill-opacity="1" d=" M0.41600000858306885,11.112000465393066 C-3.9040000438690186,11.107999801635742 -7.802000045776367,8.501999855041504 -9.458999633789062,4.510000228881836 C-11.111000061035156,0.5139999985694885 -10.197999954223633,-4.083000183105469 -7.138999938964844,-7.142000198364258 C-4.080999851226807,-10.196000099182129 0.5180000066757202,-11.111000061035156 4.513999938964844,-9.458000183105469 C8.505999565124512,-7.802000045776367 11.111000061035156,-3.9030001163482666 11.111000061035156,0.42100000381469727 C11.102999687194824,6.322999954223633 6.322999954223633,11.107999801635742 0.41600000858306885,11.112000465393066z M0.41600000858306885,-5.151000022888184 C-1.8339999914169312,-5.151000022888184 -3.865999937057495,-3.7899999618530273 -4.729000091552734,-1.7079999446868896 C-5.589000225067139,0.3700000047683716 -5.111999988555908,2.7679998874664307 -3.5179998874664307,4.357999801635742 C-1.9249999523162842,5.952000141143799 0.47099998593330383,6.428999900817871 2.552999973297119,5.565000057220459 C4.635000228881836,4.705999851226807 5.988999843597412,2.674999952316284 5.988999843597412,0.42100000381469727 C5.986000061035156,-2.6570000648498535 3.49399995803833,-5.151000022888184 0.41600000858306885,-5.151000022888184z"/></g></g><g style="display: block;" transform="matrix(0.9984501600265503,0,0,1,156.06838989257812,282.7829895019531)" opacity="1"><g opacity="1" transform="matrix(1,0,0,1,94.46099853515625,2.809999942779541)"><path fill="rgb(54,53,58)" fill-opacity="1" d=" M90.7969970703125,2.561000108718872 C90.7969970703125,2.561000108718872 -90.7969970703125,2.561000108718872 -90.7969970703125,2.561000108718872 C-94.21099853515625,2.561000108718872 -94.21099853515625,-2.561000108718872 -90.7969970703125,-2.561000108718872 C-90.7969970703125,-2.561000108718872 90.7969970703125,-2.561000108718872 90.7969970703125,-2.561000108718872 C94.21099853515625,-2.561000108718872 94.21099853515625,2.561000108718872 90.7969970703125,2.561000108718872z"/></g></g><g style="display: block;" transform="matrix(1,0,0,1,244.36199951171875,314.2829895019531)" opacity="1"><g opacity="1" transform="matrix(1,0,0,1,10.892999649047852,10.892999649047852)"><path fill="rgb(54,53,58)" fill-opacity="1" d=" M0.4050000011920929,10.642999649047852 C-3.7360000610351562,10.642999649047852 -7.4710001945495605,8.145999908447266 -9.057000160217285,4.322000026702881 C-10.642999649047852,0.49399998784065247 -9.762999534606934,-3.9079999923706055 -6.836999893188477,-6.836999893188477 C-3.9070000648498535,-9.767000198364258 0.49799999594688416,-10.642999649047852 4.322000026702881,-9.057000160217285 C8.149999618530273,-7.474999904632568 10.642999649047852,-3.740999937057495 10.642999649047852,0.40400001406669617 C10.642999649047852,6.056000232696533 6.060999870300293,10.642999649047852 0.4050000011920929,10.642999649047852z M0.4050000011920929,-4.702000141143799 C-4.1570000648498535,-4.702000141143799 -6.442999839782715,0.8149999976158142 -3.2160000801086426,4.038000106811523 C0.009999999776482582,7.263999938964844 5.525000095367432,4.978000164031982 5.525000095367432,0.4189999997615814 C5.525000095367432,-2.4089999198913574 3.2330000400543213,-4.702000141143799 0.4050000011920929,-4.702000141143799z"/></g></g><g style="display: block;" transform="matrix(1,0,0,1,249.6999969482422,256)" opacity="1"><g opacity="1" transform="matrix(1,0,0,1,0,0)"><path stroke-linecap="round" stroke-linejoin="round" fill-opacity="0" stroke="rgb(54,53,58)" stroke-opacity="1" stroke-width="5" d=" M-144.25,-23.5 C-144.25,-23.5 -144.25,-118.25 -144.25,-122.47899627685547"/></g></g><g style="display: block;" transform="matrix(1,0,0,1,249.6999969482422,256)" opacity="1"><g opacity="1" transform="matrix(1,0,0,1,0,0)"><path stroke-linecap="round" stroke-linejoin="round" fill-opacity="0" stroke="rgb(54,53,58)" stroke-opacity="1" stroke-width="5" d=" M-144.5,14.562000274658203 C-144.5,14.562000274658203 -144.5,-6.764999866485596 -144.5,-7.7170000076293945"/></g></g></g></svg>