<svg xmlns="http://www.w3.org/2000/svg" viewBox="0 0 512 512" width="512" height="512" style="width: 100%; height: 100%; transform: translate3d(0px, 0px, 0px);" preserveAspectRatio="xMidYMid meet"><defs><clipPath id="__lottie_element_18"><rect width="512" height="512" x="0" y="0"/></clipPath></defs><g clip-path="url(#__lottie_element_18)"><g style="display: block;" transform="matrix(1,0,0,1,282.89697265625,127.25801086425781)" opacity="1"><g opacity="1" transform="matrix(1,0,0,1,49.2239990234375,44.10499954223633)"><path fill="rgb(54,53,58)" fill-opacity="1" d=" M45.959999084472656,43.85499954223633 C44.8849983215332,43.85499954223633 43.92499923706055,43.183998107910156 43.55699920654297,42.172000885009766 C29.010000228881836,2.255000114440918 -4.427000045776367,-27.816999435424805 -45.6609992980957,-38.058998107910156 C-48.9739990234375,-38.882999420166016 -47.731998443603516,-43.85499954223633 -44.41899871826172,-43.027000427246094 C-1.5399999618530273,-32.374000549316406 33.236000061035156,-1.097000002861023 48.361000061035156,40.415000915527344 C48.9739990234375,42.08700180053711 47.73699951171875,43.85499954223633 45.959999084472656,43.85499954223633z"/></g><g opacity="1" transform="matrix(1,0,0,1,87.52899932861328,73.80999755859375)"><path fill="rgb(54,53,58)" fill-opacity="1" d=" M7.65500020980835,14.149999618530273 C7.385000228881836,14.149999618530273 7.114999771118164,14.107000350952148 6.861000061035156,14.020999908447266 C6.861000061035156,14.020999908447266 -15.005000114440918,6.895999908447266 -15.005000114440918,6.895999908447266 C-18.111000061035156,5.767000198364258 -16.586999893188477,1.1119999885559082 -13.416000366210938,2.0339999198913574 C-13.416000366210938,2.0339999198913574 6.013999938964844,8.369999885559082 6.013999938964844,8.369999885559082 C6.013999938964844,8.369999885559082 12.345999717712402,-11.064000129699707 12.345999717712402,-11.064000129699707 C13.482999801635742,-14.149999618530273 18.11199951171875,-12.638999938964844 17.208999633789062,-9.479000091552734 C17.208999633789062,-9.479000091552734 10.083999633789062,12.385000228881836 10.083999633789062,12.385000228881836 C9.741000175476074,13.435999870300293 8.760000228881836,14.149999618530273 7.65500020980835,14.149999618530273z"/></g></g><g style="display: block;" transform="matrix(1,0,0,1,122.875,298.7929992675781)" opacity="1"><g opacity="1" transform="matrix(1,0,0,1,59.595001220703125,44.65999984741211)"><path fill="rgb(54,53,58)" fill-opacity="1" d=" M48.619998931884766,44.4109992980957 C48.45500183105469,44.4109992980957 48.290000915527344,44.39500045776367 48.130001068115234,44.36399841308594 C2.305999994277954,35.40299987792969 -35.516998291015625,3.183000087738037 -51.650001525878906,-40.62900161743164 C-52.145999908447266,-41.96200180053711 -51.4640007019043,-43.4379997253418 -50.12799835205078,-43.92599868774414 C-48.79600143432617,-44.4109992980957 -47.31800079345703,-43.71900177001953 -46.840999603271484,-42.382999420166016 C-31.329999923706055,-0.257999986410141 5.040999889373779,30.722999572753906 49.099998474121094,39.332000732421875 C52.14699935913086,39.917999267578125 51.72100067138672,44.40299987792969 48.619998931884766,44.40700149536133 C48.619998931884766,44.40700149536133 48.619998931884766,44.4109992980957 48.619998931884766,44.4109992980957z"/></g><g opacity="1" transform="matrix(1,0,0,1,17.719999313354492,13.934000015258789)"><path fill="rgb(54,53,58)" fill-opacity="1" d=" M-14.49899959564209,13.64799976348877 C-16.240999221801758,13.64799976348877 -17.47100067138672,11.949999809265137 -16.93199920654297,10.29800033569336 C-16.93199920654297,10.29800033569336 -9.807000160217285,-11.569000244140625 -9.807000160217285,-11.569000244140625 C-9.366000175476074,-12.913000106811523 -7.921000003814697,-13.64799976348877 -6.577000141143799,-13.210000038146973 C-6.577000141143799,-13.210000038146973 15.28600025177002,-6.080999851226807 15.28600025177002,-6.080999851226807 C16.684999465942383,-5.683000087738037 17.47100067138672,-4.205999851226807 17.01799964904785,-2.8269999027252197 C16.569000244140625,-1.444000005722046 15.0649995803833,-0.7179999947547913 13.70199966430664,-1.218000054359436 C13.70199966430664,-1.218000054359436 -5.732999801635742,-7.550000190734863 -5.732999801635742,-7.550000190734863 C-5.732999801635742,-7.550000190734863 -12.0649995803833,11.883000373840332 -12.0649995803833,11.883000373840332 C-12.409000396728516,12.937000274658203 -13.392999649047852,13.64799976348877 -14.49899959564209,13.64799976348877z"/></g></g><g style="display: block;" transform="matrix(1,0,0,1,88.08999633789062,88.29200744628906)" opacity="1"><g opacity="1" transform="matrix(1,0,0,1,87.5,99.54499816894531)"><path fill="rgb(54,53,58)" fill-opacity="1" d=" M25.47599983215332,99.29499816894531 C25.47599983215332,99.29499816894531 -67.79000091552734,99.29499816894531 -67.79000091552734,99.29499816894531 C-69.82499694824219,99.29499816894531 -71.0469970703125,97.03700256347656 -69.93800354003906,95.33399963378906 C-63.33599853515625,85.1780014038086 -59.882999420166016,73.29900360107422 -60.01599884033203,61.189998626708984 C-58.77000045776367,48.53300094604492 -62.32099914550781,36.63100051879883 -71.15699768066406,23.479000091552734 C-81.98500061035156,7.739999771118164 -87.25,-11.154000282287598 -86.12899780273438,-30.224000930786133 C-84.15299987792969,-56.93899917602539 -69.83300018310547,-78.53299713134766 -46.847999572753906,-89.47000122070312 C-38.36800003051758,-93.37699890136719 -29.261999130249023,-95.75199890136719 -19.95400047302246,-96.49400329589844 C10.315999984741211,-99.29499816894531 35.89799880981445,-89.27100372314453 52.112998962402344,-68.27899932861328 C65.38600158691406,-51.6150016784668 70.95999908447266,-36.5099983215332 69.1240005493164,-22.131000518798828 C68.41699981689453,-16.16200065612793 69.9489974975586,-10.142000198364258 73.41699981689453,-5.236000061035156 C86.6240005493164,14.036999702453613 86.96800231933594,18.315000534057617 87.0780029296875,19.72100067138672 C87.25,21.635000228881836 86.59300231933594,23.533000946044922 85.27300262451172,24.93199920654297 C82.69499969482422,27.729000091552734 77.75700378417969,28.78700065612793 74.26499938964844,29.18600082397461 C75.13600158691406,31.15399932861328 75.66400146484375,33.25600051879883 75.8239974975586,35.4010009765625 C75.70700073242188,37.5369987487793 74.42900085449219,39.439998626708984 72.49600219726562,40.36199951171875 C72.68699645996094,40.72100067138672 72.84300231933594,41.099998474121094 72.96800231933594,41.48699951171875 C73.8740005493164,43.97100067138672 73.09300231933594,46.7599983215332 71.03099822998047,48.4119987487793 C70.25700378417969,49.018001556396484 69.58499908447266,49.74399948120117 69.05000305175781,50.569000244140625 C68.8740005493164,50.82600021362305 68.8740005493164,51.16999816894531 69.05000305175781,51.428001403808594 C70.87799835205078,54.24399948120117 72.55799865722656,59.7869987487793 70.18699645996094,70.06099700927734 C69.51899719238281,73.04499816894531 67.59700012207031,75.59600067138672 64.91400146484375,77.06900024414062 C56.14799880981445,82.19000244140625 38.76499938964844,78.53299713134766 32.04199981689453,76.83799743652344 C32.04199981689453,76.83799743652344 27.988000869750977,97.24400329589844 27.988000869750977,97.24400329589844 C27.742000579833984,98.44000244140625 26.69099998474121,99.29499816894531 25.47599983215332,99.29499816894531z M-63.25400161743164,94.17400360107422 C-63.25400161743164,94.17400360107422 23.374000549316406,94.17400360107422 23.374000549316406,94.17400360107422 C23.374000549316406,94.17400360107422 27.53499984741211,73.1510009765625 27.53499984741211,73.1510009765625 C27.674999237060547,72.44400024414062 28.104999542236328,71.83000183105469 28.722000122070312,71.45899963378906 C29.339000701904297,71.09200286865234 30.082000732421875,70.99800109863281 30.768999099731445,71.20099639892578 C37.04600143432617,73.06500244140625 54.952999114990234,76.9469985961914 62.3120002746582,72.6510009765625 C63.76900100708008,71.88899993896484 64.81600189208984,70.52200317382812 65.17500305175781,68.91600036621094 C67.3280029296875,59.604000091552734 65.5739974975586,55.5260009765625 64.72200012207031,54.20500183105469 C63.457000732421875,52.2400016784668 63.47200012207031,49.71699905395508 64.75700378417969,47.768001556396484 C65.60900115966797,46.4630012512207 66.67500305175781,45.31100082397461 67.90599822998047,44.358001708984375 C68.23799896240234,44.099998474121094 68.2300033569336,43.5099983215332 68.08499908447266,43.07600021362305 C67.94499969482422,42.643001556396484 67.6240005493164,42.18199920654297 67.24600219726562,42.17399978637695 C64.20700073242188,42.0880012512207 63.82400131225586,37.72100067138672 66.80000305175781,37.108001708984375 C68.25299835205078,36.8849983215332 69.61299896240234,36.25199890136719 70.72200012207031,35.2869987487793 C70.2300033569336,32.75600051879883 69.35099792480469,30.319000244140625 68.12100219726562,28.05299949645996 C67.24600219726562,26.350000381469727 68.48400115966797,24.326000213623047 70.39399719238281,24.32200050354004 C73.92900085449219,24.32200050354004 79.70999908447266,23.43199920654297 81.50299835205078,21.479000091552734 C81.8550033569336,21.135000228881836 82.03099822998047,20.64699935913086 81.97200012207031,20.158000946044922 C81.89399719238281,19.131000518798828 80.7300033569336,14.526000022888184 69.1989974975586,-2.313999891281128 C65.01100158691406,-8.255999565124512 63.17499923706055,-15.541000366210938 64.04199981689453,-22.760000228881836 C65.69100189208984,-35.69300079345703 60.47200012207031,-49.54100036621094 48.084999084472656,-65.09600067138672 C32.957000732421875,-84.70500183105469 8.95300006866455,-94.01300048828125 -19.481000900268555,-91.39199829101562 C-28.187999725341797,-90.70899963378906 -36.70800018310547,-88.48999786376953 -44.64500045776367,-84.84600067138672 C-65.9260025024414,-74.72000122070312 -79.18399810791016,-54.67399978637695 -81.02799987792969,-29.84600067138672 C-82.06300354003906,-11.920000076293945 -77.09400177001953,5.8379998207092285 -66.90699768066406,20.62299919128418 C-57.36399841308594,34.819000244140625 -53.55099868774414,47.79100036621094 -54.9109992980957,61.444000244140625 C-54.81700134277344,72.89299774169922 -57.69200134277344,84.16600036621094 -63.25400161743164,94.17400360107422z"/></g></g><g style="display: block;" transform="matrix(1,0,0,0.9013423919677734,127.14398956298828,162.67042541503906)" opacity="1"><g opacity="1" transform="matrix(1,0,0,1,8.187999725341797,19.85700035095215)"><path fill="rgb(54,53,58)" fill-opacity="1" d=" M5.375999927520752,19.60700035095215 C5.375999927520752,19.60700035095215 -5.374000072479248,19.60700035095215 -5.374000072479248,19.60700035095215 C-6.788000106811523,19.60700035095215 -7.938000202178955,18.458999633789062 -7.938000202178955,17.045000076293945 C-7.938000202178955,17.045000076293945 -7.938000202178955,-17.048999786376953 -7.938000202178955,-17.048999786376953 C-7.938000202178955,-18.46299934387207 -6.788000106811523,-19.60700035095215 -5.374000072479248,-19.60700035095215 C-5.374000072479248,-19.60700035095215 5.375999927520752,-19.60700035095215 5.375999927520752,-19.60700035095215 C6.789999961853027,-19.60700035095215 7.938000202178955,-18.46299934387207 7.938000202178955,-17.048999786376953 C7.938000202178955,-17.048999786376953 7.938000202178955,17.045000076293945 7.938000202178955,17.045000076293945 C7.938000202178955,18.458999633789062 6.789999961853027,19.60700035095215 5.375999927520752,19.60700035095215z M-2.815999984741211,14.486000061035156 C-2.815999984741211,14.486000061035156 2.815999984741211,14.486000061035156 2.815999984741211,14.486000061035156 C2.815999984741211,14.486000061035156 2.815999984741211,-14.486000061035156 2.815999984741211,-14.486000061035156 C2.815999984741211,-14.486000061035156 -2.815999984741211,-14.486000061035156 -2.815999984741211,-14.486000061035156 C-2.815999984741211,-14.486000061035156 -2.815999984741211,14.486000061035156 -2.815999984741211,14.486000061035156z"/></g></g><g style="display: block;" transform="matrix(1,0,0,1,150.0469970703125,137.1479949951172)" opacity="1"><g opacity="1" transform="matrix(1,0,0,1,8.187999725341797,30.67099952697754)"><path fill="rgb(54,53,58)" fill-opacity="1" d=" M5.374000072479248,30.42099952697754 C5.374000072479248,30.42099952697754 -5.375999927520752,30.42099952697754 -5.375999927520752,30.42099952697754 C-6.789999961853027,30.42099952697754 -7.938000202178955,29.273000717163086 -7.938000202178955,27.858999252319336 C-7.938000202178955,27.858999252319336 -7.938000202178955,-27.86400032043457 -7.938000202178955,-27.86400032043457 C-7.938000202178955,-29.277999877929688 -6.789999961853027,-30.42099952697754 -5.375999927520752,-30.42099952697754 C-5.375999927520752,-30.42099952697754 5.374000072479248,-30.42099952697754 5.374000072479248,-30.42099952697754 C6.788000106811523,-30.42099952697754 7.938000202178955,-29.277999877929688 7.938000202178955,-27.86400032043457 C7.938000202178955,-27.86400032043457 7.938000202178955,27.858999252319336 7.938000202178955,27.858999252319336 C7.938000202178955,29.273000717163086 6.788000106811523,30.42099952697754 5.374000072479248,30.42099952697754z M-2.815999984741211,25.299999237060547 C-2.815999984741211,25.299999237060547 2.815999984741211,25.299999237060547 2.815999984741211,25.299999237060547 C2.815999984741211,25.299999237060547 2.815999984741211,-25.30500030517578 2.815999984741211,-25.30500030517578 C2.815999984741211,-25.30500030517578 -2.815999984741211,-25.30500030517578 -2.815999984741211,-25.30500030517578 C-2.815999984741211,-25.30500030517578 -2.815999984741211,25.299999237060547 -2.815999984741211,25.299999237060547z"/></g></g><g style="display: block;" transform="matrix(1,0,0,1,172.94598388671875,149.15199279785156)" opacity="1"><g opacity="1" transform="matrix(1,0,0,1,8.1850004196167,24.66900062561035)"><path fill="rgb(54,53,58)" fill-opacity="1" d=" M5.376999855041504,24.41900062561035 C5.376999855041504,24.41900062561035 -5.376999855041504,24.41900062561035 -5.376999855041504,24.41900062561035 C-6.790999889373779,24.41900062561035 -7.935999870300293,23.270999908447266 -7.935999870300293,21.85700035095215 C-7.935999870300293,21.85700035095215 -7.935999870300293,-21.857999801635742 -7.935999870300293,-21.857999801635742 C-7.935999870300293,-23.27199935913086 -6.790999889373779,-24.41900062561035 -5.376999855041504,-24.41900062561035 C-5.376999855041504,-24.41900062561035 5.376999855041504,-24.41900062561035 5.376999855041504,-24.41900062561035 C6.791999816894531,-24.41900062561035 7.935999870300293,-23.27199935913086 7.935999870300293,-21.857999801635742 C7.935999870300293,-21.857999801635742 7.935999870300293,21.85700035095215 7.935999870300293,21.85700035095215 C7.935999870300293,23.270999908447266 6.791999816894531,24.41900062561035 5.376999855041504,24.41900062561035z M-2.815000057220459,19.29800033569336 C-2.815000057220459,19.29800033569336 2.813999891281128,19.29800033569336 2.813999891281128,19.29800033569336 C2.813999891281128,19.29800033569336 2.813999891281128,-19.29800033569336 2.813999891281128,-19.29800033569336 C2.813999891281128,-19.29800033569336 -2.815000057220459,-19.29800033569336 -2.815000057220459,-19.29800033569336 C-2.815000057220459,-19.29800033569336 -2.815000057220459,19.29800033569336 -2.815000057220459,19.29800033569336z"/></g></g><g style="display: block;" transform="matrix(1,0,0,1,195.83999633789062,137.1479949951172)" opacity="1"><g opacity="1" transform="matrix(1,0,0,1,8.187000274658203,30.67099952697754)"><path fill="rgb(54,53,58)" fill-opacity="1" d=" M5.375,30.42099952697754 C5.375,30.42099952697754 -5.375,30.42099952697754 -5.375,30.42099952697754 C-6.789000034332275,30.42099952697754 -7.936999797821045,29.273000717163086 -7.936999797821045,27.858999252319336 C-7.936999797821045,27.858999252319336 -7.936999797821045,-27.86400032043457 -7.936999797821045,-27.86400032043457 C-7.936999797821045,-29.277999877929688 -6.789000034332275,-30.42099952697754 -5.375,-30.42099952697754 C-5.375,-30.42099952697754 5.375,-30.42099952697754 5.375,-30.42099952697754 C6.789000034332275,-30.42099952697754 7.936999797821045,-29.277999877929688 7.936999797821045,-27.86400032043457 C7.936999797821045,-27.86400032043457 7.936999797821045,27.858999252319336 7.936999797821045,27.858999252319336 C7.936999797821045,29.273000717163086 6.789000034332275,30.42099952697754 5.375,30.42099952697754z M-2.815999984741211,25.299999237060547 C-2.815999984741211,25.299999237060547 2.815999984741211,25.299999237060547 2.815999984741211,25.299999237060547 C2.815999984741211,25.299999237060547 2.815999984741211,-25.30500030517578 2.815999984741211,-25.30500030517578 C2.815999984741211,-25.30500030517578 -2.815999984741211,-25.30500030517578 -2.815999984741211,-25.30500030517578 C-2.815999984741211,-25.30500030517578 -2.815999984741211,25.299999237060547 -2.815999984741211,25.299999237060547z"/></g></g><g style="display: block;" transform="matrix(1,0,0,1,119.74999237060547,192.8699951171875)" opacity="1"><g opacity="1" transform="matrix(1,0,0,1,49.94300079345703,2.811000108718872)"><path fill="rgb(54,53,58)" fill-opacity="1" d=" M46.27899932861328,2.559999942779541 C46.27899932861328,2.559999942779541 -46.27899932861328,2.559999942779541 -46.27899932861328,2.559999942779541 C-49.69300079345703,2.559999942779541 -49.69300079345703,-2.559999942779541 -46.27899932861328,-2.559999942779541 C-46.27899932861328,-2.559999942779541 46.27899932861328,-2.559999942779541 46.27899932861328,-2.559999942779541 C49.69300079345703,-2.559999942779541 49.69300079345703,2.559999942779541 46.27899932861328,2.559999942779541z"/></g></g><g style="display: block;" transform="matrix(0.9991166591644287,0.04202302545309067,-0.04202302545309067,0.9991166591644287,252.55162048339844,259.4222106933594)" opacity="1"><g opacity="1" transform="matrix(1,0,0,1,0,0)"><path stroke-linecap="round" stroke-linejoin="round" fill-opacity="0" stroke="rgb(54,53,58)" stroke-opacity="1" stroke-width="4" d=" M-151.61300659179688,-106.53399658203125 C-150.218994140625,-113.61399841308594 -145.302001953125,-130.50999450683594 -129.125,-140.875"/></g></g><g style="display: block;" transform="matrix(0.9990524053573608,0.0435229167342186,-0.0435229167342186,0.9990524053573608,286.2520751953125,252.77932739257812)" opacity="1"><g opacity="1" transform="matrix(1,0,0,1,0,0)"><path stroke-linecap="round" stroke-linejoin="round" fill-opacity="0" stroke="rgb(54,53,58)" stroke-opacity="1" stroke-width="4" d=" M-150.8419952392578,-139.08599853515625 C-148.2790069580078,-140.11300659179688 -142.10000610351562,-142.1959991455078 -132.68800354003906,-142.93800354003906"/></g></g><g style="display: block;" transform="matrix(1,0,0,1,248.22201538085938,224.65200805664062)" opacity="1"><g opacity="1" transform="matrix(1,0,0,1,87.50399780273438,99.53900146484375)"><path fill="rgb(54,53,58)" fill-opacity="1" d=" M67.77799987792969,99.28099822998047 C67.77799987792969,99.28099822998047 -25.488000869750977,99.28099822998047 -25.488000869750977,99.28099822998047 C-26.707000732421875,99.28099822998047 -27.761999130249023,98.41799926757812 -28,97.21800231933594 C-28,97.21800231933594 -32.03499984741211,76.8239974975586 -32.03499984741211,76.8239974975586 C-38.75400161743164,78.51899719238281 -56.13600158691406,82.16799926757812 -64.9020004272461,77.05000305175781 C-67.58599853515625,75.58200073242188 -69.50800323486328,73.0270004272461 -70.17900085449219,70.04299926757812 C-72.5510025024414,59.777000427246094 -70.86699676513672,54.242000579833984 -69.03900146484375,51.40599822998047 C-68.87100219726562,51.152000427246094 -68.87100219726562,50.82400131225586 -69.03900146484375,50.56999969482422 C-69.5780029296875,49.73400115966797 -70.25,49 -71.03500366210938,48.38999938964844 C-73.08999633789062,46.737998962402344 -73.86699676513672,43.957000732421875 -72.96499633789062,41.47999954223633 C-72.83999633789062,41.09000015258789 -72.68299865722656,40.71500015258789 -72.49199676513672,40.35100173950195 C-74.42900085449219,39.43299865722656 -75.7030029296875,37.527000427246094 -75.81999969482422,35.38999938964844 C-75.66000366210938,33.24599838256836 -75.13300323486328,31.143999099731445 -74.26200103759766,29.176000595092773 C-77.75800323486328,28.777000427246094 -82.69100189208984,27.722000122070312 -85.26899719238281,24.922000885009766 C-86.59400177001953,23.523000717163086 -87.25399780273438,21.621000289916992 -87.0739974975586,19.702999114990234 C-86.96499633789062,18.304000854492188 -86.62100219726562,14.02299976348877 -73.4219970703125,-5.238999843597412 C-69.9489974975586,-10.145000457763672 -68.41799926757812,-16.163999557495117 -69.125,-22.132999420166016 C-70.96099853515625,-36.51599884033203 -65.38600158691406,-51.617000579833984 -52.09000015258789,-68.31300354003906 C-35.89799880981445,-89.27799987792969 -10.303999900817871,-99.28900146484375 19.952999114990234,-96.49600219726562 C29.261999130249023,-95.75800323486328 38.367000579833984,-93.37899780273438 46.85200119018555,-89.4729995727539 C69.83200073242188,-78.53500366210938 84.15299987792969,-56.94200134277344 86.13300323486328,-30.231000900268555 C87.25399780273438,-11.15999984741211 81.98500061035156,7.73799991607666 71.15599822998047,23.472000122070312 C62.31700134277344,36.62900161743164 58.77399826049805,48.527000427246094 60.007999420166016,60.92900085449219 C59.847999572753906,73.125 63.30500030517578,85.09300231933594 69.93800354003906,95.33200073242188 C71.0469970703125,97.03500366210938 69.8239974975586,99.28900146484375 67.79299926757812,99.28900146484375 C67.79299926757812,99.28900146484375 67.77799987792969,99.28099822998047 67.77799987792969,99.28099822998047z M-23.38599967956543,94.16000366210938 C-23.38599967956543,94.16000366210938 63.242000579833984,94.16000366210938 63.242000579833984,94.16000366210938 C57.65599822998047,84.06999969482422 54.77799987792969,72.71099853515625 54.887001037597656,61.17599868774414 C53.53900146484375,47.777000427246094 57.35200119018555,34.80799865722656 66.8949966430664,20.608999252319336 C77.08200073242188,5.823999881744385 82.0510025024414,-11.937999725341797 81.01599884033203,-29.86400032043457 C79.1719970703125,-54.69599914550781 65.91000366210938,-74.73500061035156 44.637001037597656,-84.86000061035156 C36.69599914550781,-88.50399780273438 28.176000595092773,-90.7229995727539 19.46500015258789,-91.40699768066406 C-8.984000205993652,-94.03500366210938 -32.96900177001953,-84.71499633789062 -48.07400131225586,-65.16000366210938 C-60.487998962402344,-49.57400131225586 -65.70700073242188,-35.722999572753906 -64.05799865722656,-22.788999557495117 C-63.191001892089844,-15.571000099182129 -65.0270004272461,-8.28499984741211 -69.21900177001953,-2.3399999141693115 C-80.73799896240234,14.479999542236328 -81.90599822998047,19.097000122070312 -81.98799896240234,20.113000869750977 C-82.0469970703125,20.604999542236328 -81.87100219726562,21.10099983215332 -81.51499938964844,21.448999404907227 C-79.53900146484375,23.593000411987305 -73.17900085449219,24.288999557495117 -70.41400146484375,24.288999557495117 C-68.5,24.292999267578125 -67.26499938964844,26.312000274658203 -68.13300323486328,28.014999389648438 C-69.38999938964844,30.31599998474121 -70.26200103759766,32.80400085449219 -70.71499633789062,35.38600158691406 C-69.56600189208984,36.25 -68.2300033569336,36.827999114990234 -66.81999969482422,37.07400131225586 C-63.84400177001953,37.68299865722656 -64.22200012207031,42.047000885009766 -67.25800323486328,42.13999938964844 C-67.63999938964844,42.13999938964844 -67.96099853515625,42.617000579833984 -68.10099792480469,43.047000885009766 C-68.24199676513672,43.47200012207031 -68.25399780273438,44.08599853515625 -67.92900085449219,44.32400131225586 C-66.68699645996094,45.28499984741211 -65.61699676513672,46.44499969482422 -64.76200103759766,47.76100158691406 C-63.492000579833984,49.702999114990234 -63.47999954223633,52.207000732421875 -64.7300033569336,54.15999984741211 C-65.58999633789062,55.492000579833984 -67.33999633789062,59.57400131225586 -65.19100189208984,68.87899780273438 C-64.83200073242188,70.48799896240234 -63.78099822998047,71.8550033569336 -62.32400131225586,72.61699676513672 C-54.952999114990234,76.91400146484375 -37.05799865722656,73.03099822998047 -30.78499984741211,71.1719970703125 C-29.34000015258789,70.74199676513672 -27.84000015258789,71.64800262451172 -27.547000885009766,73.12899780273438 C-27.547000885009766,73.12899780273438 -23.38599967956543,94.16000366210938 -23.38599967956543,94.16000366210938z"/></g></g><g style="display: block;" transform="matrix(0.9013423919677734,0,0,0.9013423919677734,301.0351867675781,267.0840148925781)" opacity="1"><g opacity="1" transform="matrix(1,0,0,1,37.33000183105469,45.35900115966797)"><path fill="rgb(54,53,58)" fill-opacity="1" d=" M9.704999923706055,45.09400177001953 C-14.032999992370605,45.09400177001953 -33.729000091552734,26.746000289916992 -35.40399932861328,3.069999933242798 C-37.08000183105469,-20.604999542236328 -20.166000366210938,-41.547000885009766 3.3299999237060547,-44.89099884033203 C4.888999938964844,-45.10900115966797 6.275000095367432,-43.887001037597656 6.248000144958496,-42.3120002746582 C6.248000144958496,-42.3120002746582 5.5289998054504395,-0.9959999918937683 5.5289998054504395,-0.9959999918937683 C5.5329999923706055,-0.578000009059906 5.611000061035156,-0.164000004529953 5.763999938964844,0.22699999809265137 C5.85699987411499,0.3709999918937683 5.932000160217285,0.5230000019073486 5.986000061035156,0.6840000152587891 C6.013999938964844,0.7310000061988831 6.0370001792907715,0.7770000100135803 6.059999942779541,0.828000009059906 C6.059999942779541,0.828000009059906 6.079999923706055,0.859000027179718 6.079999923706055,0.859000027179718 C6.123000144958496,0.9020000100135803 6.1620001792907715,0.9490000009536743 6.197000026702881,0.9959999918937683 C6.236000061035156,1.0390000343322754 6.4710001945495605,1.3009999990463257 6.5289998054504395,1.378999948501587 C6.5289998054504395,1.378999948501587 6.709000110626221,1.562999963760376 6.709000110626221,1.562999963760376 C6.709000110626221,1.562999963760376 36.020999908447266,33.077999114990234 36.020999908447266,33.077999114990234 C37.08000183105469,34.21500015258789 36.888999938964844,36.02299880981445 35.61899948120117,36.917999267578125 C28.02899932861328,42.25 18.97800064086914,45.10900115966797 9.704999923706055,45.09400177001953z M1.0720000267028809,-39.28900146484375 C-18.920000076293945,-34.89099884033203 -32.388999938964844,-16.136999130249023 -30.173999786376953,4.215000152587891 C-27.954999923706055,24.56599998474121 -10.767999649047852,39.98099899291992 9.704999923706055,39.972999572753906 C16.920000076293945,39.987998962402344 24.006000518798828,38.042999267578125 30.204999923706055,34.34000015258789 C30.204999923706055,34.34000015258789 2.9670000076293945,5.059000015258789 2.9670000076293945,5.059000015258789 C2.8459999561309814,4.940999984741211 2.7320001125335693,4.820000171661377 2.622999906539917,4.690999984741211 C2.5139999389648438,4.573999881744385 2.4079999923706055,4.456999778747559 2.313999891281128,4.340000152587891 C2.252000093460083,4.2729997634887695 2.193000078201294,4.206999778747559 2.1419999599456787,4.13700008392334 C1.9819999933242798,3.940999984741211 1.8380000591278076,3.7339999675750732 1.7050000429153442,3.5199999809265137 C1.6660000085830688,3.4609999656677246 1.6349999904632568,3.3949999809265137 1.5989999771118164,3.3320000171661377 C1.49399995803833,3.1679999828338623 1.399999976158142,2.996000051498413 1.3179999589920044,2.819999933242798 C1.1699999570846558,2.559000015258789 1.0529999732971191,2.2850000858306885 0.9549999833106995,2.003999948501587 C0.5879999995231628,1.034999966621399 0.4000000059604645,0.00800000037997961 0.40799999237060547,-1.0230000019073486 C0.40799999237060547,-1.0230000019073486 1.0720000267028809,-39.28900146484375 1.0720000267028809,-39.28900146484375z"/></g></g><g style="display: block;" transform="matrix(1,0,0,1,345.97601318359375,262.67901611328125)" opacity="1"><g opacity="1" transform="matrix(1,0,0,1,16.292999267578125,18.2189998626709)"><path fill="rgb(54,53,58)" fill-opacity="1" d=" M-13.456999778747559,17.9689998626709 C-14.890000343322754,17.9689998626709 -16.042999267578125,16.797000885009766 -16.018999099731445,15.366999626159668 C-16.018999099731445,15.366999626159668 -15.531000137329102,-15.378999710083008 -15.531000137329102,-15.378999710083008 C-15.519000053405762,-16.106000900268555 -15.199000358581543,-16.792999267578125 -14.64799976348877,-17.270000457763672 C-14.10099983215332,-17.75 -13.375,-17.9689998626709 -12.656000137329102,-17.875 C-2.0230000019073486,-16.527999877929688 7.7779998779296875,-11.430000305175781 14.984999656677246,-3.496000051498413 C16.042999267578125,-2.3239998817443848 15.800999641418457,-0.48100000619888306 14.472999572753906,0.375 C14.472999572753906,0.375 -12.074000358581543,17.554000854492188 -12.074000358581543,17.554000854492188 C-12.484000205993652,17.81999969482422 -12.968999862670898,17.96500015258789 -13.456999778747559,17.9689998626709z M-10.456999778747559,-12.336000442504883 C-10.456999778747559,-12.336000442504883 -10.819999694824219,10.656000137329102 -10.819999694824219,10.656000137329102 C-10.819999694824219,10.656000137329102 9.062999725341797,-2.2149999141693115 9.062999725341797,-2.2149999141693115 C3.632999897003174,-7.3520002365112305 -3.132999897003174,-10.859999656677246 -10.456999778747559,-12.336000442504883z"/></g></g><g style="display: block;" transform="matrix(1,0,0,1,348.5190124511719,285.4020080566406)" opacity="1"><g opacity="1" transform="matrix(1,0,0,1,24.93400001525879,20.19300079345703)"><path fill="rgb(54,53,58)" fill-opacity="1" d=" M-8.48799991607666,19.30699920654297 C-10.404999732971191,19.30299949645996 -11.640999794006348,17.26799964904785 -10.758000373840332,15.564000129699707 C-10.758000373840332,15.564000129699707 6.445000171661377,-17.56100082397461 6.445000171661377,-17.56100082397461 C7.093999862670898,-18.81399917602539 8.640000343322754,-19.30699920654297 9.89799976348877,-18.65399932861328 C11.152000427246094,-18.00200080871582 11.640000343322754,-16.454999923706055 10.991999626159668,-15.201000213623047 C10.991999626159668,-15.201000213623047 -6.215000152587891,17.92799949645996 -6.215000152587891,17.92799949645996 C-6.6529998779296875,18.774999618530273 -7.53000020980835,19.30699920654297 -8.48799991607666,19.30699920654297z"/></g><g opacity="1" transform="matrix(1,0,0,1,30.742000579833984,29.62700080871582)"><path fill="rgb(54,53,58)" fill-opacity="1" d=" M-7.492000102996826,17.14299964904785 C-9.40999984741211,17.14299964904785 -10.645000457763672,15.107999801635742 -9.76200008392334,13.404999732971191 C-9.76200008392334,13.404999732971191 4.5229997634887695,-14.116000175476074 4.5229997634887695,-14.116000175476074 C6.0970001220703125,-17.14699935913086 10.644000053405762,-14.788000106811523 9.069999694824219,-11.755999565124512 C9.069999694824219,-11.755999565124512 -5.215000152587891,15.763999938964844 -5.215000152587891,15.763999938964844 C-5.6570000648498535,16.61199951171875 -6.534999847412109,17.14699935913086 -7.492000102996826,17.14299964904785z"/></g><g opacity="1" transform="matrix(1,0,0,1,14.795000076293945,20.242000579833984)"><path fill="rgb(54,53,58)" fill-opacity="1" d=" M-4.751999855041504,11.859000205993652 C-6.670000076293945,11.854999542236328 -7.9039998054504395,9.821000099182129 -7.017000198364258,8.118000030517578 C-7.017000198364258,8.118000030517578 1.7869999408721924,-8.82699966430664 1.7869999408721924,-8.82699966430664 C3.3610000610351562,-11.859000205993652 7.9039998054504395,-9.494999885559082 6.334000110626221,-6.4679999351501465 C6.334000110626221,-6.4679999351501465 -2.4739999771118164,10.479999542236328 -2.4739999771118164,10.479999542236328 C-2.9159998893737793,11.32800006866455 -3.7950000762939453,11.859000205993652 -4.751999855041504,11.859000205993652z"/></g><g opacity="1" transform="matrix(1,0,0,1,22,26.198999404907227)"><path fill="rgb(54,53,58)" fill-opacity="1" d=" M6.195000171661377,25.94499969482422 C5.485000133514404,25.94499969482422 4.804999828338623,25.652000427246094 4.321000099182129,25.128999710083008 C4.321000099182129,25.128999710083008 -20.663999557495117,-1.75 -20.663999557495117,-1.75 C-21.75,-2.9179999828338623 -21.514999389648438,-4.781000137329102 -20.179000854492188,-5.644999980926514 C-20.179000854492188,-5.644999980926514 9.980999946594238,-25.125 9.980999946594238,-25.125 C11.258000373840332,-25.948999404907227 12.968999862670898,-25.483999252319336 13.652999877929688,-24.125 C21.75,-8.109999656677246 19.5939998626709,11.182999610900879 8.168000221252441,25.023000717163086 C7.695000171661377,25.59000015258789 7.004000186920166,25.93000030517578 6.269999980926514,25.948999404907227 C6.269999980926514,25.948999404907227 6.195000171661377,25.94499969482422 6.195000171661377,25.94499969482422z M-14.836000442504883,-3 C-14.836000442504883,-3 6.01200008392334,19.426000595092773 6.01200008392334,19.426000595092773 C14.01200008392334,8.140000343322754 15.625,-6.4730000495910645 10.277999877929688,-19.231000900268555 C10.277999877929688,-19.231000900268555 -14.836000442504883,-3 -14.836000442504883,-3z"/></g></g><g style="display: block;" transform="matrix(0.9994070529937744,-0.034431204199790955,0.034431204199790955,0.9994070529937744,534.1241455078125,385.25579833984375)" opacity="1"><g opacity="1" transform="matrix(1,0,0,1,0,0)"><path stroke-linecap="round" stroke-linejoin="round" fill-opacity="0" stroke="rgb(54,53,58)" stroke-opacity="1" stroke-width="4" d=" M-123.8759994506836,-106.41899871826172 C-125.02200317382812,-114.04100036621094 -129.5019989013672,-132.78199768066406 -146.25,-139.875"/></g></g><g style="display: block;" transform="matrix(0.9994070529937744,-0.034431204199790955,0.034431204199790955,0.9994070529937744,533.4148559570312,386.9319152832031)" opacity="1"><g opacity="1" transform="matrix(1,0,0,1,0,0)"><path stroke-linecap="round" stroke-linejoin="round" fill-opacity="0" stroke="rgb(54,53,58)" stroke-opacity="1" stroke-width="4" d=" M-159.77999877929688,-147.41600036621094 C-162.10400390625,-148.406005859375 -167.7969970703125,-150.3769989013672 -175.625,-150"/></g></g></g></svg>