<svg width="31" height="30" viewBox="0 0 31 30" fill="none" xmlns="http://www.w3.org/2000/svg">
<rect x="0.322266" width="30" height="30" rx="15" fill="#FF8DA0" fill-opacity="0.15"/>
<path d="M21.1549 9.16675L9.48828 20.8334" stroke="#FA73A3" stroke-width="2" stroke-linecap="round" stroke-linejoin="round"/>
<path d="M19.9056 21.6667C21.0562 21.6667 21.9889 20.7339 21.9889 19.5833C21.9889 18.4327 21.0562 17.5 19.9056 17.5C18.755 17.5 17.8223 18.4327 17.8223 19.5833C17.8223 20.7339 18.755 21.6667 19.9056 21.6667Z" stroke="#FA73A3" stroke-width="2" stroke-linecap="round" stroke-linejoin="round"/>
<path d="M10.7396 12.4999C11.8902 12.4999 12.8229 11.5672 12.8229 10.4166C12.8229 9.26599 11.8902 8.33325 10.7396 8.33325C9.58899 8.33325 8.65625 9.26599 8.65625 10.4166C8.65625 11.5672 9.58899 12.4999 10.7396 12.4999Z" stroke="#FA73A3" stroke-width="2" stroke-linecap="round" stroke-linejoin="round"/>
</svg>
