<svg width="759" height="106" viewBox="0 0 759 106" fill="none" xmlns="http://www.w3.org/2000/svg">
<path d="M308.989 102.82H271.569C270.239 102.82 268.909 102.82 267.569 102.71C267.179 102.71 266.809 102.27 266.429 102.03C266.809 101.61 267.119 100.96 267.589 100.8C268.839 100.38 270.159 100.17 271.449 99.87C279.059 98.14 281.919 93.65 279.299 86.4C276.609 78.95 273.299 71.73 270.299 64.4C270.094 63.6828 269.648 63.0583 269.036 62.632C268.423 62.2057 267.683 62.0037 266.939 62.06C257.289 62.06 247.639 62.06 237.989 62.06C236.519 62.06 235.489 62.44 234.909 63.97C232.309 70.97 229.249 77.7401 227.059 84.8301C224.419 93.3101 227.059 97.71 235.409 100.29C236.216 100.475 237.011 100.709 237.789 100.99C238.119 101.14 238.319 101.69 238.429 102.1C238.429 102.23 238.009 102.62 237.749 102.65C236.928 102.77 236.099 102.83 235.269 102.83H206.779C205.949 102.865 205.117 102.807 204.299 102.66C203.969 102.59 203.689 102.03 203.539 101.66C203.539 101.52 203.889 101.19 204.119 100.99C204.267 100.91 204.431 100.865 204.599 100.86C212.899 99.3501 217.389 93.39 220.599 86.47C226.099 74.47 231.199 62.23 236.309 50.03C242.449 35.38 248.399 20.66 254.509 6.03004C255.099 4.61004 255.239 2.74004 257.379 2.34004C260.119 1.82004 261.299 2.34003 262.649 5.43003C270.176 22.5434 277.682 39.66 285.169 56.78C289.422 66.4734 293.696 76.1567 297.989 85.8301C298.929 87.9401 300.099 89.95 301.179 92C305.409 100 315.179 102.28 323.239 99.59C328.239 97.91 330.459 93.88 331.089 89.03C331.654 84.5985 331.954 80.1373 331.989 75.6701C332.102 61.7501 332.102 47.83 331.989 33.91C331.989 28.46 331.649 22.99 331.179 17.56C330.469 9.23004 326.419 5.85006 320.179 5.08006C320.012 5.0809 319.846 5.03961 319.699 4.96003C318.459 4.08003 316.199 5.41006 315.619 3.11006C316.971 2.72023 318.358 2.45907 319.759 2.33006C327.249 2.25006 334.759 2.38004 342.229 2.25004C343.448 2.15046 344.671 2.36364 345.784 2.8694C346.897 3.37515 347.863 4.15673 348.589 5.14006C362.389 21.9301 376.339 38.6001 390.229 55.3001C395.639 61.8101 401.039 68.3001 406.479 74.8001C407.059 75.3455 407.708 75.8127 408.409 76.19C408.665 75.4885 408.843 74.7608 408.939 74.0201C408.939 57.9501 409.009 41.8701 408.939 25.8001C408.862 22.4906 408.565 19.1899 408.049 15.9201C407.159 9.53005 404.049 6.60003 397.559 4.99003C395.899 4.57003 393.439 5.57004 392.559 3.06004C394.271 2.69931 396.005 2.45543 397.749 2.33006C406.399 2.25006 415.049 2.33006 423.699 2.33006C425.029 2.33006 426.369 2.33004 427.699 2.47004C427.919 2.50661 428.126 2.59823 428.301 2.73637C428.476 2.87451 428.613 3.05467 428.699 3.26005C428.673 3.47256 428.594 3.67523 428.471 3.8498C428.347 4.02438 428.181 4.16538 427.989 4.26005C427.037 4.55387 426.059 4.75808 425.069 4.87004C417.259 5.77004 413.859 10.06 413.069 18.81C412.769 22.27 412.759 25.76 412.759 29.24C412.759 50.9534 412.759 72.6601 412.759 94.3601C412.83 95.6924 412.83 97.0277 412.759 98.3601C412.579 99.8801 413.639 101.95 411.519 102.73C409.399 103.51 407.829 102.1 406.469 100.49C396.942 89.2434 387.449 78.04 377.989 66.88C365.156 51.66 352.319 36.4434 339.479 21.2301C339.187 20.8305 338.852 20.4649 338.479 20.1401C337.729 19.5901 336.919 19.14 336.139 18.62C335.913 19.4005 335.762 20.2008 335.689 21.0101C335.759 42.8901 335.749 64.76 336.019 86.63C336.119 94.9 339.549 98.63 347.589 100.35C348.729 100.59 349.889 100.71 351.019 100.96C351.279 100.96 351.679 101.45 351.629 101.57C351.489 101.97 351.199 102.57 350.909 102.57C349.58 102.706 348.245 102.766 346.909 102.75L308.989 102.82ZM252.199 58.88C256.359 58.88 260.519 58.94 264.669 58.88C267.309 58.82 267.599 58.4 266.539 55.88C263.299 48.27 259.959 40.71 256.659 33.13C255.409 30.25 254.189 27.35 252.899 24.49C252.719 24.09 252.199 23.84 251.829 23.49C251.518 23.7879 251.246 24.1239 251.019 24.49C249.852 27.23 248.709 29.98 247.589 32.74C244.419 40.55 241.289 48.37 238.069 56.16C237.299 58.02 237.459 58.88 239.719 58.84C243.879 58.88 248.039 58.88 252.199 58.88Z" fill="#616262"/>
<path d="M452.749 53.9899C452.749 64.2599 452.749 74.5299 452.749 84.7999C452.823 86.7724 453.077 88.7339 453.509 90.6599C454.509 95.9699 457.659 99.0999 463.069 100.06C464.903 100.501 466.707 101.059 468.469 101.73C466.839 103.85 464.549 102.73 462.599 102.73C453.949 102.86 445.289 102.79 436.599 102.78C435.598 102.835 434.594 102.798 433.599 102.67C433.099 102.58 432.689 102.01 432.239 101.67C432.589 101.4 432.909 100.98 433.309 100.88C434.589 100.56 435.899 100.33 437.209 100.11C443.919 98.9699 446.789 95.4499 447.759 88.7299C448.365 84.1348 448.665 79.5047 448.659 74.8699C448.773 61.2899 448.773 47.7033 448.659 34.1099C448.659 28.6599 448.279 23.1999 447.869 17.7599C447.279 9.75991 444.359 6.63992 436.589 4.91992C435.091 4.48788 433.624 3.95328 432.199 3.31991C433.439 1.31991 435.449 2.31991 437.069 2.31991C444.219 2.18991 451.379 2.3799 458.529 2.2099C459.823 2.08864 461.126 2.30071 462.315 2.82586C463.503 3.35101 464.538 4.17174 465.319 5.2099C477.419 19.9599 489.669 34.5799 501.869 49.2099C508.869 57.6299 515.869 66.0432 522.869 74.4499C523.57 75.0893 524.35 75.6371 525.189 76.0799C525.364 75.3098 525.481 74.5276 525.539 73.7399C525.539 57.6599 525.619 41.5899 525.539 25.5199C525.507 21.8761 525.132 18.2434 524.419 14.6699C523.349 9.33992 520.219 5.8399 514.479 4.9999C512.647 4.57995 510.854 4.00453 509.119 3.2799C510.739 1.1399 513.039 2.2799 514.989 2.2799C523.639 2.1499 532.289 2.21991 540.989 2.22991C542.151 2.20811 543.314 2.26156 544.469 2.38992C544.674 2.45936 544.857 2.58058 545 2.74182C545.144 2.90305 545.244 3.09878 545.289 3.3099C545.289 3.6299 544.789 4.0999 544.419 4.2099C543.465 4.49402 542.488 4.69478 541.499 4.8099C533.719 5.8099 530.549 9.99991 529.689 18.3799C529.319 21.9899 529.369 25.6599 529.359 29.2999C529.359 51.5133 529.359 73.7199 529.359 95.9199C529.455 97.0724 529.435 98.2315 529.299 99.3799C529.069 100.54 528.499 102.49 527.949 102.53C526.531 102.647 525.122 102.21 524.019 101.31C521.559 98.8599 519.439 96.0699 517.189 93.4099C496.976 69.4099 476.756 45.4432 456.529 21.5099C455.521 20.4661 454.438 19.4969 453.289 18.6099C452.903 20.1023 452.642 21.6242 452.509 23.1599C452.439 33.4299 452.509 43.7099 452.509 53.9799L452.749 53.9899Z" fill="#616262"/>
<path d="M151.849 102.81C137.699 102.81 123.559 102.81 109.419 102.81C108.202 102.667 107.007 102.379 105.859 101.95C106.92 101.418 108.024 100.976 109.159 100.63C118.099 98.69 121.159 95.63 121.489 86.53C122.029 71.48 122.189 56.41 122.249 41.35C122.249 33.58 121.939 25.8 121.469 18.05C120.989 9.77999 118.039 6.64997 109.909 4.87997C108.769 4.62997 107.619 4.44998 106.509 4.09998C106.209 3.99998 105.989 3.39997 105.889 2.99997C105.889 2.84997 106.279 2.43997 106.519 2.40997C107.514 2.27795 108.516 2.21112 109.519 2.20996C134.979 2.20996 160.436 2.20996 185.889 2.20996C190.059 2.20996 190.019 2.27996 190.219 6.20996C190.509 11.66 190.889 17.1 191.219 22.55C191.283 23.7077 191.246 24.8687 191.109 26.02C191.039 26.2298 190.917 26.4185 190.754 26.5688C190.592 26.7191 190.394 26.8261 190.179 26.88C189.945 26.8863 189.713 26.8391 189.5 26.7421C189.287 26.6451 189.098 26.5007 188.949 26.32C188.662 25.7322 188.476 25.0999 188.399 24.45C186.529 14.24 178.769 6.19999 165.489 5.32999C157.869 4.82999 150.189 5.25998 142.489 5.13998C140.019 5.13998 139.399 6.13998 139.409 8.41998C139.479 20.85 139.409 33.28 139.469 45.71C139.469 48.81 139.779 49.09 143.009 48.93C146.663 48.8124 150.306 48.4785 153.919 47.93C160.179 46.86 163.049 42.43 164.329 36.67C164.649 35.22 164.879 33.74 165.329 32.34C165.479 31.88 166.329 31.26 166.679 31.34C166.959 31.4519 167.207 31.6293 167.404 31.8573C167.601 32.0852 167.74 32.3571 167.809 32.65C167.956 33.9779 167.996 35.3156 167.929 36.65C167.759 46.74 167.609 56.83 167.339 66.92C167.339 68.23 166.699 70.62 166.259 70.64C164.089 70.75 164.739 68.69 164.359 67.39C163.82 65.1469 163.152 62.9366 162.359 60.77C160.739 56.88 157.989 53.88 153.799 53.02C149.893 52.3383 145.949 51.8974 141.989 51.7C140.049 51.54 139.389 52.7 139.449 54.51C139.779 64.43 139.679 74.39 140.549 84.26C141.299 92.8 147.639 98.69 156.969 99.55C163.245 99.9959 169.551 99.7712 175.779 98.88C184.779 97.76 190.779 92.23 194.259 84.05C195.549 81.05 196.329 77.79 197.479 74.7C197.709 74.09 198.579 73.7 199.159 73.22C199.489 73.87 200.159 74.53 200.159 75.22C200.113 80.84 199.999 86.4666 199.819 92.1C199.749 94.41 199.499 96.71 199.379 99.02C199.189 102.73 199.209 102.8 195.309 102.81C180.816 102.857 166.329 102.857 151.849 102.81Z" fill="#616262"/>
<path d="M654.738 87.6897C654.738 83.3897 654.658 79.0797 654.808 74.7797C654.808 73.8397 655.738 72.9297 656.238 72.0097C657.016 72.7403 657.689 73.5749 658.238 74.4897C660.018 78.5697 661.238 82.9197 663.448 86.7797C665.447 90.3929 667.967 93.6918 670.928 96.5697C677.288 102.62 685.218 103.57 693.258 101.11C708.478 96.4097 710.258 78.0097 701.028 67.8397C698.859 65.5504 696.345 63.6137 693.578 62.0997C688.398 59.0997 682.978 56.5997 677.688 53.8497C675.328 52.6197 672.978 51.3797 670.688 49.9997C659.048 42.9097 656.168 31.2597 660.058 19.3997C663.768 8.10965 674.608 0.599653 686.568 0.209653C692.04 -0.0453572 697.501 0.900111 702.568 2.97967C704.397 3.75563 706.271 4.42345 708.178 4.97967C710.508 5.64967 712.768 5.85965 714.238 3.20965C714.568 2.61965 715.468 2.35967 716.098 1.94967C716.488 2.76967 717.198 3.57966 717.208 4.39966C717.361 12.5197 717.428 20.6363 717.408 28.7497C717.408 29.6797 716.608 30.5997 716.178 31.5297C715.505 30.904 714.932 30.1789 714.478 29.3797C713.398 26.6197 712.568 23.7597 711.478 20.9897C709.621 15.9908 706.585 11.514 702.628 7.93966C699.453 5.22786 695.53 3.5429 691.377 3.10727C687.224 2.67163 683.037 3.50581 679.368 5.49966C677.492 6.56368 675.85 7.9944 674.538 9.70657C673.227 11.4187 672.274 13.3773 671.736 15.4656C671.197 17.554 671.085 19.7293 671.405 21.8621C671.725 23.9948 672.471 26.0413 673.598 27.8797C676.598 32.7497 681.178 35.6997 686.148 38.1097C690.478 40.2097 695.038 41.8297 699.258 44.1097C704.338 46.8597 709.518 49.6297 714.028 53.1797C728.858 64.8497 726.358 90.2697 709.418 100.3C701.34 105.126 691.777 106.833 682.528 105.1C677.528 104.23 672.648 102.44 667.768 100.91C663.958 99.7097 660.268 97.7897 657.028 102.14C656.138 103.33 654.708 102.45 654.678 100.59C654.598 96.2897 654.678 91.9797 654.678 87.6697L654.738 87.6897Z" fill="#616262"/>
<path d="M93.4791 19.4198C93.4791 23.8898 93.4791 28.3598 93.4791 32.8298C93.3272 33.5666 93.0462 34.2708 92.6491 34.9098C91.9491 34.3698 90.9291 33.9698 90.6491 33.2598C88.9191 29.5098 87.5491 25.5897 85.6991 21.8997C81.5291 13.6097 75.4491 6.99974 66.3391 4.36974C54.9891 1.08974 44.6091 3.70976 35.7491 11.5398C27.8791 18.5398 23.5791 27.4698 21.2991 37.5398C18.3444 50.0075 19.1022 63.0674 23.4791 75.1098C30.4791 94.2998 48.4091 101.95 66.4791 99.2197C67.9594 99.03 69.4283 98.7596 70.8791 98.4098C81.6191 95.5798 88.2891 88.5998 91.5091 78.1598C91.8991 76.8998 92.0591 75.5598 92.5591 74.3498C92.7991 73.7598 93.5591 73.3498 94.0891 72.8898C94.3791 73.5198 94.9891 74.1998 94.8991 74.7698C92.8991 88.3798 85.7791 98.7697 71.5291 102.65C67.5344 103.73 63.4398 104.4 59.3091 104.65C51.3091 105.11 43.3891 104.83 35.5891 102.65C16.2991 97.2797 2.9391 82.8697 0.519098 61.5597C-0.799417 51.6993 0.394171 41.6657 3.9891 32.3898C10.9191 15.1898 24.1391 5.19976 42.0891 1.50976C53.6765 -1.0303 65.7351 -0.391084 76.9891 3.35976C79.0085 4.10271 81.0685 4.73036 83.1591 5.23974C85.6491 5.77974 88.1591 6.03974 89.6591 3.14974C89.9591 2.56974 90.9391 2.34974 91.6091 1.95974C92.0621 2.59619 92.4006 3.30687 92.6091 4.05974C92.8891 7.67974 93.0591 11.3098 93.2091 14.9498C93.2791 16.4298 93.2091 17.9498 93.2091 19.4198H93.4791Z" fill="#616262"/>
<path d="M625.848 102.8C618.198 102.8 610.558 102.8 602.908 102.8C602.238 102.8 601.578 102.22 600.908 101.91C601.447 101.426 602.054 101.021 602.708 100.71C604.128 100.28 605.628 100.12 607.058 99.7101C613.358 97.9801 615.928 93.4901 614.128 87.2301C613.482 85.1887 612.721 83.1855 611.848 81.2301C609.558 75.7401 607.138 70.3101 604.918 64.7901C604.668 63.9215 604.118 63.17 603.365 62.6699C602.612 62.1698 601.706 61.9537 600.808 62.0601C591.498 62.1301 582.188 62.0601 572.878 62.0601C571.308 62.0601 570.008 62.2001 569.338 64.0101C566.748 71.0101 563.898 77.8401 561.438 84.8301C558.498 93.1701 562.878 98.8301 569.848 100.3C570.508 100.382 571.151 100.561 571.758 100.83C572.209 101.179 572.601 101.597 572.918 102.07C572.518 102.3 572.138 102.69 571.728 102.74C570.731 102.831 569.729 102.861 568.728 102.83H542.308C541.146 102.852 539.984 102.798 538.828 102.67C538.508 102.67 538.188 102.08 538.028 101.67C537.968 101.53 538.318 101.12 538.558 100.97C538.875 100.832 539.213 100.751 539.558 100.73C546.398 99.4401 550.558 94.7301 553.658 89.1201C556.322 84.1732 558.715 79.0858 560.828 73.8801C570.128 51.6301 579.298 29.3201 588.518 7.03009C588.888 6.29105 589.202 5.5256 589.458 4.74008C589.948 2.79008 591.218 2.19009 593.138 2.19009C593.955 2.11378 594.772 2.32477 595.449 2.78665C596.126 3.24853 596.621 3.93234 596.848 4.72009C599.938 12.0201 603.238 19.2401 606.408 26.5001C614.548 45.1201 622.682 63.7434 630.808 82.3701C631.938 84.9401 633.198 87.4601 634.478 89.9601C637.348 95.5401 641.348 99.6301 648.078 100.28C649.188 100.39 650.218 101.28 651.288 101.86C650.162 102.298 648.987 102.597 647.788 102.75C640.478 102.83 633.158 102.75 625.848 102.75V102.8ZM586.758 58.8801C590.418 58.8801 594.078 58.8801 597.758 58.8801C602.258 58.8801 602.338 58.7001 600.478 54.4201C597.658 47.9001 594.778 41.4201 591.928 34.8801C590.478 31.5401 589.088 28.1801 587.588 24.8801C587.348 24.3301 586.718 23.9501 586.268 23.4901C585.891 23.9911 585.556 24.523 585.268 25.0801C583.795 28.5801 582.342 32.0934 580.908 35.6201C578.118 42.5201 575.398 49.4401 572.548 56.3001C571.708 58.3001 572.198 58.9501 574.318 58.9101C578.448 58.8801 582.608 58.8801 586.758 58.8801Z" fill="#616262"/>
<path d="M742.468 9.80991C742.468 8.15991 742.408 6.49992 742.468 4.85992C742.589 4.10951 742.794 3.37496 743.078 2.66992C743.758 3.24992 744.678 3.66992 745.078 4.44992C746.478 7.06992 747.678 9.79992 749.008 12.4499C749.349 12.9579 749.752 13.4215 750.208 13.8299C750.686 13.4382 751.11 12.9841 751.468 12.4799C752.878 9.66992 754.158 6.78992 755.608 4.00992C755.918 3.42992 756.778 3.12992 757.378 2.69992C757.706 3.21068 757.94 3.77635 758.068 4.3699C758.068 8.1699 758.041 11.9699 757.988 15.7699C757.988 16.1099 757.458 16.4299 757.178 16.7699C756.948 16.4399 756.518 16.0999 756.508 15.7699C756.448 13.4599 756.508 11.1399 756.508 8.82993C756.397 8.27024 756.202 7.73072 755.928 7.22992C755.598 7.56241 755.304 7.92763 755.048 8.31992C754.448 9.49992 753.978 10.7399 753.348 11.8999C752.428 13.5899 751.408 15.2299 750.428 16.8999C749.428 15.3199 748.338 13.7499 747.428 12.1299C746.758 10.9899 746.288 9.73991 745.628 8.59991C745.448 8.27991 744.918 8.1699 744.548 7.9599C744.381 8.23902 744.26 8.5428 744.188 8.85992C744.188 11.1699 744.188 13.4799 744.098 15.7899C744.098 16.1299 743.578 16.4599 743.298 16.7899C743.058 16.4599 742.628 16.1299 742.618 15.7899C742.558 13.7899 742.618 11.7899 742.618 9.8399L742.468 9.80991Z" fill="#616262"/>
<path d="M734.689 2.34968C735.185 2.31964 735.682 2.31964 736.179 2.34968C737.279 2.47968 738.379 2.65968 739.479 2.81968C738.536 3.15653 737.639 3.61006 736.809 4.16968C736.12 4.72099 735.646 5.49571 735.469 6.35969C735.279 8.35969 735.469 10.3097 735.369 12.2797C735.269 13.7997 734.889 15.2797 734.639 16.8197C732.709 15.5697 733.809 13.6397 733.639 12.0197C733.494 10.3829 733.494 8.73647 733.639 7.09968C733.749 5.09968 733.159 3.93966 730.959 3.92966C730.609 3.92966 730.249 3.45968 729.889 3.19968C730.349 2.91968 730.789 2.45967 731.279 2.40967C732.431 2.34962 733.586 2.34962 734.739 2.40967L734.689 2.34968Z" fill="#616262"/>
</svg>
