<svg width="209" height="125" viewBox="0 0 209 125" fill="none" xmlns="http://www.w3.org/2000/svg">
<path d="M71.8027 17.7411C71.8027 26.2184 56.2978 33.0917 37.1748 33.0917C18.0518 33.0917 2.54688 26.2184 2.54688 17.7411M71.8027 17.7411C71.8027 9.26394 56.2978 2.39062 37.1748 2.39062C18.0518 2.39062 2.54688 9.26394 2.54688 17.7411M71.8027 17.7411V59.6062C71.8027 68.0834 56.2978 74.9567 37.1748 74.9567C18.0518 74.9567 2.54688 68.0834 2.54688 59.6062V17.7411M71.8027 17.7411V31.6962V17.7411ZM2.54688 17.7411V31.6962V17.7411ZM71.8027 31.6962V45.6512C71.8027 54.1284 56.2978 61.0017 37.1748 61.0017C18.0518 61.0017 2.54688 54.1284 2.54688 45.6512V31.6962M71.8027 31.6962C71.8027 40.1734 56.2978 47.0467 37.1748 47.0467C18.0518 47.0467 2.54688 40.1734 2.54688 31.6962" fill="#F3F5F8"/>
<path d="M71.8027 17.7411C71.8027 26.2184 56.2978 33.0917 37.1748 33.0917C18.0518 33.0917 2.54688 26.2184 2.54688 17.7411M71.8027 17.7411C71.8027 9.26394 56.2978 2.39062 37.1748 2.39062C18.0518 2.39062 2.54688 9.26394 2.54688 17.7411M71.8027 17.7411V59.6062C71.8027 68.0834 56.2978 74.9567 37.1748 74.9567C18.0518 74.9567 2.54688 68.0834 2.54688 59.6062V17.7411M71.8027 17.7411V31.6962M2.54688 17.7411V31.6962M71.8027 31.6962V45.6512C71.8027 54.1284 56.2978 61.0017 37.1748 61.0017C18.0518 61.0017 2.54688 54.1284 2.54688 45.6512V31.6962M71.8027 31.6962C71.8027 40.1734 56.2978 47.0467 37.1748 47.0467C18.0518 47.0467 2.54688 40.1734 2.54688 31.6962" stroke="#36353A" stroke-width="4" stroke-linecap="round" stroke-linejoin="round"/>
<path d="M112.033 42.746C112.033 51.2232 96.5283 58.0966 77.4053 58.0966C58.2823 58.0966 42.7773 51.2232 42.7773 42.746M112.033 42.746C112.033 34.2688 96.5283 27.3955 77.4053 27.3955C58.2823 27.3955 42.7773 34.2688 42.7773 42.746M112.033 42.746V84.6111C112.033 93.0883 96.5283 99.9616 77.4053 99.9616C58.2823 99.9616 42.7773 93.0883 42.7773 84.6111V42.746M112.033 42.746V56.7011V42.746ZM42.7773 42.746V56.7011V42.746ZM112.033 56.7011V70.6561C112.033 79.1333 96.5283 86.0066 77.4053 86.0066C58.2823 86.0066 42.7773 79.1333 42.7773 70.6561V56.7011M112.033 56.7011C112.033 65.1783 96.5283 72.0516 77.4053 72.0516C58.2823 72.0516 42.7773 65.1783 42.7773 56.7011" fill="#F3F5F8"/>
<path d="M112.033 42.746C112.033 51.2232 96.5283 58.0966 77.4053 58.0966C58.2823 58.0966 42.7773 51.2232 42.7773 42.746M112.033 42.746C112.033 34.2688 96.5283 27.3955 77.4053 27.3955C58.2823 27.3955 42.7773 34.2688 42.7773 42.746M112.033 42.746V84.6111C112.033 93.0883 96.5283 99.9616 77.4053 99.9616C58.2823 99.9616 42.7773 93.0883 42.7773 84.6111V42.746M112.033 42.746V56.7011M42.7773 42.746V56.7011M112.033 56.7011V70.6561C112.033 79.1333 96.5283 86.0066 77.4053 86.0066C58.2823 86.0066 42.7773 79.1333 42.7773 70.6561V56.7011M112.033 56.7011C112.033 65.1783 96.5283 72.0516 77.4053 72.0516C58.2823 72.0516 42.7773 65.1783 42.7773 56.7011" stroke="#36353A" stroke-width="4" stroke-linecap="round" stroke-linejoin="round"/>
<path d="M206.793 42.746C206.793 51.2232 191.288 58.0966 172.165 58.0966C153.042 58.0966 137.537 51.2232 137.537 42.746M206.793 42.746C206.793 34.2688 191.288 27.3955 172.165 27.3955C153.042 27.3955 137.537 34.2688 137.537 42.746M206.793 42.746V84.6111C206.793 93.0883 191.288 99.9616 172.165 99.9616C153.042 99.9616 137.537 93.0883 137.537 84.6111V42.746M206.793 42.746V56.7011V42.746ZM137.537 42.746V56.7011V42.746ZM206.793 56.7011V70.6561C206.793 79.1333 191.288 86.0066 172.165 86.0066C153.042 86.0066 137.537 79.1333 137.537 70.6561V56.7011M206.793 56.7011C206.793 65.1783 191.288 72.0516 172.165 72.0516C153.042 72.0516 137.537 65.1783 137.537 56.7011" fill="#F3F5F8"/>
<path d="M206.793 42.746C206.793 51.2232 191.288 58.0966 172.165 58.0966C153.042 58.0966 137.537 51.2232 137.537 42.746M206.793 42.746C206.793 34.2688 191.288 27.3955 172.165 27.3955C153.042 27.3955 137.537 34.2688 137.537 42.746M206.793 42.746V84.6111C206.793 93.0883 191.288 99.9616 172.165 99.9616C153.042 99.9616 137.537 93.0883 137.537 84.6111V42.746M206.793 42.746V56.7011M137.537 42.746V56.7011M206.793 56.7011V70.6561C206.793 79.1333 191.288 86.0066 172.165 86.0066C153.042 86.0066 137.537 79.1333 137.537 70.6561V56.7011M206.793 56.7011C206.793 65.1783 191.288 72.0516 172.165 72.0516C153.042 72.0516 137.537 65.1783 137.537 56.7011" stroke="#36353A" stroke-width="4" stroke-linecap="round" stroke-linejoin="round"/>
<path d="M159.396 65.1747C159.396 73.652 143.892 80.5253 124.769 80.5253C105.646 80.5253 90.1406 73.652 90.1406 65.1747M159.396 65.1747C159.396 56.6975 143.892 49.8242 124.769 49.8242C105.646 49.8242 90.1406 56.6975 90.1406 65.1747M159.396 65.1747V107.04C159.396 115.517 143.892 122.39 124.769 122.39C105.646 122.39 90.1406 115.517 90.1406 107.04V65.1747M159.396 65.1747V79.1298V65.1747ZM90.1406 65.1747V79.1298V65.1747ZM159.396 79.1298V93.0848C159.396 101.562 143.892 108.435 124.769 108.435C105.646 108.435 90.1406 101.562 90.1406 93.0848V79.1298M159.396 79.1298C159.396 87.607 143.892 94.4803 124.769 94.4803C105.646 94.4803 90.1406 87.607 90.1406 79.1298" fill="#F3F5F8"/>
<path d="M159.396 65.1747C159.396 73.652 143.892 80.5253 124.769 80.5253C105.646 80.5253 90.1406 73.652 90.1406 65.1747M159.396 65.1747C159.396 56.6975 143.892 49.8242 124.769 49.8242C105.646 49.8242 90.1406 56.6975 90.1406 65.1747M159.396 65.1747V107.04C159.396 115.517 143.892 122.39 124.769 122.39C105.646 122.39 90.1406 115.517 90.1406 107.04V65.1747M159.396 65.1747V79.1298M90.1406 65.1747V79.1298M159.396 79.1298V93.0848C159.396 101.562 143.892 108.435 124.769 108.435C105.646 108.435 90.1406 101.562 90.1406 93.0848V79.1298M159.396 79.1298C159.396 87.607 143.892 94.4803 124.769 94.4803C105.646 94.4803 90.1406 87.607 90.1406 79.1298" stroke="#36353A" stroke-width="4" stroke-linecap="round" stroke-linejoin="round"/>
</svg>
