<svg width="142" height="125" viewBox="0 0 142 125" fill="none" xmlns="http://www.w3.org/2000/svg">
<path d="M112.856 106.483C121.697 107.206 130.592 106.067 138.966 103.14C139.286 99.1993 138.483 95.2486 136.652 91.745C134.82 88.2414 132.033 85.3281 128.614 83.3421C125.196 81.356 121.285 80.3785 117.334 80.5225C113.383 80.6665 109.553 81.9261 106.288 84.1557M106.288 84.1627C113.423 95.3158 112.856 106.693 112.856 106.693C112.856 108.263 112.772 109.812 112.598 111.341C99.9325 118.607 85.5808 122.42 70.979 122.396C55.8335 122.396 41.6163 118.376 29.3603 111.341C29.1808 109.726 27.4497 97.0659 35.6767 84.1627M112.856 106.476C112.829 98.5658 110.551 90.8265 106.288 84.1627L112.856 106.476ZM106.288 84.1627C102.505 78.2286 97.2856 73.3447 91.1137 69.9629C84.9418 66.5812 78.0167 64.8107 70.979 64.8155C63.9426 64.8119 57.0188 66.5829 50.8483 69.9646C44.6777 73.3464 39.4596 78.2296 35.6767 84.1627M35.6767 84.1627C32.4118 81.9352 28.583 80.6772 24.6332 80.5343C20.6833 80.3914 16.7737 81.3693 13.3563 83.3551C9.93887 85.3408 7.15331 88.2533 5.32165 91.7557C3.48999 95.2581 2.68704 99.2074 3.00565 103.147C11.3734 106.09 20.2704 107.225 29.109 106.476M35.6767 84.1627C31.4166 90.8272 29.1341 98.5665 29.109 106.476L35.6767 84.1627ZM91.9175 22.9385C91.9175 28.4917 89.7115 33.8175 85.7848 37.7443C81.8581 41.671 76.5323 43.877 70.979 43.877C65.4258 43.877 60.1 41.671 56.1733 37.7443C52.2465 33.8175 50.0405 28.4917 50.0405 22.9385C50.0405 17.3853 52.2465 12.0595 56.1733 8.13275C60.1 4.20602 65.4258 2 70.979 2C76.5323 2 81.8581 4.20602 85.7848 8.13275C89.7115 12.0595 91.9175 17.3853 91.9175 22.9385ZM133.795 43.877C133.795 45.9393 133.388 47.9814 132.599 49.8866C131.81 51.7919 130.653 53.5231 129.195 54.9813C127.737 56.4396 126.006 57.5963 124.1 58.3855C122.195 59.1747 120.153 59.5809 118.091 59.5809C116.028 59.5809 113.986 59.1747 112.081 58.3855C110.176 57.5963 108.445 56.4396 106.986 54.9813C105.528 53.5231 104.371 51.7919 103.582 49.8866C102.793 47.9814 102.387 45.9393 102.387 43.877C102.387 39.7121 104.041 35.7177 106.986 32.7727C109.931 29.8277 113.926 28.1731 118.091 28.1731C122.256 28.1731 126.25 29.8277 129.195 32.7727C132.14 35.7177 133.795 39.7121 133.795 43.877ZM39.5713 43.877C39.5713 45.9393 39.1651 47.9814 38.3759 49.8866C37.5867 51.7919 36.4299 53.5231 34.9717 54.9813C33.5135 56.4396 31.7823 57.5963 29.877 58.3855C27.9717 59.1747 25.9296 59.5809 23.8674 59.5809C21.8051 59.5809 19.7631 59.1747 17.8578 58.3855C15.9525 57.5963 14.2213 56.4396 12.7631 54.9813C11.3048 53.5231 10.1481 51.7919 9.35889 49.8866C8.5697 47.9814 8.1635 45.9393 8.1635 43.877C8.1635 39.7121 9.81801 35.7177 12.7631 32.7727C15.7081 29.8277 19.7025 28.1731 23.8674 28.1731C28.0323 28.1731 32.0267 29.8277 34.9717 32.7727C37.9168 35.7177 39.5713 39.7121 39.5713 43.877Z" fill="#F3F5F8"/>
<path d="M112.856 106.483C121.697 107.206 130.592 106.067 138.966 103.14C139.286 99.1993 138.483 95.2486 136.652 91.745C134.82 88.2414 132.033 85.3281 128.614 83.3421C125.196 81.356 121.285 80.3785 117.334 80.5225C113.383 80.6665 109.553 81.9261 106.288 84.1557M106.288 84.1627C113.423 95.3157 112.856 106.693 112.856 106.693C112.856 108.263 112.772 109.812 112.598 111.341C99.9325 118.607 85.5808 122.42 70.979 122.396C55.8335 122.396 41.6163 118.376 29.3603 111.341C29.1808 109.726 27.4497 97.0659 35.6767 84.1627M106.288 84.1627C110.551 90.8265 112.829 98.5658 112.856 106.476M106.288 84.1627C102.505 78.2286 97.2856 73.3447 91.1137 69.9629C84.9418 66.5812 78.0167 64.8107 70.979 64.8155C63.9426 64.8119 57.0188 66.5829 50.8483 69.9646C44.6777 73.3464 39.4596 78.2296 35.6767 84.1627M35.6767 84.1627C32.4118 81.9352 28.583 80.6772 24.6332 80.5343C20.6833 80.3914 16.7737 81.3693 13.3563 83.3551C9.93887 85.3408 7.15331 88.2533 5.32165 91.7557C3.48999 95.2581 2.68704 99.2074 3.00565 103.147C11.3734 106.09 20.2704 107.225 29.109 106.476C29.1341 98.5665 31.4166 90.8272 35.6767 84.1627ZM91.9175 22.9385C91.9175 28.4917 89.7115 33.8175 85.7848 37.7443C81.8581 41.671 76.5323 43.877 70.979 43.877C65.4258 43.877 60.1 41.671 56.1733 37.7443C52.2465 33.8175 50.0405 28.4917 50.0405 22.9385C50.0405 17.3853 52.2465 12.0595 56.1733 8.13275C60.1 4.20602 65.4258 2 70.979 2C76.5323 2 81.8581 4.20602 85.7848 8.13275C89.7115 12.0595 91.9175 17.3853 91.9175 22.9385ZM133.795 43.877C133.795 45.9393 133.388 47.9814 132.599 49.8866C131.81 51.7919 130.653 53.5231 129.195 54.9813C127.737 56.4396 126.006 57.5963 124.1 58.3855C122.195 59.1747 120.153 59.5809 118.091 59.5809C116.028 59.5809 113.986 59.1747 112.081 58.3855C110.176 57.5963 108.445 56.4396 106.986 54.9813C105.528 53.5231 104.371 51.7919 103.582 49.8866C102.793 47.9814 102.387 45.9393 102.387 43.877C102.387 39.7121 104.041 35.7177 106.986 32.7727C109.931 29.8277 113.926 28.1731 118.091 28.1731C122.256 28.1731 126.25 29.8277 129.195 32.7727C132.14 35.7177 133.795 39.7121 133.795 43.877ZM39.5713 43.877C39.5713 45.9393 39.1651 47.9814 38.3759 49.8866C37.5867 51.7919 36.4299 53.5231 34.9717 54.9813C33.5135 56.4396 31.7823 57.5963 29.877 58.3855C27.9717 59.1747 25.9296 59.5809 23.8674 59.5809C21.8051 59.5809 19.7631 59.1747 17.8578 58.3855C15.9525 57.5963 14.2213 56.4396 12.7631 54.9813C11.3048 53.5231 10.1481 51.7919 9.35889 49.8866C8.5697 47.9814 8.1635 45.9393 8.1635 43.877C8.1635 39.7121 9.81801 35.7177 12.7631 32.7727C15.7081 29.8277 19.7025 28.1731 23.8674 28.1731C28.0323 28.1731 32.0267 29.8277 34.9717 32.7727C37.9168 35.7177 39.5713 39.7121 39.5713 43.877Z" stroke="black" stroke-width="4" stroke-linecap="round" stroke-linejoin="round"/>
</svg>
