<svg width="31" height="30" viewBox="0 0 31 30" fill="none" xmlns="http://www.w3.org/2000/svg">
<rect x="0.322266" width="30" height="30" rx="15" fill="#FF8DA0" fill-opacity="0.15"/>
<path fill-rule="evenodd" clip-rule="evenodd" d="M9.48893 9.33341C9.12074 9.33341 8.82227 9.63189 8.82227 10.0001V21.6667C8.82227 22.0349 9.12074 22.3334 9.48893 22.3334H21.1556C21.5238 22.3334 21.8223 22.0349 21.8223 21.6667V10.0001C21.8223 9.63189 21.5238 9.33341 21.1556 9.33341H9.48893ZM6.82227 10.0001C6.82227 8.52732 8.01617 7.33341 9.48893 7.33341H21.1556C22.6284 7.33341 23.8223 8.52732 23.8223 10.0001V21.6667C23.8223 23.1395 22.6284 24.3334 21.1556 24.3334H9.48893C8.01617 24.3334 6.82227 23.1395 6.82227 21.6667V10.0001Z" fill="#FA73A3"/>
<path fill-rule="evenodd" clip-rule="evenodd" d="M6.82227 13.3334C6.82227 12.7811 7.26998 12.3334 7.82227 12.3334H22.8223C23.3745 12.3334 23.8223 12.7811 23.8223 13.3334C23.8223 13.8857 23.3745 14.3334 22.8223 14.3334H7.82227C7.26998 14.3334 6.82227 13.8857 6.82227 13.3334Z" fill="#FA73A3"/>
<path fill-rule="evenodd" clip-rule="evenodd" d="M18.6556 5.66675C19.2079 5.66675 19.6556 6.11446 19.6556 6.66675V10.0001C19.6556 10.5524 19.2079 11.0001 18.6556 11.0001C18.1033 11.0001 17.6556 10.5524 17.6556 10.0001V6.66675C17.6556 6.11446 18.1033 5.66675 18.6556 5.66675Z" fill="#FA73A3"/>
<path fill-rule="evenodd" clip-rule="evenodd" d="M11.9889 5.66675C12.5412 5.66675 12.9889 6.11446 12.9889 6.66675V10.0001C12.9889 10.5524 12.5412 11.0001 11.9889 11.0001C11.4366 11.0001 10.9889 10.5524 10.9889 10.0001V6.66675C10.9889 6.11446 11.4366 5.66675 11.9889 5.66675Z" fill="#FA73A3"/>
</svg>
