<svg width="671" height="334" viewBox="0 0 671 334" fill="none" xmlns="http://www.w3.org/2000/svg">
<path fill-rule="evenodd" clip-rule="evenodd" d="M644.533 15.7496C652.86 9.75997 661.529 4.65047 670.478 0.35248V16.048C664.378 19.3054 658.447 22.9868 652.708 27.115C585.013 75.8053 558.965 137.404 536.222 191.187C530.539 204.627 525.062 217.58 519.193 229.72C504.654 259.794 487.329 285.322 457.253 298.087C427.355 310.777 386.47 310.173 326.409 292.362C207.955 257.233 137.614 258.635 90.3747 277.38C59.2892 289.716 37.5975 309.754 18.3948 333.351H0.541151C22.1665 305.168 47.2107 279.447 85.2109 264.368C136.789 243.9 210.828 243.483 330.39 278.94C389.337 296.421 426.358 295.991 451.784 285.2C477.032 274.484 492.448 252.877 506.588 223.627C512.03 212.369 517.229 200.037 522.722 187.006C545.492 132.989 573.322 66.9694 644.533 15.7496Z" fill="url(#paint0_linear_6062_1999)"/>
<defs>
<linearGradient id="paint0_linear_6062_1999" x1="-33.7259" y1="342.182" x2="586.854" y2="489.538" gradientUnits="userSpaceOnUse">
<stop offset="0.0269556" stop-color="#E16F99"/>
<stop offset="0.12643" stop-color="#E69169"/>
<stop offset="0.21066" stop-color="#EAA356"/>
<stop offset="0.343687" stop-color="#EDC749"/>
<stop offset="0.467232" stop-color="#E8D74D"/>
<stop offset="0.579048" stop-color="#CCD75E"/>
<stop offset="0.694295" stop-color="#9DD570"/>
<stop offset="0.816207" stop-color="#86D287"/>
<stop offset="0.939668" stop-color="#67C6CF"/>
</linearGradient>
</defs>
</svg>
