<svg width="844" height="371" viewBox="0 0 844 371" fill="none" xmlns="http://www.w3.org/2000/svg">
<path fill-rule="evenodd" clip-rule="evenodd" d="M19.3618 370.957H0.402069C26.7278 341.175 57.3331 314.489 102.455 298.502C167.026 275.624 260.143 274.991 411.43 315.05C486.314 334.878 533.94 334.559 566.949 322.05C599.655 309.656 619.356 284.781 637.23 251.767C644.164 238.96 650.778 224.956 657.757 210.177C686.614 149.075 721.724 74.7321 811.572 17.0321C821.685 10.5374 832.2 4.96567 843.049 0.247822V15.6124C834.831 19.4694 826.849 23.859 819.137 28.8121C732.995 84.1325 699.843 154.152 671.031 215.006C663.849 230.174 656.937 244.773 649.542 258.432C631.082 292.527 609.299 320.973 571.91 335.141C534.825 349.195 483.744 348.68 407.846 328.583C257.57 288.792 167.759 290.217 107.13 311.699C69.5851 325.001 42.7774 346.122 19.3618 370.957Z" fill="url(#paint0_linear_6010_1347)"/>
<defs>
<linearGradient id="paint0_linear_6010_1347" x1="-49.1708" y1="385.767" x2="726.563" y2="592.069" gradientUnits="userSpaceOnUse">
<stop offset="0.0269556" stop-color="#E16F99"/>
<stop offset="0.12643" stop-color="#E69169"/>
<stop offset="0.21066" stop-color="#EAA356"/>
<stop offset="0.343687" stop-color="#EDC749"/>
<stop offset="0.467232" stop-color="#E8D74D"/>
<stop offset="0.579048" stop-color="#CCD75E"/>
<stop offset="0.694295" stop-color="#9DD570"/>
<stop offset="0.816207" stop-color="#86D287"/>
<stop offset="0.939668" stop-color="#67C6CF"/>
</linearGradient>
</defs>
</svg>
