<svg width="805" height="149" viewBox="0 0 805 149" fill="none" xmlns="http://www.w3.org/2000/svg">
<path fill-rule="evenodd" clip-rule="evenodd" d="M5.12755 66.2888C9.20727 31.7554 38.8986 4.93602 74.9135 4.93602C111.019 4.93602 140.778 31.89 144.722 66.5803L149.232 66.087C145.017 29.1318 113.353 0.451172 74.9135 0.451172C36.5641 0.451172 4.96889 28.9748 0.617188 65.773L5.12755 66.2888ZM240.051 73.9803C240.051 70.8185 240.618 67.6791 241.729 64.5397C242.862 61.4003 244.494 58.5973 246.624 56.1306C248.777 53.6639 251.407 51.6457 254.557 50.0985C257.707 48.5512 261.266 47.7664 265.255 47.7664C269.992 47.7664 274.049 48.8203 277.403 50.9506C280.758 53.0809 283.251 55.8391 284.838 59.2476L280.735 61.7591C279.897 60.0324 278.854 58.5748 277.63 57.3864C276.406 56.1979 275.092 55.2336 273.709 54.4936C272.304 53.7536 270.876 53.2154 269.38 52.9015C267.884 52.5876 266.411 52.4306 264.96 52.4306C261.765 52.4306 258.954 53.0809 256.506 54.3591C254.058 55.6373 251.996 57.3191 250.341 59.3821C248.664 61.4451 247.417 63.7773 246.556 66.3785C245.718 68.9797 245.287 71.6033 245.287 74.2494C245.287 77.1645 245.808 79.9451 246.828 82.6136C247.848 85.2821 249.253 87.6367 251.021 89.6773C252.789 91.7179 254.874 93.3548 257.299 94.5658C259.725 95.7767 262.354 96.3821 265.187 96.3821C266.683 96.3821 268.224 96.2027 269.788 95.8215C271.352 95.4403 272.87 94.8573 274.344 94.05C275.817 93.2427 277.177 92.2336 278.423 91.0227C279.67 89.8118 280.713 88.3542 281.574 86.6276L285.903 88.8476C285.064 90.8209 283.863 92.57 282.322 94.0724C280.781 95.5748 279.058 96.853 277.154 97.8845C275.25 98.9161 273.256 99.7009 271.125 100.261C268.995 100.799 266.932 101.069 264.87 101.069C261.221 101.069 257.889 100.284 254.852 98.6918C251.815 97.1221 249.185 95.0591 247.01 92.5251C244.811 89.9912 243.111 87.0985 241.887 83.8694C240.663 80.6403 240.051 77.3439 240.051 73.9803ZM344.22 48.0803V100.62H339.053V76.0433H307.571V100.62H302.335V48.0803H307.571V71.4688H339.053V48.0803H344.22ZM365.027 48.0803V100.62H370.263V48.0803H365.027ZM426.721 96.0457V100.62H391.046V48.0803H426.041V52.6773H396.282V71.6257H422.234V75.9985H396.282V96.0457H426.721ZM462.85 94.1845L443.856 48.0803H438.394L460.538 100.62H465.093L487.237 48.0803H481.775L462.85 94.1845ZM538.03 96.0457V100.62H502.355V48.0803H537.35V52.6773H507.59V71.6257H533.542V75.9985H507.59V96.0457H538.03ZM583.791 91.8748C581.932 92.9736 579.62 93.5118 576.832 93.5118L576.81 93.4894C574.067 93.4894 571.755 92.9512 569.897 91.8973C568.016 90.8433 566.543 89.4306 565.409 87.6815C564.276 85.9324 563.483 83.9367 563.007 81.6942C562.531 79.4518 562.304 77.1197 562.304 74.6979V48.0579H553.918V74.6979C553.918 78.1064 554.326 81.3803 555.119 84.5421C555.935 87.7039 557.227 90.507 559.018 92.9512C560.808 95.3954 563.165 97.3464 566.089 98.8039C569.013 100.261 572.73 100.979 576.832 100.979C580.935 100.979 584.425 100.306 587.349 98.916C590.273 97.5257 592.653 95.6421 594.489 93.2427C596.324 90.8433 597.684 88.0627 598.523 84.8785C599.362 81.6942 599.792 78.3082 599.792 74.6979V48.0579H591.338V74.6979C591.338 77.0748 591.112 79.3845 590.636 81.627C590.16 83.8694 589.366 85.8651 588.233 87.6142C587.122 89.3633 585.627 90.7985 583.791 91.8748ZM626.809 100.62V63.6486L656.863 100.62H663.821V48.1476H655.367V85.9773L624.996 48.0803H618.423V100.62H626.809ZM683.268 48.0803V100.62H691.654V48.0803H683.268ZM750.062 55.413H732.406V100.62H723.952V55.413H706.228V48.0803H750.062V55.413ZM801.081 93.31H773.022V77.2542H796.729V70.37H773.022V55.413H800.401V48.0803H764.658V100.62H801.081V93.31ZM228.198 101.091L209.204 54.987L190.279 101.091H184.816L206.96 48.5512H211.516L233.66 101.091H228.198ZM74.8909 143.966C110.248 143.966 139.509 118.133 144.427 84.5197V84.4973L148.915 85.1476C143.657 120.959 112.515 148.451 74.8909 148.451C37.1308 148.451 5.92094 120.802 0.821289 84.8336L5.30899 84.2057C10.114 117.976 39.4427 143.966 74.8909 143.966ZM49.4153 56.1306L68.4086 102.212H73.8709L51.7271 49.6724H47.1714L25.0276 102.212H30.4899L49.4153 56.1306ZM100.774 96.9651C104.106 96.9651 106.894 96.3373 109.115 95.0815C111.336 93.8257 113.104 92.1664 114.419 90.1258C115.733 88.0851 116.662 85.753 117.184 83.1294C117.705 80.5057 117.977 77.8821 117.977 75.2136V48.7306H123.213V75.2136C123.213 78.7567 122.805 82.1427 122.011 85.3045C121.218 88.4888 119.926 91.2918 118.158 93.7136C116.39 96.1354 114.079 98.0639 111.246 99.4767C108.412 100.912 104.945 101.629 100.842 101.629C96.74 101.629 93.1363 100.889 90.2578 99.3645C87.3793 97.8621 85.0902 95.8664 83.3449 93.3997C81.5997 90.933 80.3531 88.13 79.6052 84.9682C78.8572 81.8064 78.4719 78.5548 78.4719 75.1912V48.7082H83.6396V75.1912C83.6396 77.9494 83.9116 80.6403 84.4555 83.2639C84.9995 85.8876 85.9288 88.1973 87.266 90.2154C88.6032 92.2336 90.3485 93.8706 92.547 95.1039C94.7455 96.3373 97.488 96.9651 100.774 96.9651ZM414.596 139.302V123.986H420.239V121.833H406.459V123.986H412.125V139.302H414.596ZM430.892 132.821V139.279H433.226V132.036C433.226 131.386 433.136 130.781 432.954 130.198C432.773 129.615 432.501 129.121 432.138 128.695C431.776 128.269 431.322 127.91 430.778 127.664C430.235 127.417 429.577 127.283 428.807 127.283C427.968 127.283 427.197 127.484 426.517 127.888C425.837 128.292 425.339 128.785 425.067 129.368H425.022V120.645H422.687V139.302H425.022V133.09C425.022 131.924 425.339 130.983 425.928 130.287C426.517 129.592 427.288 129.233 428.217 129.233C428.761 129.233 429.215 129.323 429.555 129.525C429.895 129.727 430.167 129.973 430.371 130.31C430.574 130.646 430.71 131.027 430.778 131.453C430.846 131.879 430.892 132.35 430.892 132.821ZM439.437 134.144H448.843V134.167C448.865 134.032 448.865 133.899 448.865 133.764V133.763V133.359C448.865 132.418 448.729 131.566 448.457 130.826C448.185 130.086 447.823 129.435 447.324 128.919C446.848 128.381 446.236 127.978 445.533 127.709C444.831 127.417 444.038 127.283 443.176 127.283C442.315 127.283 441.499 127.417 440.751 127.731C440.003 128.045 439.346 128.471 438.802 129.009C438.235 129.547 437.827 130.198 437.51 130.96C437.215 131.723 437.057 132.552 437.057 133.472C437.057 134.391 437.215 135.221 437.533 135.983C437.85 136.723 438.281 137.373 438.825 137.912C439.369 138.45 440.026 138.876 440.796 139.167C441.567 139.459 442.383 139.616 443.29 139.616C444.332 139.616 445.284 139.414 446.145 139.033C446.984 138.629 447.732 138.024 448.367 137.194L446.712 135.893C446.372 136.387 445.919 136.813 445.33 137.149C444.763 137.486 444.06 137.665 443.267 137.665C442.768 137.665 442.27 137.575 441.816 137.396C441.363 137.216 440.955 136.97 440.615 136.656C440.253 136.342 439.981 135.983 439.777 135.535C439.573 135.086 439.437 134.638 439.437 134.144ZM445.624 130.063C445.896 130.355 446.1 130.713 446.236 131.117H446.259C446.395 131.521 446.485 131.947 446.485 132.418H439.459C439.482 131.947 439.618 131.521 439.822 131.117C440.026 130.713 440.298 130.355 440.615 130.063C440.955 129.772 441.34 129.547 441.771 129.368C442.202 129.189 442.678 129.099 443.176 129.099C443.72 129.099 444.196 129.189 444.604 129.368C445.012 129.525 445.352 129.772 445.624 130.063ZM469.581 130.467C470.148 130.086 470.601 129.57 470.918 128.942H470.941C471.258 128.314 471.417 127.552 471.417 126.699C471.417 125.847 471.258 125.107 470.964 124.502C470.669 123.896 470.238 123.403 469.695 122.999C469.151 122.596 468.471 122.304 467.7 122.125C466.929 121.923 466.068 121.833 465.116 121.833H459.722V139.302H462.192V131.633H464.98C465.909 131.633 466.748 131.521 467.541 131.341C468.335 131.162 469.015 130.87 469.581 130.467ZM467.768 124.502C468.108 124.726 468.403 125.018 468.607 125.376C468.811 125.735 468.924 126.184 468.924 126.699C468.924 127.215 468.833 127.664 468.629 128.023C468.448 128.381 468.153 128.673 467.791 128.897C467.428 129.121 466.975 129.278 466.476 129.39C465.977 129.503 465.411 129.547 464.821 129.547H462.192V123.896H464.867C465.433 123.896 465.977 123.941 466.476 124.031C466.975 124.121 467.405 124.278 467.768 124.502ZM481.095 137.62C481.095 138.181 481.163 138.741 481.299 139.302L481.322 139.279H483.452C483.384 138.988 483.339 138.629 483.316 138.203C483.271 137.755 483.271 137.351 483.271 136.947V131.835C483.271 131.207 483.18 130.601 482.976 130.041C482.772 129.48 482.478 128.987 482.07 128.583C481.662 128.179 481.14 127.866 480.528 127.619C479.916 127.372 479.169 127.26 478.33 127.26C477.378 127.26 476.471 127.417 475.633 127.731C474.794 128.045 474.092 128.471 473.502 129.009L474.749 130.489C475.134 130.108 475.633 129.772 476.222 129.525C476.811 129.278 477.446 129.144 478.103 129.144C478.987 129.144 479.69 129.346 480.234 129.772C480.755 130.175 481.027 130.826 481.027 131.7V132.014C480.03 132.014 479.033 132.059 478.058 132.149C477.061 132.238 476.177 132.418 475.406 132.687C474.613 132.956 473.978 133.359 473.502 133.875C473.026 134.391 472.777 135.086 472.777 135.983C472.777 136.656 472.913 137.216 473.185 137.687C473.457 138.158 473.82 138.539 474.228 138.809C474.636 139.078 475.111 139.279 475.61 139.414C476.109 139.526 476.585 139.593 477.061 139.593C477.967 139.593 478.738 139.414 479.395 139.078C480.052 138.719 480.596 138.248 481.027 137.62H481.095ZM480.438 133.718H481.004L480.982 133.741V134.369C480.982 135.355 480.687 136.163 480.098 136.813C479.509 137.463 478.647 137.777 477.559 137.777C477.265 137.777 476.97 137.755 476.698 137.687C476.426 137.62 476.154 137.53 475.927 137.373C475.678 137.239 475.497 137.037 475.361 136.813C475.225 136.566 475.157 136.275 475.157 135.938C475.157 135.445 475.315 135.041 475.655 134.75C475.995 134.436 476.426 134.234 476.925 134.077C477.446 133.943 478.013 133.83 478.625 133.786C479.259 133.741 479.848 133.718 480.438 133.718ZM493.448 129.413C493.833 129.413 494.173 129.435 494.513 129.525V129.547L494.603 127.395C494.354 127.327 494.037 127.305 493.674 127.305C492.881 127.305 492.156 127.507 491.521 127.933C490.886 128.336 490.41 128.897 490.07 129.592H490.002C490.002 129.483 489.998 129.36 489.993 129.223C489.987 129.053 489.98 128.862 489.98 128.65C489.98 128.357 489.956 128.099 489.934 127.869C489.926 127.782 489.918 127.699 489.912 127.619H487.691C487.698 127.729 487.706 127.843 487.715 127.961C487.736 128.252 487.759 128.569 487.759 128.919C487.781 129.413 487.781 129.816 487.781 130.13V139.302H490.116V133.158C490.116 132.664 490.184 132.193 490.32 131.745C490.456 131.296 490.66 130.893 490.932 130.556C491.204 130.198 491.566 129.929 491.974 129.727C492.382 129.525 492.881 129.413 493.448 129.413ZM499.771 135.579V129.503V129.48H502.922V127.574H499.771V124.21H497.459V127.574H495.193V129.48H497.459V135.826C497.459 137.037 497.754 137.956 498.343 138.562C498.933 139.167 499.794 139.481 500.904 139.481C501.267 139.481 501.63 139.459 501.97 139.392C502.31 139.347 502.627 139.257 502.899 139.167L502.831 137.261C502.627 137.351 502.4 137.418 502.151 137.463C501.902 137.508 501.675 137.53 501.448 137.53C500.859 137.53 500.451 137.396 500.179 137.082C499.907 136.79 499.771 136.275 499.771 135.579ZM514.163 132.821V139.302L514.186 139.324H516.521V132.081C516.521 131.431 516.43 130.826 516.249 130.243C516.067 129.659 515.795 129.166 515.433 128.74C515.07 128.314 514.617 127.955 514.073 127.709C513.529 127.462 512.872 127.327 512.101 127.327C511.67 127.327 511.262 127.395 510.854 127.507C510.469 127.619 510.106 127.776 509.766 127.978C509.426 128.179 509.132 128.426 508.883 128.695C508.633 128.964 508.429 129.256 508.271 129.57H508.203C508.203 129.458 508.198 129.332 508.193 129.195C508.187 129.029 508.18 128.846 508.18 128.65C508.18 128.37 508.156 128.115 508.134 127.883C508.126 127.799 508.118 127.719 508.112 127.641H505.891C505.898 127.752 505.906 127.866 505.915 127.985C505.936 128.276 505.959 128.592 505.959 128.942C505.981 129.435 505.981 129.839 505.981 130.153V139.324H508.316V133.113C508.316 131.947 508.611 131.005 509.2 130.31C509.789 129.615 510.56 129.256 511.489 129.256C512.033 129.256 512.486 129.346 512.826 129.547C513.166 129.749 513.438 129.996 513.642 130.332C513.846 130.669 513.982 131.05 514.05 131.476C514.118 131.902 514.163 132.35 514.163 132.821ZM522.708 134.144H532.114V134.167C532.137 134.032 532.137 133.898 532.137 133.763V133.359C532.137 132.418 532.001 131.566 531.729 130.826C531.457 130.086 531.094 129.435 530.596 128.919C530.12 128.381 529.508 127.978 528.805 127.709C528.103 127.417 527.309 127.283 526.448 127.283C525.587 127.283 524.771 127.417 524.023 127.731C523.275 128.045 522.618 128.471 522.074 129.009C521.53 129.547 521.099 130.198 520.782 130.96C520.487 131.723 520.328 132.552 520.328 133.472C520.328 134.391 520.487 135.221 520.804 135.983C521.122 136.723 521.552 137.373 522.096 137.912C522.64 138.45 523.298 138.876 524.068 139.167C524.839 139.459 525.655 139.616 526.561 139.616C527.604 139.616 528.556 139.414 529.417 139.033C530.256 138.629 531.004 138.024 531.638 137.194L529.984 135.893C529.644 136.387 529.19 136.813 528.601 137.149C528.035 137.486 527.332 137.665 526.539 137.665C526.04 137.665 525.541 137.575 525.088 137.396C524.635 137.216 524.227 136.97 523.887 136.656C523.524 136.342 523.252 135.961 523.048 135.535C522.844 135.086 522.708 134.638 522.708 134.144ZM528.896 130.063C529.168 130.355 529.372 130.713 529.508 131.117H529.53C529.666 131.521 529.757 131.947 529.757 132.418H522.731C522.776 131.947 522.89 131.521 523.094 131.117C523.298 130.713 523.569 130.355 523.887 130.063C524.227 129.772 524.612 129.547 525.043 129.368C525.473 129.189 525.949 129.099 526.448 129.099C526.992 129.099 527.468 129.189 527.876 129.368C528.284 129.525 528.624 129.772 528.896 130.063ZM541.679 129.413C542.064 129.413 542.404 129.435 542.744 129.525L542.835 127.395C542.586 127.327 542.268 127.305 541.906 127.305C541.112 127.305 540.387 127.507 539.752 127.933C539.118 128.336 538.642 128.897 538.302 129.592H538.234C538.234 129.346 538.211 129.032 538.211 128.65C538.211 128.35 538.186 128.087 538.164 127.852C538.156 127.771 538.149 127.694 538.143 127.619H535.922C535.928 127.723 535.936 127.83 535.945 127.941C535.966 128.237 535.99 128.56 535.99 128.919C536.013 129.413 536.013 129.816 536.013 130.13V139.302H538.347V133.158C538.347 132.664 538.415 132.193 538.551 131.745C538.687 131.296 538.891 130.893 539.163 130.556C539.435 130.198 539.798 129.929 540.206 129.727C540.614 129.525 541.112 129.413 541.679 129.413ZM546.847 124.861C547.277 124.861 547.663 124.704 547.957 124.435C548.252 124.166 548.41 123.807 548.41 123.381C548.41 122.955 548.252 122.596 547.957 122.304C547.64 122.013 547.277 121.878 546.847 121.878C546.416 121.878 546.053 122.013 545.759 122.304C545.464 122.596 545.305 122.955 545.305 123.381C545.305 123.807 545.464 124.143 545.759 124.435C546.053 124.726 546.416 124.861 546.847 124.861ZM545.713 139.279H548.048V127.596H545.713V139.279ZM560.967 132.799V139.279L561.012 139.302H563.347V132.059C563.347 131.409 563.256 130.803 563.075 130.22C562.894 129.637 562.622 129.144 562.259 128.718C561.874 128.292 561.42 127.933 560.876 127.686C560.332 127.439 559.675 127.305 558.904 127.305C558.474 127.305 558.066 127.372 557.658 127.484C557.273 127.596 556.91 127.753 556.57 127.955C556.23 128.157 555.935 128.404 555.686 128.673C555.437 128.942 555.233 129.233 555.074 129.547H555.006C555.006 129.436 555.001 129.31 554.996 129.173C554.99 129.008 554.983 128.825 554.983 128.628C554.983 128.348 554.959 128.091 554.937 127.859C554.929 127.776 554.921 127.696 554.915 127.619H552.694C552.701 127.723 552.708 127.83 552.717 127.941C552.738 128.237 552.762 128.56 552.762 128.919C552.785 129.413 552.785 129.816 552.785 130.13V139.302H555.119V133.09C555.119 131.924 555.414 130.983 556.003 130.287C556.593 129.592 557.363 129.233 558.292 129.233C558.836 129.233 559.29 129.323 559.63 129.525C559.97 129.727 560.242 129.973 560.446 130.31C560.65 130.646 560.786 131.027 560.854 131.453C560.922 131.879 560.967 132.328 560.967 132.799ZM578.238 143.204C578.736 142.621 579.099 141.926 579.326 141.141L579.348 141.118C579.552 140.356 579.666 139.526 579.666 138.674V127.574H577.399V129.458H577.354C576.901 128.718 576.289 128.157 575.518 127.798C574.747 127.439 573.931 127.26 573.093 127.26C572.186 127.26 571.37 127.417 570.645 127.731C569.92 128.045 569.308 128.471 568.786 129.032C568.265 129.57 567.857 130.22 567.585 130.96C567.291 131.7 567.155 132.507 567.155 133.337C567.155 134.167 567.313 134.952 567.585 135.692C567.88 136.409 568.265 137.059 568.786 137.598C569.308 138.136 569.92 138.562 570.668 138.876C571.393 139.19 572.209 139.347 573.115 139.347C573.977 139.347 574.77 139.167 575.518 138.831C576.266 138.495 576.855 137.979 577.286 137.329H577.331V138.831C577.331 139.436 577.263 140.019 577.127 140.535C576.991 141.051 576.742 141.522 576.425 141.903C576.085 142.307 575.654 142.598 575.133 142.823C574.589 143.047 573.977 143.159 573.161 143.159C572.345 143.159 571.552 142.979 570.781 142.643C570.01 142.284 569.376 141.836 568.854 141.253L567.359 143.047C568.106 143.719 568.99 144.258 570.033 144.616C571.076 144.998 572.096 145.177 573.138 145.177C574.362 145.177 575.382 144.998 576.221 144.639C577.059 144.28 577.717 143.809 578.238 143.204ZM576.379 130.422C576.719 130.803 577.014 131.229 577.195 131.723L577.218 131.745C577.422 132.238 577.513 132.732 577.513 133.315C577.513 133.898 577.399 134.436 577.218 134.929C577.014 135.423 576.742 135.849 576.402 136.23C576.062 136.589 575.631 136.88 575.133 137.104C574.634 137.306 574.09 137.418 573.478 137.418C572.866 137.418 572.3 137.306 571.824 137.082C571.325 136.835 570.917 136.544 570.577 136.163C570.237 135.781 569.988 135.355 569.806 134.862C569.625 134.369 569.534 133.875 569.534 133.315C569.534 132.754 569.625 132.216 569.806 131.723C569.988 131.229 570.237 130.803 570.577 130.422C570.917 130.041 571.348 129.749 571.824 129.525C572.322 129.301 572.889 129.189 573.478 129.189C574.067 129.189 574.611 129.301 575.11 129.525C575.586 129.749 576.017 130.041 576.379 130.422ZM596.619 123.426C597.367 123.426 598.047 123.56 598.636 123.874L598.659 123.852C599.271 124.143 599.747 124.547 600.087 125.018L601.832 123.336C601.288 122.73 600.563 122.237 599.656 121.878C598.75 121.519 597.775 121.34 596.755 121.34C596.03 121.34 595.305 121.452 594.579 121.632C593.854 121.811 593.197 122.125 592.63 122.529C592.041 122.932 591.588 123.448 591.225 124.076C590.862 124.704 590.681 125.444 590.681 126.318C590.681 127.126 590.817 127.798 591.089 128.336C591.361 128.875 591.701 129.346 592.132 129.704C592.562 130.086 593.061 130.377 593.605 130.624C594.149 130.87 594.715 131.072 595.282 131.229C595.849 131.409 596.393 131.588 596.891 131.767C597.39 131.947 597.843 132.149 598.228 132.395C598.614 132.642 598.908 132.933 599.135 133.292C599.362 133.651 599.475 134.099 599.475 134.615C599.475 135.131 599.384 135.579 599.158 135.961C598.931 136.319 598.659 136.633 598.319 136.88C597.979 137.127 597.594 137.306 597.186 137.418C596.778 137.53 596.347 137.598 595.939 137.598C595.123 137.598 594.375 137.418 593.673 137.037C592.97 136.656 592.404 136.163 591.996 135.557L590.069 137.149C590.749 138.001 591.61 138.629 592.653 139.055C593.673 139.481 594.761 139.706 595.871 139.706C596.665 139.706 597.413 139.616 598.16 139.392C598.886 139.19 599.543 138.853 600.11 138.427C600.676 137.979 601.13 137.441 601.47 136.768C601.81 136.095 601.991 135.288 601.991 134.413C601.991 133.539 601.832 132.821 601.515 132.261C601.198 131.7 600.79 131.229 600.291 130.848C599.792 130.467 599.226 130.153 598.614 129.929C598.002 129.682 597.39 129.48 596.801 129.301C596.302 129.144 595.826 128.987 595.395 128.83C594.942 128.673 594.557 128.493 594.239 128.269C593.922 128.045 593.65 127.776 593.469 127.462C593.265 127.148 593.174 126.767 593.174 126.273C593.174 125.78 593.287 125.354 593.491 124.995C593.695 124.636 593.967 124.345 594.307 124.098C594.647 123.852 595.01 123.695 595.418 123.583C595.826 123.47 596.211 123.426 596.619 123.426ZM614.295 139.257C614.296 139.265 614.297 139.272 614.298 139.279L614.253 139.257H614.295ZM614.23 138.27C614.23 138.643 614.252 138.971 614.295 139.257H616.474C616.451 138.876 616.429 138.45 616.406 137.956C616.383 137.463 616.383 137.059 616.383 136.746V127.574H614.049V133.786C614.049 134.952 613.754 135.893 613.165 136.589C612.598 137.284 611.828 137.643 610.876 137.643C610.332 137.643 609.878 137.553 609.538 137.351C609.198 137.149 608.926 136.903 608.722 136.566C608.518 136.23 608.382 135.849 608.314 135.423C608.246 134.996 608.201 134.526 608.201 134.055V127.596H605.867V134.839C605.867 135.49 605.957 136.095 606.139 136.678C606.32 137.261 606.569 137.777 606.932 138.203C607.295 138.652 607.748 138.988 608.314 139.235C608.858 139.481 609.516 139.593 610.286 139.593C611.148 139.593 611.941 139.369 612.643 138.943C613.369 138.495 613.867 137.979 614.162 137.351H614.207C614.207 137.463 614.212 137.589 614.217 137.727C614.223 137.892 614.23 138.075 614.23 138.27ZM626.673 129.211C627.24 129.211 627.761 129.346 628.26 129.592L628.282 129.57C628.781 129.816 629.144 130.13 629.393 130.512L631.093 129.166C630.617 128.538 629.96 128.067 629.144 127.731C628.328 127.395 627.512 127.238 626.673 127.238C625.767 127.238 624.928 127.395 624.157 127.686C623.364 127.978 622.707 128.404 622.14 128.942C621.574 129.48 621.143 130.13 620.826 130.893C620.508 131.633 620.35 132.463 620.35 133.404C620.35 134.346 620.508 135.176 620.826 135.938C621.143 136.678 621.596 137.329 622.163 137.867C622.729 138.405 623.409 138.831 624.18 139.123C624.951 139.414 625.767 139.571 626.718 139.571C627.67 139.571 628.509 139.414 629.257 139.1C630.005 138.786 630.617 138.338 631.116 137.755L629.552 136.342C629.234 136.746 628.849 137.059 628.35 137.284C627.852 137.508 627.353 137.62 626.718 137.62C626.084 137.62 625.54 137.508 625.064 137.284C624.588 137.059 624.18 136.746 623.84 136.364C623.5 135.983 623.251 135.535 623.069 135.019C622.888 134.526 622.797 133.987 622.797 133.427C622.797 132.866 622.888 132.328 623.069 131.812C623.251 131.296 623.5 130.848 623.84 130.467C624.157 130.086 624.565 129.772 625.041 129.547C625.517 129.323 626.061 129.211 626.673 129.211ZM639.615 129.211C640.182 129.211 640.703 129.346 641.202 129.592V129.57C641.7 129.816 642.085 130.13 642.335 130.512L644.035 129.166C643.559 128.538 642.901 128.067 642.085 127.731C641.269 127.395 640.454 127.238 639.615 127.238C638.708 127.238 637.87 127.395 637.099 127.686C636.306 127.978 635.649 128.404 635.082 128.942C634.515 129.48 634.085 130.13 633.767 130.893C633.45 131.633 633.291 132.463 633.291 133.404C633.291 134.346 633.45 135.176 633.767 135.938C634.085 136.678 634.538 137.329 635.105 137.867C635.671 138.405 636.351 138.831 637.122 139.123C637.892 139.414 638.708 139.571 639.66 139.571C640.612 139.571 641.451 139.414 642.199 139.1C642.947 138.786 643.559 138.338 644.057 137.755L642.493 136.342C642.176 136.746 641.791 137.059 641.292 137.284C640.794 137.508 640.295 137.62 639.66 137.62C639.026 137.62 638.482 137.508 638.006 137.284C637.53 137.059 637.122 136.746 636.782 136.364C636.442 135.983 636.193 135.535 636.011 135.019C635.83 134.526 635.739 133.987 635.739 133.427C635.739 132.866 635.83 132.328 636.011 131.812C636.193 131.296 636.442 130.848 636.782 130.467C637.099 130.086 637.507 129.772 637.983 129.547C638.459 129.323 639.003 129.211 639.615 129.211ZM657.978 134.122H657.996L657.974 134.144C657.975 134.137 657.977 134.13 657.978 134.122ZM648.59 134.122H657.978C657.996 133.995 657.996 133.868 657.996 133.741V133.337C657.996 132.395 657.86 131.543 657.588 130.803C657.316 130.063 656.954 129.413 656.455 128.897C655.979 128.359 655.367 127.955 654.665 127.686C653.962 127.395 653.169 127.26 652.307 127.26C651.446 127.26 650.63 127.395 649.882 127.709C649.134 128.023 648.477 128.449 647.933 128.987C647.389 129.525 646.958 130.175 646.641 130.938C646.346 131.7 646.188 132.53 646.188 133.449C646.188 134.369 646.347 135.198 646.664 135.961C646.981 136.701 647.412 137.351 647.956 137.889C648.5 138.427 649.157 138.853 649.928 139.145C650.698 139.436 651.514 139.593 652.421 139.593C653.463 139.593 654.415 139.392 655.277 139.01C656.115 138.607 656.863 138.001 657.498 137.172L655.843 135.871C655.526 136.364 655.073 136.79 654.483 137.127C653.917 137.463 653.214 137.643 652.421 137.643C651.922 137.643 651.423 137.553 650.97 137.373C650.517 137.194 650.109 136.947 649.769 136.633C649.406 136.319 649.134 135.938 648.93 135.512C648.726 135.064 648.59 134.615 648.59 134.122ZM654.755 130.041C655.05 130.332 655.254 130.691 655.39 131.095C655.526 131.498 655.617 131.924 655.617 132.395H648.59C648.613 131.924 648.749 131.498 648.953 131.095C649.157 130.691 649.429 130.332 649.746 130.041C650.086 129.749 650.472 129.525 650.902 129.346C651.333 129.166 651.809 129.076 652.307 129.076C652.851 129.076 653.327 129.166 653.735 129.346C654.143 129.503 654.483 129.749 654.755 130.041ZM665.521 129.076C666.133 129.076 666.677 129.211 667.153 129.48L667.176 129.458C667.652 129.727 668.014 130.086 668.286 130.512L669.918 129.166C669.488 128.538 668.876 128.067 668.082 127.731C667.289 127.395 666.473 127.238 665.635 127.238C665.068 127.238 664.501 127.305 663.98 127.439C663.436 127.596 662.96 127.798 662.552 128.09C662.121 128.359 661.781 128.74 661.532 129.189C661.283 129.637 661.147 130.175 661.147 130.803C661.147 131.341 661.26 131.79 661.464 132.171C661.668 132.53 661.94 132.844 662.28 133.09C662.62 133.337 662.983 133.539 663.391 133.673C663.799 133.808 664.184 133.943 664.592 134.032C665.612 134.256 666.382 134.503 666.904 134.772C667.425 135.041 667.697 135.445 667.697 135.983C667.697 136.297 667.629 136.566 667.493 136.79C667.357 136.992 667.176 137.172 666.949 137.306C666.722 137.441 666.473 137.53 666.201 137.598C665.929 137.665 665.635 137.687 665.34 137.687C664.66 137.687 664.071 137.53 663.504 137.216C662.937 136.903 662.507 136.521 662.189 136.05L660.512 137.463C661.079 138.158 661.781 138.696 662.643 139.033C663.504 139.369 664.365 139.549 665.272 139.549C665.861 139.549 666.45 139.481 667.017 139.347C667.584 139.212 668.105 139.01 668.536 138.696C668.989 138.405 669.329 138.001 669.601 137.53C669.873 137.059 670.009 136.476 670.009 135.781C670.009 135.288 669.918 134.839 669.714 134.458C669.51 134.099 669.238 133.763 668.876 133.494C668.513 133.225 668.082 133.001 667.606 132.821C667.13 132.642 666.609 132.485 666.042 132.35C665.159 132.149 664.479 131.947 664.025 131.7C663.572 131.453 663.345 131.095 663.345 130.601C663.345 130.332 663.391 130.086 663.527 129.906C663.64 129.704 663.821 129.57 664.025 129.435C664.229 129.323 664.456 129.233 664.728 129.166C665 129.099 665.249 129.076 665.521 129.076ZM677.216 129.076C677.828 129.076 678.372 129.211 678.848 129.48L678.871 129.458C679.347 129.727 679.71 130.086 679.982 130.512L681.613 129.166C681.183 128.538 680.571 128.067 679.778 127.731C678.984 127.395 678.168 127.238 677.33 127.238C676.763 127.238 676.219 127.305 675.675 127.439C675.131 127.596 674.655 127.798 674.247 128.09C673.817 128.359 673.477 128.74 673.227 129.189C672.978 129.637 672.842 130.175 672.842 130.803C672.842 131.341 672.955 131.79 673.159 132.171C673.363 132.53 673.635 132.844 673.975 133.09C674.315 133.337 674.678 133.539 675.086 133.673L675.239 133.724C675.591 133.841 675.93 133.954 676.287 134.032C677.307 134.256 678.078 134.503 678.599 134.772C679.12 135.041 679.392 135.445 679.392 135.983C679.392 136.297 679.324 136.566 679.188 136.79C679.052 136.992 678.871 137.172 678.644 137.306C678.418 137.441 678.168 137.53 677.896 137.598C677.624 137.665 677.33 137.687 677.035 137.687C676.355 137.687 675.766 137.53 675.199 137.216C674.633 136.903 674.202 136.521 673.885 136.05L672.207 137.463C672.774 138.158 673.477 138.696 674.338 139.033C675.199 139.369 676.06 139.549 676.967 139.549C677.556 139.549 678.146 139.481 678.712 139.347C679.279 139.212 679.8 139.01 680.231 138.696C680.684 138.405 681.024 138.001 681.296 137.53C681.568 137.059 681.704 136.476 681.704 135.781C681.704 135.288 681.613 134.839 681.409 134.458C681.205 134.099 680.933 133.763 680.571 133.494C680.208 133.225 679.778 133.001 679.302 132.821C678.826 132.642 678.304 132.485 677.738 132.35C676.854 132.149 676.174 131.947 675.72 131.7C675.267 131.453 675.041 131.095 675.041 130.601C675.041 130.332 675.086 130.086 675.222 129.906C675.335 129.704 675.516 129.57 675.72 129.435C675.924 129.323 676.151 129.233 676.423 129.166C676.695 129.099 676.944 129.076 677.216 129.076ZM700.765 123.493C701.695 123.493 702.533 123.695 703.327 124.076H703.281C704.075 124.457 704.687 124.95 705.117 125.533L707.066 124.053C706.726 123.605 706.341 123.224 705.865 122.887C705.412 122.551 704.891 122.259 704.324 122.035C703.757 121.811 703.168 121.632 702.556 121.519C701.944 121.407 701.332 121.34 700.743 121.34C699.406 121.34 698.159 121.564 697.003 122.013C695.87 122.461 694.873 123.067 694.034 123.874C693.195 124.681 692.538 125.646 692.062 126.767C691.586 127.91 691.359 129.144 691.359 130.512C691.359 131.879 691.586 133.113 692.062 134.234C692.515 135.355 693.173 136.342 693.989 137.149C694.827 137.979 695.802 138.607 696.935 139.055C698.068 139.504 699.315 139.728 700.652 139.728C702.216 139.728 703.553 139.436 704.664 138.853C705.774 138.27 706.681 137.508 707.384 136.566L705.412 135.243C704.891 136.006 704.211 136.566 703.395 136.97C702.579 137.351 701.695 137.553 700.675 137.553C699.655 137.553 698.726 137.373 697.91 137.015C697.094 136.633 696.391 136.14 695.824 135.512C695.258 134.862 694.827 134.122 694.51 133.27C694.215 132.418 694.057 131.453 694.057 130.512C694.057 129.57 694.215 128.673 694.533 127.821C694.85 126.969 695.281 126.229 695.87 125.578C696.459 124.928 697.162 124.435 697.978 124.053C698.816 123.672 699.746 123.493 700.765 123.493ZM720.257 137.822C720.824 137.284 721.277 136.633 721.595 135.871C721.912 135.109 722.071 134.301 722.071 133.382C722.071 132.463 721.912 131.633 721.595 130.893C721.277 130.153 720.824 129.503 720.257 128.964C719.668 128.404 718.988 128 718.218 127.686C717.447 127.395 716.586 127.238 715.702 127.238C714.818 127.238 713.979 127.372 713.186 127.686C712.415 128 711.735 128.426 711.169 128.964C710.602 129.503 710.149 130.153 709.832 130.893C709.514 131.655 709.356 132.485 709.356 133.382C709.356 134.279 709.514 135.109 709.832 135.871C710.149 136.611 710.602 137.261 711.169 137.822C711.735 138.36 712.393 138.786 713.186 139.1C713.957 139.392 714.818 139.549 715.702 139.549C716.586 139.549 717.447 139.414 718.218 139.1C719.011 138.809 719.691 138.383 720.257 137.822ZM718.603 130.444C718.943 130.826 719.192 131.274 719.374 131.79C719.555 132.283 719.645 132.821 719.645 133.382C719.645 133.943 719.555 134.458 719.374 134.974C719.192 135.467 718.943 135.916 718.603 136.319C718.263 136.723 717.855 137.037 717.356 137.261C716.88 137.486 716.314 137.598 715.679 137.598C715.044 137.598 714.478 137.486 713.979 137.261C713.481 137.015 713.073 136.723 712.733 136.319C712.393 135.938 712.143 135.49 711.962 134.974C711.781 134.481 711.69 133.943 711.69 133.382C711.69 132.821 711.781 132.306 711.962 131.79C712.143 131.274 712.393 130.826 712.733 130.444C713.073 130.063 713.481 129.749 713.979 129.525C714.478 129.301 715.067 129.189 715.679 129.189C716.291 129.189 716.858 129.301 717.356 129.525C717.855 129.749 718.263 130.063 718.603 130.444ZM741.744 132.776V139.257H741.789H744.124V132.014C744.124 131.364 744.033 130.758 743.852 130.175C743.671 129.592 743.399 129.099 743.036 128.673C742.651 128.247 742.197 127.888 741.653 127.641C741.109 127.395 740.452 127.26 739.681 127.26C738.843 127.26 738.072 127.462 737.347 127.866C736.622 128.269 736.078 128.852 735.67 129.615C735.284 128.785 734.786 128.179 734.151 127.821C733.517 127.462 732.791 127.283 731.998 127.283C731.091 127.283 730.321 127.507 729.664 127.933C729.006 128.381 728.53 128.897 728.236 129.525H728.168C728.168 129.278 728.145 128.964 728.145 128.606C728.145 128.325 728.121 128.069 728.099 127.838C728.091 127.754 728.083 127.674 728.077 127.596H725.856C725.863 127.707 725.871 127.822 725.88 127.94C725.901 128.231 725.924 128.547 725.924 128.897C725.946 129.39 725.946 129.794 725.946 130.108V139.279H728.281V133.068C728.281 131.902 728.576 130.96 729.142 130.265C729.709 129.57 730.434 129.211 731.295 129.211C731.771 129.211 732.157 129.278 732.474 129.435C732.791 129.592 733.041 129.816 733.245 130.086C733.449 130.355 733.585 130.669 733.675 131.05C733.766 131.431 733.811 131.835 733.811 132.306V139.257H736.146V132.933C736.146 132.485 736.191 132.036 736.304 131.588C736.418 131.162 736.576 130.758 736.826 130.399C737.052 130.063 737.37 129.772 737.755 129.547C738.118 129.323 738.594 129.211 739.115 129.211C739.636 129.211 740.044 129.301 740.384 129.503C740.701 129.704 740.973 129.951 741.177 130.287C741.381 130.624 741.517 131.005 741.608 131.431C741.699 131.857 741.744 132.306 741.744 132.776ZM759.559 137.777C760.08 137.216 760.488 136.566 760.76 135.804V135.781C761.055 135.019 761.191 134.212 761.191 133.359C761.191 132.507 761.032 131.7 760.76 130.96C760.488 130.22 760.08 129.57 759.559 129.009C759.038 128.449 758.426 128.023 757.7 127.709C756.975 127.395 756.182 127.238 755.298 127.238C754.3 127.238 753.462 127.439 752.714 127.843C751.989 128.247 751.422 128.763 751.037 129.39H750.969V127.574H748.68V145.177H751.014V137.508H751.082C751.513 138.158 752.102 138.674 752.85 139.033C753.598 139.392 754.391 139.571 755.23 139.571C756.159 139.571 756.975 139.414 757.7 139.1C758.426 138.786 759.038 138.338 759.559 137.777ZM757.791 130.467C758.131 130.848 758.38 131.296 758.539 131.812C758.698 132.306 758.788 132.844 758.788 133.382C758.788 133.92 758.698 134.436 758.539 134.952C758.38 135.467 758.131 135.916 757.791 136.319C757.474 136.701 757.066 137.015 756.567 137.261C756.091 137.508 755.524 137.62 754.867 137.62C754.278 137.62 753.734 137.508 753.235 137.284C752.737 137.059 752.306 136.746 751.966 136.364C751.603 135.983 751.331 135.535 751.15 135.019C750.946 134.526 750.855 133.987 750.855 133.427C750.855 132.866 750.969 132.328 751.15 131.812C751.354 131.319 751.626 130.87 751.966 130.467C752.329 130.063 752.737 129.749 753.235 129.525C753.734 129.301 754.278 129.189 754.867 129.189C755.502 129.189 756.068 129.301 756.567 129.525C757.043 129.749 757.451 130.063 757.791 130.467ZM772.546 137.575C772.546 138.136 772.614 138.696 772.75 139.257L772.818 139.235H774.926C774.858 138.943 774.812 138.584 774.79 138.158C774.744 137.711 774.744 137.307 774.744 136.905V136.903V131.79C774.744 131.162 774.654 130.556 774.45 129.996C774.246 129.435 773.951 128.942 773.543 128.538C773.135 128.135 772.637 127.821 772.002 127.574C771.39 127.327 770.642 127.215 769.803 127.215C768.851 127.215 767.945 127.372 767.106 127.686C766.268 128 765.565 128.426 764.976 128.964L766.222 130.444C766.608 130.063 767.106 129.727 767.696 129.48C768.285 129.233 768.919 129.099 769.577 129.099C770.438 129.099 771.163 129.301 771.685 129.727C772.206 130.13 772.478 130.781 772.478 131.655V131.969C771.481 131.969 770.483 132.014 769.509 132.104C768.512 132.193 767.628 132.373 766.857 132.642C766.064 132.911 765.429 133.315 764.953 133.83C764.477 134.346 764.228 135.041 764.228 135.938C764.228 136.611 764.364 137.172 764.636 137.643C764.908 138.113 765.27 138.495 765.678 138.764C766.086 139.033 766.562 139.235 767.061 139.369C767.56 139.481 768.036 139.549 768.512 139.549C769.418 139.549 770.189 139.369 770.846 139.033C771.503 138.674 772.047 138.203 772.478 137.575H772.546ZM771.889 133.673H772.455V133.696V134.324C772.455 135.31 772.161 136.118 771.571 136.768C770.982 137.418 770.121 137.732 769.033 137.732C768.716 137.732 768.421 137.71 768.149 137.643C767.877 137.575 767.605 137.486 767.378 137.329C767.152 137.194 766.948 136.992 766.812 136.768C766.676 136.521 766.608 136.23 766.608 135.893C766.608 135.4 766.766 134.996 767.106 134.705C767.446 134.391 767.877 134.189 768.376 134.032C768.897 133.898 769.463 133.786 770.075 133.741C770.71 133.696 771.299 133.673 771.889 133.673ZM787.437 132.776V139.257L787.46 139.279H789.794V132.036C789.794 131.386 789.703 130.781 789.522 130.198C789.341 129.615 789.069 129.121 788.706 128.695C788.343 128.269 787.89 127.91 787.346 127.664C786.802 127.417 786.145 127.283 785.374 127.283C784.944 127.283 784.536 127.35 784.128 127.462C783.743 127.574 783.38 127.731 783.04 127.933C782.7 128.135 782.405 128.381 782.156 128.65C781.907 128.919 781.703 129.211 781.544 129.525H781.476C781.476 129.413 781.471 129.287 781.466 129.15C781.46 128.984 781.453 128.802 781.453 128.606C781.453 128.325 781.429 128.069 781.407 127.838C781.399 127.754 781.391 127.674 781.385 127.596H779.164C779.17 127.7 779.178 127.808 779.187 127.919C779.208 128.216 779.232 128.539 779.232 128.897C779.255 129.39 779.255 129.794 779.255 130.108V139.279H781.589V133.068C781.589 131.902 781.884 130.96 782.473 130.265C783.063 129.57 783.833 129.211 784.762 129.211C785.306 129.211 785.76 129.301 786.1 129.503C786.44 129.704 786.712 129.951 786.916 130.287C787.12 130.624 787.256 131.005 787.324 131.431C787.392 131.857 787.437 132.306 787.437 132.776ZM798.271 143.338C798.52 142.957 798.724 142.509 798.928 142.015L798.905 142.038L804.64 127.574H802.147L798.883 136.746H798.837L795.166 127.574H792.559L797.614 139.257L796.866 141.208C796.616 141.836 796.344 142.307 796.05 142.643C795.732 142.979 795.279 143.159 794.667 143.159C794.282 143.159 793.896 143.092 793.489 142.957L793.262 144.998C793.534 145.065 793.806 145.11 794.055 145.132C794.327 145.177 794.576 145.177 794.826 145.177C795.415 145.177 795.914 145.11 796.344 144.953C796.775 144.796 797.138 144.594 797.455 144.325C797.772 144.056 798.044 143.719 798.271 143.338Z" fill="#616262"/>
</svg>
