<svg width="406" height="126" viewBox="0 0 406 126" fill="none" xmlns="http://www.w3.org/2000/svg">
<path d="M68.3309 0.0576172L0.0234375 68.1342H26.2349V124.078H60.5553V92.2853H76.1007V124.078H110.421V68.1342H136.638L68.3309 0.0576172ZM101.036 58.7797V114.724H85.491V82.9479H51.1707V114.724H35.6253V58.7797H22.6891L68.3309 13.2845L113.972 58.7797H101.036ZM405.046 58.7797V74.3725H384.587V124.078H365.818V74.3725H345.382V58.7797H405.046ZM310.222 57.8059C291.741 57.8059 280.592 67.2578 280.592 83.9275V98.5407C280.592 116.184 291.741 125.052 310.222 125.052H311.786C330.653 125.052 341.215 116.184 341.215 99.9098V97.859H322.233V99.9098C322.233 105.461 318.906 108.502 311.676 108.502H310.108C303.068 108.502 299.551 105.478 299.551 98.5579V83.9275C299.551 77.5919 302.999 74.3725 310.01 74.3725H311.573C318.906 74.3725 321.843 77.3971 321.917 82.461V85.6804H340.882V82.461C340.882 67.063 330.538 57.8288 311.751 57.8288L310.222 57.8059ZM259.966 58.7797H231.576L211.727 124.084H228.933L232.456 112.386H258.075L261.592 124.084H279.776L259.966 58.7797ZM237.18 97.1602L243.501 76.028H247.024L253.38 97.1774L237.18 97.1602ZM146.057 58.7797V124.084H164.832V98.4491H185.946V124.078H204.819V58.774H185.912V82.9479H164.798V58.7797H146.057Z" fill="#616262"/>
</svg>
