<svg width="479" height="478" viewBox="0 0 479 478" fill="none" xmlns="http://www.w3.org/2000/svg">
<g clip-path="url(#clip0_6119_1364)">
<path d="M243.819 452.507C373.167 452.507 478.023 351.21 478.023 226.253C478.023 101.297 373.167 0 243.819 0C114.472 0 9.61523 101.297 9.61523 226.253C9.61523 351.21 114.472 452.507 243.819 452.507Z" fill="#616262"/>
<path d="M478.023 231.83C474.826 353.72 370.913 451.71 243.819 451.71C114.327 451.71 9.61541 350.533 9.61541 226.253C9.61541 175.267 27.2007 129.06 55.9766 90.8203C20.806 131.45 0.0234375 184.827 0.0234375 242.187C0.0234375 372.84 107.133 478 239.023 478C370.913 478 478.023 372.84 478.023 242.187C478.023 239 478.023 235.813 478.023 231.83Z" fill="#616262"/>
<path fill-rule="evenodd" clip-rule="evenodd" d="M397.292 309.106L322.154 228.643L394.894 143.4C402.088 134.636 406.084 130.653 404.486 127.466C402.887 124.28 397.292 124.28 386.101 124.28H370.914C368.516 124.28 366.917 124.28 365.318 125.076C364.519 125.873 362.92 126.67 361.322 129.06L285.385 217.49V135.433C285.385 129.856 285.385 126.67 283.787 125.076C282.188 123.483 278.991 123.483 273.395 123.483H258.208C252.613 123.483 249.415 123.483 247.817 125.076C246.218 126.67 246.218 129.856 246.218 135.433V149.773C227.833 133.043 203.853 121.89 177.476 121.89C121.522 121.89 76.7598 168.096 76.7598 225.456C76.7598 282.816 122.322 329.023 177.476 329.023C203.853 329.023 227.833 318.666 246.218 301.14V316.276C246.218 321.853 246.218 325.04 247.817 326.633C249.415 328.226 252.613 328.226 258.208 328.226H273.395C278.991 328.226 282.188 328.226 283.787 326.633C285.385 325.04 285.385 321.853 285.385 316.276V236.61L358.924 324.243C360.522 326.633 361.322 327.43 362.92 328.226C364.519 329.023 365.318 329.023 368.516 329.023H389.298C401.288 329.023 406.884 329.023 408.482 325.04C410.081 321.853 406.084 317.87 397.292 309.106ZM177.476 295.563C139.907 295.563 110.332 264.493 110.332 226.253C110.332 188.013 140.706 156.943 177.476 156.943C214.245 156.943 244.619 188.013 244.619 226.253C244.619 264.493 215.044 295.563 177.476 295.563Z" fill="white"/>
<path fill-rule="evenodd" clip-rule="evenodd" d="M202.255 220.676H182.272V201.556C182.272 198.37 179.874 195.98 176.676 195.98C173.479 195.98 171.081 198.37 171.081 201.556V220.676H149.499C146.302 220.676 143.904 223.066 143.904 226.253C143.904 229.44 146.302 231.83 149.499 231.83H171.081V251.746C171.081 254.933 173.479 257.323 176.676 257.323C179.874 257.323 182.272 254.933 182.272 251.746V231.83H202.255C205.452 231.83 207.85 229.44 207.85 226.253C207.85 223.066 205.452 220.676 202.255 220.676Z" fill="white"/>
</g>
<defs>
<clipPath id="clip0_6119_1364">
<rect width="478" height="478" fill="white" transform="translate(0.0234375)"/>
</clipPath>
</defs>
</svg>
