<svg width="77" height="77" viewBox="0 0 77 77" fill="none" xmlns="http://www.w3.org/2000/svg">
<path d="M76.6594 38.755C76.6594 48.8976 72.6303 58.6248 65.4584 65.7967C58.2864 72.9687 48.5592 76.9978 38.4166 76.9978C28.274 76.9978 18.5468 72.9687 11.3749 65.7967C4.20297 58.6248 0.173828 48.8976 0.173828 38.755C0.173828 28.6124 4.20297 18.8852 11.3749 11.7133C18.5468 4.54135 28.274 0.512207 38.4166 0.512207C48.5592 0.512207 58.2864 4.54135 65.4584 11.7133C72.6303 18.8852 76.6594 28.6124 76.6594 38.755ZM44.5498 19.6432H38.278L29.2001 26.2544V32.3302L37.9673 26.0297H38.278V57.8764H44.5498V19.6432Z" fill="#FA73A3" fill-opacity="0.5" style="mix-blend-mode:darken"/>
</svg>
