<svg width="109" height="125" viewBox="0 0 109 125" fill="none" xmlns="http://www.w3.org/2000/svg">
<path d="M61.458 120.174L71.7043 113.008C84.8039 103.838 94.9433 91.0443 100.88 76.1965C106.816 61.3487 108.291 45.0914 105.124 29.4176C104.968 28.6452 104.636 27.9192 104.154 27.2957C103.672 26.6722 103.053 26.1681 102.345 25.8222L54.4205 2.39062L6.50209 25.8222C5.79285 26.1673 5.17265 26.6712 4.68959 27.2947C4.20652 27.9182 3.87357 28.6446 3.71656 29.4176C0.550511 45.092 2.02667 61.3497 7.96407 76.1976C13.9015 91.0454 24.0421 103.838 37.1429 113.008L47.3892 120.174C49.4512 121.617 51.907 122.391 54.4236 122.391C56.9402 122.391 59.3959 121.617 61.458 120.174Z" fill="#F3F5F8" stroke="#36353A" stroke-width="4" stroke-linecap="round" stroke-linejoin="round"/>
<path d="M30.7578 63.5175L46.5325 79.2922L78.0819 45.4893" fill="#F3F5F8"/>
<path d="M30.7578 63.5175L46.5325 79.2922L78.0819 45.4893" stroke="#36353A" stroke-width="4" stroke-linecap="round" stroke-linejoin="round"/>
</svg>
