<svg xmlns="http://www.w3.org/2000/svg" viewBox="0 0 512 512" width="512" height="512" style="width: 100%; height: 100%; transform: translate3d(0px, 0px, 0px);" preserveAspectRatio="xMidYMid meet"><defs><clipPath id="__lottie_element_71"><rect width="512" height="512" x="0" y="0"/></clipPath><clipPath id="__lottie_element_91"><path d="M0,0 L512,0 L512,512 L0,512z"/></clipPath><clipPath id="__lottie_element_95"><path d="M0,0 L512,0 L512,512 L0,512z"/></clipPath></defs><g clip-path="url(#__lottie_element_71)"><g style="display: block;" transform="matrix(1,0,0,1,89.01499938964844,369.6130065917969)" opacity="1"><g opacity="1" transform="matrix(1,0,0,1,54.46200180053711,26.69700050354004)"><path fill="rgb(54,53,58)" fill-opacity="1" d=" M41.9119987487793,26.44700050354004 C41.9119987487793,26.44700050354004 -41.895999908447266,26.44700050354004 -41.895999908447266,26.44700050354004 C-48.696998596191406,26.444000244140625 -54.20899963378906,20.93199920654297 -54.21200180053711,14.130999565124512 C-54.21200180053711,14.130999565124512 -54.21200180053711,-0.07999999821186066 -54.21200180053711,-0.07999999821186066 C-54.21200180053711,-14.623000144958496 -43.29899978637695,-26.44700050354004 -29.89299964904785,-26.44700050354004 C-29.89299964904785,-26.44700050354004 -15.62600040435791,-26.44700050354004 -15.62600040435791,-26.44700050354004 C-14.861000061035156,-26.44700050354004 -14.130999565124512,-26.10300064086914 -13.647000312805176,-25.510000228881836 C-10.298999786376953,-21.42799949645996 -5.298999786376953,-19.059999465942383 -0.017999999225139618,-19.059999465942383 C5.263000011444092,-19.059999465942383 10.262999534606934,-21.42799949645996 13.611000061035156,-25.510000228881836 C14.095000267028809,-26.10300064086914 14.821999549865723,-26.44700050354004 15.586999893188477,-26.44700050354004 C15.586999893188477,-26.44700050354004 29.85700035095215,-26.44700050354004 29.85700035095215,-26.44700050354004 C43.2869987487793,-26.44700050354004 54.21200180053711,-14.619000434875488 54.21200180053711,-0.07999999821186066 C54.21200180053711,-0.07999999821186066 54.21200180053711,14.130999565124512 54.21200180053711,14.130999565124512 C54.20800018310547,20.92799949645996 48.70500183105469,26.43600082397461 41.9119987487793,26.44700050354004z M-29.89299964904785,-21.329999923706055 C-40.48699951171875,-21.329999923706055 -49.09600067138672,-11.798999786376953 -49.09600067138672,-0.08399999886751175 C-49.09600067138672,-0.08399999886751175 -49.09600067138672,14.130999565124512 -49.09600067138672,14.130999565124512 C-49.09199905395508,18.104000091552734 -45.87300109863281,21.326000213623047 -41.895999908447266,21.329999923706055 C-41.895999908447266,21.329999923706055 41.9119987487793,21.329999923706055 41.9119987487793,21.329999923706055 C45.88399887084961,21.326000213623047 49.104000091552734,18.104000091552734 49.104000091552734,14.130999565124512 C49.104000091552734,14.130999565124512 49.104000091552734,-0.07999999821186066 49.104000091552734,-0.07999999821186066 C49.104000091552734,-11.798999786376953 40.4739990234375,-21.329999923706055 29.864999771118164,-21.329999923706055 C29.864999771118164,-21.329999923706055 16.767000198364258,-21.329999923706055 16.767000198364258,-21.329999923706055 C12.461999893188477,-16.62299919128418 6.373000144958496,-13.939000129699707 -0.006000000052154064,-13.939000129699707 C-6.388999938964844,-13.939000129699707 -12.475000381469727,-16.62299919128418 -16.784000396728516,-21.329999923706055 C-16.784000396728516,-21.329999923706055 -29.89299964904785,-21.329999923706055 -29.89299964904785,-21.329999923706055z"/></g><g opacity="1" transform="matrix(1,0,0,1,54.46799850463867,37.34199905395508)"><path fill="rgb(54,53,58)" fill-opacity="1" d=" M35.86800003051758,15.803000450134277 C35.86800003051758,15.803000450134277 -35.86399841308594,15.803000450134277 -35.86399841308594,15.803000450134277 C-37.27799987792969,15.803000450134277 -38.42599868774414,14.659000396728516 -38.42599868774414,13.244999885559082 C-38.42599868774414,13.244999885559082 -38.42599868774414,-12.388999938964844 -38.42599868774414,-12.388999938964844 C-38.42599868774414,-15.803000450134277 -33.30500030517578,-15.803000450134277 -33.30500030517578,-12.388999938964844 C-33.30500030517578,-12.388999938964844 -33.30500030517578,10.685999870300293 -33.30500030517578,10.685999870300293 C-33.30500030517578,10.685999870300293 33.30500030517578,10.685999870300293 33.30500030517578,10.685999870300293 C33.30500030517578,10.685999870300293 33.30500030517578,-12.388999938964844 33.30500030517578,-12.388999938964844 C33.30500030517578,-15.803000450134277 38.42599868774414,-15.803000450134277 38.42599868774414,-12.388999938964844 C38.42599868774414,-12.388999938964844 38.42599868774414,13.244999885559082 38.42599868774414,13.244999885559082 C38.42599868774414,14.659000396728516 37.28200149536133,15.803000450134277 35.86800003051758,15.803000450134277z"/></g></g><g style="display: block;" transform="matrix(1,0,0,1,108.9800033569336,292.31927490234375)" opacity="1"><g opacity="1" transform="matrix(1,0,0,1,34.49800109863281,39.93199920654297)"><path fill="rgb(54,53,58)" fill-opacity="1" d=" M0.0020000000949949026,39.68199920654297 C-18.684999465942383,39.68199920654297 -33.303001403808594,19.326000213623047 -33.303001403808594,-6.65500020980835 C-33.303001403808594,-22.240999221801758 -19.059999465942383,-39.68199920654297 0.0020000000949949026,-39.68199920654297 C19.065000534057617,-39.68199920654297 33.303001403808594,-22.25200080871582 33.303001403808594,-6.65500020980835 C33.303001403808594,19.326000213623047 18.673999786376953,39.68199920654297 0.0020000000949949026,39.68199920654297z M0.0020000000949949026,-34.56100082397461 C-16.125999450683594,-34.56100082397461 -28.18199920654297,-19.833999633789062 -28.18199920654297,-6.65500020980835 C-28.18199920654297,16.076000213623047 -15.536999702453613,34.56100082397461 0.0020000000949949026,34.56100082397461 C15.541000366210938,34.56100082397461 28.18199920654297,16.06800079345703 28.18199920654297,-6.65500020980835 C28.18199920654297,-19.82699966430664 16.131000518798828,-34.553001403808594 0.0020000000949949026,-34.553001403808594 C0.0020000000949949026,-34.553001403808594 0.0020000000949949026,-34.56100082397461 0.0020000000949949026,-34.56100082397461z"/></g><g opacity="1" transform="matrix(1,0,0,1,34.27899932861328,29.822999954223633)"><path fill="rgb(54,53,58)" fill-opacity="1" d=" M30.615999221801758,12.67300033569336 C10.310999870300293,12.67300033569336 0.2680000066757202,0.9620000123977661 -3.563999891281128,-5.077000141143799 C-13.861000061035156,5.633999824523926 -29.56399917602539,7.098999977111816 -30.283000946044922,7.160999774932861 C-33.60300064086914,7.35699987411499 -34.029998779296875,2.431999921798706 -30.725000381469727,2.061000108718872 C-30.55299949645996,2.0450000762939453 -13.779999732971191,0.4390000104904175 -5.1579999923706055,-11.095999717712402 C-3.9749999046325684,-12.682000160217285 -1.5130000114440918,-12.378000259399414 -0.746999979019165,-10.553000450134277 C-0.4309999942779541,-9.819000244140625 7.322999954223633,7.560999870300293 30.6200008392334,7.560999870300293 C34.029998779296875,7.560999870300293 34.029998779296875,12.682000160217285 30.6200008392334,12.682000160217285 C30.6200008392334,12.682000160217285 30.615999221801758,12.67300033569336 30.615999221801758,12.67300033569336z"/></g></g><g style="display: block;" transform="matrix(1,0,0,1,194.447998046875,182.7969970703125)" opacity="1"><g opacity="1" transform="matrix(1,0,0,1,61.582000732421875,29.993999481201172)"><path fill="rgb(54,53,58)" fill-opacity="1" d=" M47.672000885009766,29.743999481201172 C47.672000885009766,29.743999481201172 -47.672000885009766,29.743999481201172 -47.672000885009766,29.743999481201172 C-55.21500015258789,29.736000061035156 -61.32400131225586,23.62700080871582 -61.332000732421875,16.08799934387207 C-61.332000732421875,16.08799934387207 -61.332000732421875,-0.09600000083446503 -61.332000732421875,-0.09600000083446503 C-61.332000732421875,-16.444000244140625 -49.077999114990234,-29.743999481201172 -34.007999420166016,-29.743999481201172 C-34.007999420166016,-29.743999481201172 -17.773000717163086,-29.743999481201172 -17.773000717163086,-29.743999481201172 C-17.007999420166016,-29.743999481201172 -16.2810001373291,-29.400999069213867 -15.793000221252441,-28.80699920654297 C-11.918000221252441,-24.079999923706055 -6.129000186920166,-21.33799934387207 -0.014999999664723873,-21.33799934387207 C6.0980000495910645,-21.33799934387207 11.88700008392334,-24.079999923706055 15.76200008392334,-28.80699920654297 C16.246000289916992,-29.400999069213867 16.976999282836914,-29.743999481201172 17.742000579833984,-29.743999481201172 C17.742000579833984,-29.743999481201172 33.972999572753906,-29.743999481201172 33.972999572753906,-29.743999481201172 C49.058998107910156,-29.743999481201172 61.332000732421875,-16.43199920654297 61.332000732421875,-0.09600000083446503 C61.332000732421875,-0.09600000083446503 61.332000732421875,16.07200050354004 61.332000732421875,16.07200050354004 C61.332000732421875,23.618999481201172 55.21900177001953,29.736000061035156 47.672000885009766,29.743999481201172z M-34.00400161743164,-24.62299919128418 C-46.25,-24.62299919128418 -56.21099853515625,-13.616000175476074 -56.21099853515625,-0.09600000083446503 C-56.21099853515625,-0.09600000083446503 -56.21099853515625,16.07200050354004 -56.21099853515625,16.07200050354004 C-56.21099853515625,20.791000366210938 -52.38999938964844,24.618999481201172 -47.672000885009766,24.62299919128418 C-47.672000885009766,24.62299919128418 47.672000885009766,24.62299919128418 47.672000885009766,24.62299919128418 C52.39099884033203,24.614999771118164 56.207000732421875,20.791000366210938 56.207000732421875,16.07200050354004 C56.207000732421875,16.07200050354004 56.207000732421875,-0.09600000083446503 56.207000732421875,-0.09600000083446503 C56.207000732421875,-13.623000144958496 46.22700119018555,-24.62299919128418 33.96900177001953,-24.62299919128418 C33.96900177001953,-24.62299919128418 18.913999557495117,-24.62299919128418 18.913999557495117,-24.62299919128418 C14.07800006866455,-19.27199935913086 7.198999881744385,-16.216999053955078 -0.014999999664723873,-16.216999053955078 C-7.230000019073486,-16.216999053955078 -14.109000205993652,-19.27199935913086 -18.948999404907227,-24.62299919128418 C-18.948999404907227,-24.62299919128418 -34.00400161743164,-24.62299919128418 -34.00400161743164,-24.62299919128418z"/></g><g opacity="1" transform="matrix(1,0,0,1,61.58399963378906,42.165000915527344)"><path fill="rgb(54,53,58)" fill-opacity="1" d=" M40.803001403808594,17.57200050354004 C40.803001403808594,17.57200050354004 -40.803001403808594,17.57200050354004 -40.803001403808594,17.57200050354004 C-42.21699905395508,17.57200050354004 -43.3650016784668,16.42799949645996 -43.3650016784668,15.013999938964844 C-43.3650016784668,15.013999938964844 -43.3650016784668,-14.157999992370605 -43.3650016784668,-14.157999992370605 C-43.3650016784668,-17.57200050354004 -38.24399948120117,-17.57200050354004 -38.24399948120117,-14.157999992370605 C-38.24399948120117,-14.157999992370605 -38.24399948120117,12.45199966430664 -38.24399948120117,12.45199966430664 C-38.24399948120117,12.45199966430664 38.24399948120117,12.45199966430664 38.24399948120117,12.45199966430664 C38.24399948120117,12.45199966430664 38.24399948120117,-14.157999992370605 38.24399948120117,-14.157999992370605 C38.24399948120117,-17.57200050354004 43.3650016784668,-17.57200050354004 43.3650016784668,-14.157999992370605 C43.3650016784668,-14.157999992370605 43.3650016784668,15.013999938964844 43.3650016784668,15.013999938964844 C43.3650016784668,16.42799949645996 42.21699905395508,17.57200050354004 40.803001403808594,17.57200050354004z"/></g></g><g style="display: block;" transform="matrix(1,0,0,1,217.20199584960938,94.25428771972656)" opacity="1"><g opacity="1" transform="matrix(1,0,0,1,38.81800079345703,45.03499984741211)"><path fill="rgb(54,53,58)" fill-opacity="1" d=" M0.0020000000949949026,44.78499984741211 C-21.045000076293945,44.78499984741211 -37.52899932861328,21.78499984741211 -37.52899932861328,-7.581999778747559 C-37.52899932861328,-25.145000457763672 -21.47800064086914,-44.78499984741211 0.0020000000949949026,-44.78499984741211 C21.48699951171875,-44.78499984741211 37.52899932861328,-25.145000457763672 37.52899932861328,-7.581999778747559 C37.52899932861328,21.773000717163086 21.048999786376953,44.78499984741211 0.0020000000949949026,44.78499984741211z M0.0020000000949949026,-39.667999267578125 C-18.533000946044922,-39.667999267578125 -32.4119987487793,-22.726999282836914 -32.4119987487793,-7.581999778747559 C-32.4119987487793,18.468000411987305 -17.868999481201172,39.66400146484375 0.0020000000949949026,39.66400146484375 C17.87299919128418,39.66400146484375 32.4119987487793,18.468000411987305 32.4119987487793,-7.581999778747559 C32.4119987487793,-22.726999282836914 18.55699920654297,-39.667999267578125 0.0020000000949949026,-39.667999267578125z"/></g><g opacity="1" transform="matrix(1,0,0,1,38.53300094604492,33.57699966430664)"><path fill="rgb(54,53,58)" fill-opacity="1" d=" M34.86899948120117,14.031000137329102 C11.489999771118164,14.031000137329102 0.16599999368190765,0.2980000078678131 -3.9590001106262207,-6.381999969482422 C-15.576000213623047,6.005000114440918 -33.62699890136719,7.696000099182129 -34.446998596191406,7.758999824523926 C-37.845001220703125,8.050999641418457 -38.28300094604492,2.9489998817443848 -34.88399887084961,2.6559998989105225 C-34.68899917602539,2.635999917984009 -15.451000213623047,0.8090000152587891 -5.548999786376953,-12.449000358581543 C-4.364999771118164,-14.031000137329102 -1.9079999923706055,-13.734000205993652 -1.1380000114440918,-11.913000106811523 C-0.7749999761581421,-11.065999984741211 8.119000434875488,8.91100025177002 34.86899948120117,8.91100025177002 C38.28300094604492,8.91100025177002 38.28300094604492,14.031000137329102 34.86899948120117,14.031000137329102z"/></g></g><g style="display: block;" transform="matrix(1,0,0,1,313.3739929199219,369.6130065917969)" opacity="1"><g opacity="1" transform="matrix(1,0,0,1,54.46500015258789,26.698999404907227)"><path fill="rgb(54,53,58)" fill-opacity="1" d=" M41.90599822998047,26.44499969482422 C41.90599822998047,26.44499969482422 -41.90299987792969,26.44499969482422 -41.90299987792969,26.44499969482422 C-45.167999267578125,26.448999404907227 -48.30099868774414,25.14900016784668 -50.61000061035156,22.84000015258789 C-52.917999267578125,20.5310001373291 -54.21500015258789,17.39900016784668 -54.21500015258789,14.128999710083008 C-54.21500015258789,14.128999710083008 -54.21500015258789,-0.0820000022649765 -54.21500015258789,-0.0820000022649765 C-54.21500015258789,-14.625 -43.30099868774414,-26.448999404907227 -29.895000457763672,-26.448999404907227 C-29.895000457763672,-26.448999404907227 -15.628999710083008,-26.448999404907227 -15.628999710083008,-26.448999404907227 C-14.86400032043457,-26.448999404907227 -14.13700008392334,-26.104999542236328 -13.64900016784668,-25.511999130249023 C-10.300999641418457,-21.43000030517578 -5.301000118255615,-19.062000274658203 -0.019999999552965164,-19.062000274658203 C5.257999897003174,-19.062000274658203 10.26200008392334,-21.43000030517578 13.604999542236328,-25.511999130249023 C14.093999862670898,-26.104999542236328 14.819999694824219,-26.448999404907227 15.59000015258789,-26.448999404907227 C15.59000015258789,-26.448999404907227 29.85099983215332,-26.448999404907227 29.85099983215332,-26.448999404907227 C43.28499984741211,-26.448999404907227 54.21500015258789,-14.621000289916992 54.21500015258789,-0.0820000022649765 C54.21500015258789,-0.0820000022649765 54.21500015258789,14.128999710083008 54.21500015258789,14.128999710083008 C54.207000732421875,20.926000595092773 48.702999114990234,26.43400001525879 41.90599822998047,26.44499969482422z M-29.882999420166016,-21.332000732421875 C-40.47700119018555,-21.332000732421875 -49.08599853515625,-11.800999641418457 -49.08599853515625,-0.0860000029206276 C-49.08599853515625,-0.0860000029206276 -49.08599853515625,14.128999710083008 -49.08599853515625,14.128999710083008 C-49.08599853515625,16.03499984741211 -48.327999114990234,17.867000579833984 -46.98099899291992,19.2189998626709 C-45.62900161743164,20.566999435424805 -43.80099868774414,21.323999404907227 -41.89099884033203,21.323999404907227 C-41.89099884033203,21.323999404907227 41.917999267578125,21.323999404907227 41.917999267578125,21.323999404907227 C45.88600158691406,21.312999725341797 49.09700012207031,18.097999572753906 49.10499954223633,14.128999710083008 C49.10499954223633,14.128999710083008 49.10499954223633,-0.0820000022649765 49.10499954223633,-0.0820000022649765 C49.10499954223633,-11.800999641418457 40.47200012207031,-21.332000732421875 29.863000869750977,-21.332000732421875 C29.863000869750977,-21.332000732421875 16.764999389648438,-21.332000732421875 16.764999389648438,-21.332000732421875 C12.456999778747559,-16.625 6.370999813079834,-13.940999984741211 -0.012000000104308128,-13.940999984741211 C-6.390999794006348,-13.940999984741211 -12.480999946594238,-16.625 -16.788999557495117,-21.332000732421875 C-16.788999557495117,-21.332000732421875 -29.882999420166016,-21.332000732421875 -29.882999420166016,-21.332000732421875z"/></g><g opacity="1" transform="matrix(1,0,0,1,54.46799850463867,37.34199905395508)"><path fill="rgb(54,53,58)" fill-opacity="1" d=" M35.86800003051758,15.803000450134277 C35.86800003051758,15.803000450134277 -35.86800003051758,15.803000450134277 -35.86800003051758,15.803000450134277 C-37.28200149536133,15.803000450134277 -38.42499923706055,14.659000396728516 -38.42499923706055,13.244999885559082 C-38.42499923706055,13.244999885559082 -38.42499923706055,-12.388999938964844 -38.42499923706055,-12.388999938964844 C-38.42499923706055,-15.803000450134277 -33.30400085449219,-15.803000450134277 -33.30400085449219,-12.388999938964844 C-33.30400085449219,-12.388999938964844 -33.30400085449219,10.685999870300293 -33.30400085449219,10.685999870300293 C-33.30400085449219,10.685999870300293 33.30799865722656,10.685999870300293 33.30799865722656,10.685999870300293 C33.30799865722656,10.685999870300293 33.30799865722656,-12.388999938964844 33.30799865722656,-12.388999938964844 C33.30799865722656,-15.803000450134277 38.42499923706055,-15.803000450134277 38.42499923706055,-12.388999938964844 C38.42499923706055,-12.388999938964844 38.42499923706055,13.244999885559082 38.42499923706055,13.244999885559082 C38.42499923706055,14.659000396728516 37.28200149536133,15.803000450134277 35.86800003051758,15.803000450134277z"/></g></g><g style="display: block;" transform="matrix(1,0,0,1,333.33502197265625,292.31927490234375)" opacity="1"><g opacity="1" transform="matrix(1,0,0,1,34.50199890136719,39.93199920654297)"><path fill="rgb(54,53,58)" fill-opacity="1" d=" M0.0020000000949949026,39.68199920654297 C-18.673999786376953,39.68199920654297 -33.29899978637695,19.326000213623047 -33.29899978637695,-6.65500020980835 C-33.29899978637695,-22.240999221801758 -19.06100082397461,-39.68199920654297 0.0020000000949949026,-39.68199920654297 C19.059999465942383,-39.68199920654297 33.29899978637695,-22.25200080871582 33.29899978637695,-6.65500020980835 C33.29899978637695,19.326000213623047 18.673999786376953,39.68199920654297 0.0020000000949949026,39.68199920654297z M0.0020000000949949026,-34.56100082397461 C-16.12700080871582,-34.56100082397461 -28.18199920654297,-19.833999633789062 -28.18199920654297,-6.65500020980835 C-28.18199920654297,16.076000213623047 -15.536999702453613,34.56100082397461 0.0020000000949949026,34.56100082397461 C15.541000366210938,34.56100082397461 28.180999755859375,16.06800079345703 28.180999755859375,-6.65500020980835 C28.180999755859375,-19.82699966430664 16.12700080871582,-34.553001403808594 0.0020000000949949026,-34.553001403808594 C0.0020000000949949026,-34.553001403808594 0.0020000000949949026,-34.56100082397461 0.0020000000949949026,-34.56100082397461z"/></g><g opacity="1" transform="matrix(1,0,0,1,34.27899932861328,29.81999969482422)"><path fill="rgb(54,53,58)" fill-opacity="1" d=" M30.618999481201172,12.675999641418457 C10.3149995803833,12.675999641418457 0.2680000066757202,0.9649999737739563 -3.559999942779541,-5.078000068664551 C-13.861000061035156,5.63700008392334 -29.559999465942383,7.1020002365112305 -30.27899932861328,7.164000034332275 C-33.60300064086914,7.367000102996826 -34.02899932861328,2.430000066757202 -30.72100067138672,2.062999963760376 C-30.55299949645996,2.046999931335449 -13.770999908447266,0.44200000166893005 -5.1539998054504395,-11.093000411987305 C-3.9709999561309814,-12.675999641418457 -1.5169999599456787,-12.378999710083008 -0.7480000257492065,-10.557999610900879 C-0.4309999942779541,-9.824000358581543 7.326000213623047,7.554999828338623 30.618999481201172,7.554999828338623 C34.02899932861328,7.554999828338623 34.02899932861328,12.675999641418457 30.618999481201172,12.675999641418457z"/></g></g><g clip-path="url(#__lottie_element_91)" style="display: block;" transform="matrix(1,0,0,1,0,0)" opacity="1"><g style="display: block;" transform="matrix(1,0,0,1,256,256)" opacity="1"><g opacity="1" transform="matrix(1,0,0,1,0,0)"><path stroke-linecap="round" stroke-linejoin="round" fill-opacity="0" stroke="rgb(54,53,58)" stroke-opacity="1" stroke-width="4" d=" M33.375,3.5 C33.375,3.5 60.25,48.5 60.25,48.5"/></g></g><g style="display: block;" transform="matrix(1,0,0,1,254.75001525878906,253.875)" opacity="1"><g opacity="1" transform="matrix(1,0,0,1,0,0)"><path stroke-linecap="round" stroke-linejoin="miter" fill-opacity="0" stroke-miterlimit="4" stroke="rgb(54,53,58)" stroke-opacity="1" stroke-width="4" d=" M63.5,54.25 C63.5,54.25 64.27300262451172,51.11000061035156 65.1500015258789,47.54800033569336"/></g></g><g style="display: block;" transform="matrix(1,0,0,1,254.74998474121094,253.87400817871094)" opacity="1"><g opacity="1" transform="matrix(1,0,0,1,0,0)"><path stroke-linecap="round" stroke-linejoin="round" fill-opacity="0" stroke="rgb(54,53,58)" stroke-opacity="1" stroke-width="4" d=" M64.125,53.875 C64.125,53.875 60.68000030517578,53.05500030517578 56.77299880981445,52.125"/></g></g></g><g clip-path="url(#__lottie_element_95)" style="display: block;" transform="matrix(-1,0,0,1,512,0)" opacity="1"><g style="display: block;" transform="matrix(1,0,0,1,256,256)" opacity="1"><g opacity="1" transform="matrix(1,0,0,1,0,0)"><path stroke-linecap="round" stroke-linejoin="round" fill-opacity="0" stroke="rgb(54,53,58)" stroke-opacity="1" stroke-width="4" d=" M33.375,3.5 C33.375,3.5 60.25,48.5 60.25,48.5"/></g></g><g style="display: block;" transform="matrix(1,0,0,1,254.75001525878906,253.875)" opacity="1"><g opacity="1" transform="matrix(1,0,0,1,0,0)"><path stroke-linecap="round" stroke-linejoin="miter" fill-opacity="0" stroke-miterlimit="4" stroke="rgb(54,53,58)" stroke-opacity="1" stroke-width="4" d=" M63.5,54.25 C63.5,54.25 64.27300262451172,51.11000061035156 65.1500015258789,47.54800033569336"/></g></g><g style="display: block;" transform="matrix(1,0,0,1,254.74998474121094,253.87400817871094)" opacity="1"><g opacity="1" transform="matrix(1,0,0,1,0,0)"><path stroke-linecap="round" stroke-linejoin="round" fill-opacity="0" stroke="rgb(54,53,58)" stroke-opacity="1" stroke-width="4" d=" M64.125,53.875 C64.125,53.875 60.68000030517578,53.05500030517578 56.77299880981445,52.125"/></g></g></g></g></svg>