<svg width="115" height="125" viewBox="0 0 115 125" fill="none" xmlns="http://www.w3.org/2000/svg">
<path d="M8.74557 12.7266C7.17876 12.7266 5.67611 13.349 4.56821 14.4569C3.46031 15.5648 2.83789 17.0674 2.83789 18.6342V116.483C2.83789 117.259 2.9908 118.028 3.28788 118.745C3.58496 119.462 4.02039 120.113 4.5693 120.662C5.1182 121.21 5.76982 121.645 6.48693 121.942C7.20404 122.239 7.97258 122.391 8.74865 122.391H106.595C108.161 122.391 109.664 121.769 110.772 120.661C111.88 119.553 112.502 118.05 112.502 116.483V18.6342C112.502 17.0674 111.88 15.5648 110.772 14.4569C109.664 13.349 108.161 12.7266 106.595 12.7266H8.74557Z" fill="#F3F5F8" stroke="#36353A" stroke-width="4" stroke-linecap="round" stroke-linejoin="round"/>
<path d="M11.7266 91.7535H34.7942V113.532H11.7266V91.7535ZM46.1357 91.7535H69.2034V113.532H46.1357V91.7535ZM80.5479 91.7535H103.616V113.532H80.5479V91.7535ZM11.7266 60.3443H34.7942V82.1227H11.7266V60.3443ZM46.1357 60.3443H69.2034V82.1227H46.1357V60.3443ZM80.5479 60.3443H103.616V82.1227H80.5479V60.3443ZM80.5479 30.3813H103.616V52.1597H80.5479V30.3813ZM23.2619 20.1075V2.39062V20.1075ZM92.0802 20.1075V2.39062V20.1075Z" fill="#F3F5F8"/>
<path d="M23.2619 20.1075V2.39062M92.0802 20.1075V2.39062M11.7266 91.7535H34.7942V113.532H11.7266V91.7535ZM46.1357 91.7535H69.2034V113.532H46.1357V91.7535ZM80.5479 91.7535H103.616V113.532H80.5479V91.7535ZM11.7266 60.3443H34.7942V82.1227H11.7266V60.3443ZM46.1357 60.3443H69.2034V82.1227H46.1357V60.3443ZM80.5479 60.3443H103.616V82.1227H80.5479V60.3443ZM80.5479 30.3813H103.616V52.1597H80.5479V30.3813Z" stroke="#36353A" stroke-width="4" stroke-linecap="round" stroke-linejoin="round"/>
</svg>
