<svg width="139" height="20" viewBox="0 0 139 20" fill="none" xmlns="http://www.w3.org/2000/svg">
<g clip-path="url(#clip0_6004_101)">
<path d="M34.4778 2.26937C34.4616 1.97686 34.5077 1.68513 34.611 1.40992C34.7143 1.13471 34.875 0.883876 35.0825 0.671569C35.2892 0.459264 35.5378 0.290205 35.8148 0.174616C36.091 0.0590278 36.388 -0.000732422 36.6885 -0.000732422C36.9888 -0.000732422 37.2859 0.0590278 37.5621 0.174616C37.8381 0.290205 38.0878 0.459264 38.2945 0.671569C38.5012 0.883876 38.6618 1.13471 38.7659 1.40992C38.8701 1.68435 38.9154 1.97686 38.8992 2.26937C38.8693 2.82058 38.6238 3.34034 38.2121 3.72013C37.8004 4.09991 37.2552 4.31222 36.6885 4.31222C36.1215 4.31222 35.5758 4.1007 35.1649 3.72013C34.7538 3.33955 34.5077 2.82058 34.4778 2.26937Z" fill="#F74FD7"/>
<path d="M38.3427 6.16406H35.0098V19.6298H38.3427V6.16406Z" fill="#36353A"/>
<path d="M40.4395 12.626C40.4395 8.12977 43.1789 5.8125 47.2645 5.8125C51.3502 5.8125 54.1019 8.08733 54.1019 12.626V19.6297H50.7623V12.626C50.7623 10.0594 49.368 8.83826 47.2645 8.83826C45.1611 8.83826 43.7668 10.0295 43.7668 12.626V19.6297H40.4401V12.626H40.4395Z" fill="#36353A"/>
<path d="M55.7235 12.7628C55.7235 8.15343 59.2517 5.81256 62.6092 5.81256C63.5191 5.77561 64.4233 5.96905 65.2324 6.37557C66.0424 6.7821 66.7286 7.38598 67.2258 8.12905V0.280029H70.5526V12.7872C70.5526 17.1465 67.5311 19.982 63.2139 19.982C58.8967 19.982 55.7227 17.0223 55.7227 12.7636L55.7235 12.7628ZM67.2267 12.8997C67.2267 10.5171 65.5997 8.83753 63.1661 8.83753C62.6173 8.81788 62.0698 8.90988 61.5587 9.10802C61.0484 9.30618 60.5856 9.60576 60.2005 9.9887C59.8162 10.3708 59.5176 10.8277 59.3246 11.3286C59.1316 11.8303 59.0483 12.3649 59.0807 12.8997C59.0492 13.4336 59.1316 13.9683 59.3246 14.4699C59.5176 14.9708 59.8153 15.4269 60.2005 15.809C60.5856 16.1912 61.0476 16.4908 61.5587 16.6881C62.0698 16.8855 62.6164 16.9767 63.1653 16.9555C65.5989 16.9555 67.2258 15.2704 67.2258 12.8997H67.2267Z" fill="#36353A"/>
<path d="M72.209 15.6516H75.5662C75.5662 16.5512 76.4044 17.1464 78.0127 17.1464C79.6211 17.1464 80.4583 16.4678 80.4583 15.6516C80.4583 14.6153 79.2352 14.4604 77.7431 14.2882C75.6146 14.0145 72.4777 13.6929 72.4777 10.3637C72.4777 7.61232 74.6367 5.81323 77.9819 5.81323C81.3272 5.81323 83.4434 7.6658 83.5289 10.0358H80.2211C80.1418 9.21956 79.3586 8.6479 78.0442 8.6479C76.5885 8.6479 75.8609 9.3265 75.8609 10.1191C75.8609 11.1555 77.1141 11.3104 78.6006 11.5069C80.435 11.7515 83.8358 12.1022 83.8358 15.4614C83.8358 18.1828 81.567 19.9819 78.0442 19.9819C74.5214 19.9819 72.2897 18.1592 72.2098 15.6524L72.209 15.6516Z" fill="#36353A"/>
<path d="M84.9188 12.9003C84.9188 8.80911 87.9764 5.81323 92.3615 5.81323C96.7467 5.81323 99.7487 8.79101 99.7487 12.9003V14.0436H88.4165C88.5917 14.9212 89.0874 15.7075 89.8133 16.2555C90.5384 16.8036 91.4442 17.0757 92.3608 17.0214C93.8473 17.0214 94.9355 16.6102 95.6324 15.7413H99.1915C98.1338 18.3204 95.6324 19.9992 92.3608 19.9992C87.9942 19.9992 84.918 16.986 84.918 12.9003H84.9188ZM96.2259 11.4527C95.953 10.6648 95.4329 9.98071 94.7394 9.49556C94.0459 9.0104 93.2142 8.75012 92.3608 8.75012C91.5073 8.75012 90.6747 9.01119 89.982 9.49556C89.2885 9.98071 88.7693 10.6648 88.4956 11.4527H96.2259Z" fill="#36353A"/>
<path d="M101.375 14.4485V1.39331H104.708V6.15761H111.838V9.10002H104.708V14.4603C104.708 16.2469 105.656 16.9679 107.025 16.9679C108.395 16.9679 109.349 16.2893 109.349 14.4603V14.1089H112.682V14.4603C112.682 18.2127 110.364 19.9992 107.025 19.9992C103.687 19.9992 101.375 18.2119 101.375 14.4485Z" fill="#36353A"/>
<path d="M113.13 17.8314C113.132 17.4052 113.264 16.9901 113.508 16.637C113.753 16.284 114.1 16.0095 114.505 15.8483C114.909 15.6871 115.354 15.6463 115.783 15.7304C116.212 15.8145 116.605 16.0213 116.913 16.3233C117.222 16.6252 117.432 17.0089 117.516 17.4273C117.6 17.8448 117.555 18.2781 117.387 18.6712C117.219 19.0644 116.936 19.4001 116.572 19.6368C116.208 19.8735 115.78 19.9993 115.343 19.9993C115.05 20.0048 114.758 19.9529 114.486 19.846C114.214 19.739 113.967 19.5794 113.76 19.3765C113.554 19.1737 113.391 18.9323 113.282 18.6665C113.174 18.4007 113.122 18.1169 113.13 17.8314Z" fill="#F4E311"/>
<path d="M117.496 13.0309C117.496 8.7549 120.554 5.8125 124.969 5.8125C129.385 5.8125 132.308 8.67155 132.308 13.0073V19.6297H129.25V16.9853C128.848 17.9108 128.163 18.694 127.287 19.2271C126.412 19.7602 125.389 20.0173 124.357 19.9631C121.025 19.9985 117.496 17.6167 117.496 13.0309ZM128.999 12.8996C128.999 10.517 127.379 8.83747 124.945 8.83747C124.395 8.81624 123.848 8.90824 123.337 9.10559C122.826 9.30375 122.363 9.60335 121.978 9.98628C121.593 10.3692 121.295 10.8261 121.103 11.3277C120.91 11.8294 120.827 12.3649 120.861 12.8996C120.828 13.4335 120.911 13.9682 121.104 14.4699C121.297 14.9707 121.595 15.4268 121.98 15.809C122.365 16.1911 122.827 16.4907 123.339 16.6881C123.849 16.8854 124.396 16.9766 124.945 16.9554C127.379 16.9554 128.999 15.2703 128.999 12.8996Z" fill="#36353A"/>
<path d="M133.897 2.26937C133.882 1.97686 133.927 1.68513 134.031 1.40992C134.135 1.1355 134.295 0.883876 134.502 0.671569C134.709 0.459264 134.958 0.290205 135.234 0.174616C135.511 0.0590278 135.808 -0.000732422 136.108 -0.000732422C136.409 -0.000732422 136.706 0.0590278 136.983 0.174616C137.259 0.290205 137.507 0.459264 137.715 0.671569C137.922 0.883876 138.081 1.13471 138.186 1.40992C138.291 1.68435 138.336 1.97686 138.32 2.26937C138.29 2.82058 138.045 3.34034 137.633 3.72013C137.222 4.09991 136.676 4.31222 136.109 4.31222C135.542 4.31222 134.997 4.1007 134.585 3.72013C134.174 3.34034 133.928 2.82058 133.898 2.26937H133.897Z" fill="#FC9010"/>
<path d="M137.769 6.16406H134.436V19.6298H137.769V6.16406Z" fill="#36353A"/>
<path d="M2.60163 11.1202C1.34285 11.1202 0.322266 10.1263 0.322266 8.90045V17.7803C0.322266 19.0062 1.34285 20.0001 2.60163 20.0001C3.8604 20.0001 4.88098 19.0062 4.88098 17.7803V8.89966C4.88098 10.1255 3.8604 11.1194 2.60163 11.1194V11.1202Z" fill="#F74FD7"/>
<path d="M16.2793 11.1202C15.0206 11.1202 14 10.1263 14 8.90045V17.7803C14 19.0062 15.0206 20.0001 16.2793 20.0001C17.5381 20.0001 18.5587 19.0062 18.5587 17.7803V8.89966C18.5587 10.1255 17.5381 11.1194 16.2793 11.1194V11.1202Z" fill="#F4E311"/>
<path d="M23.1181 0.0197754C20.3947 0.0197754 17.9498 1.18274 16.2793 3.02666C17.6979 4.59222 18.5586 6.64765 18.5586 8.89967C18.5586 6.44715 20.5998 4.45933 23.1181 4.45933C25.6366 4.45933 27.6777 6.44715 27.6777 8.89967V17.7796C27.6777 19.0054 28.6983 19.9993 29.9571 19.9993C31.2159 19.9993 32.2365 19.0054 32.2365 17.7796V8.89967C32.2365 3.99539 28.154 0.0197754 23.1181 0.0197754Z" fill="#59C1ED"/>
<path d="M16.2793 3.02734C14.8607 4.5929 14 6.64833 14 8.90035C14 10.1262 15.0206 11.1201 16.2793 11.1201C17.5381 11.1201 18.5587 10.1262 18.5587 8.90035C18.5587 6.64833 17.6972 4.5929 16.2793 3.02734Z" fill="#28CEBE"/>
<path d="M9.4405 0.0197754C4.4046 0.0197754 0.322266 3.99539 0.322266 8.89967C0.322266 10.1255 1.34285 11.1194 2.60163 11.1194C3.8604 11.1194 4.88098 10.1255 4.88098 8.89967C4.88098 6.44715 6.92215 4.45933 9.4405 4.45933C11.9589 4.45933 14 6.44715 14 8.89967C14 6.64765 14.8616 4.59222 16.2794 3.02666C14.6088 1.18353 12.1639 0.0197754 9.4405 0.0197754Z" fill="#FC9010"/>
</g>
<defs>
<clipPath id="clip0_6004_101">
<rect width="138" height="20" fill="white" transform="translate(0.322266)"/>
</clipPath>
</defs>
</svg>
