<svg width="384" height="77" viewBox="0 0 384 77" fill="none" xmlns="http://www.w3.org/2000/svg">
<path d="M92.4705 35.6274C92.4705 36.5657 92.3373 37.3873 92.0736 38.0924C91.81 38.7975 91.4472 39.4173 90.9879 39.9461C90.5287 40.475 89.9816 40.9213 89.3523 41.2796C88.723 41.6407 88.0427 41.942 87.3113 42.1865V42.3486C88.2581 42.5107 89.1255 42.7893 89.9107 43.1845C90.696 43.5797 91.3706 44.0914 91.9319 44.7226C92.4932 45.3538 92.9297 46.1015 93.2415 46.963C93.5534 47.8245 93.7093 48.8082 93.7093 49.9085C93.7093 52.5981 92.8277 54.6111 91.0673 55.9502C89.3069 57.2893 86.6253 57.9574 83.0223 57.9574H70.6318V56.2061H71.159C71.6324 56.2061 72.0775 56.172 72.4885 56.1037C72.9024 56.0355 73.2624 55.8962 73.5742 55.6858C73.886 55.4754 74.1298 55.174 74.3056 54.7788C74.4813 54.3865 74.5692 53.8633 74.5692 53.2094V32.7558C74.5692 32.1446 74.4785 31.6527 74.2942 31.2774C74.1128 30.905 73.8634 30.615 73.5515 30.4103C73.2397 30.2055 72.8769 30.0748 72.4658 30.0122C72.052 29.9525 71.6154 29.9212 71.1562 29.9212H70.6289V28.1699H81.7807C85.3837 28.1699 88.0653 28.7698 89.8257 29.9724C91.5861 31.1751 92.4677 33.0601 92.4677 35.6274H92.4705ZM78.7788 41.3109H81.6645C82.8835 41.3109 83.8983 41.2028 84.7119 40.9839C85.5254 40.7678 86.1746 40.4295 86.6621 39.9746C87.1497 39.5197 87.4984 38.9311 87.7082 38.2118C87.9179 37.4925 88.0228 36.631 88.0228 35.6246C88.0228 34.6181 87.9066 33.7538 87.677 33.0686C87.4474 32.3834 87.0732 31.829 86.5601 31.4082C86.0442 30.9874 85.378 30.6889 84.5588 30.5126C83.7395 30.3363 82.7417 30.2482 81.5625 30.2482H78.7788V41.3109ZM78.7788 55.8791H82.8211C84.0003 55.8791 84.9953 55.7711 85.8061 55.5521C86.6196 55.3361 87.283 54.9864 87.796 54.503C88.3091 54.0225 88.6833 53.3914 88.9129 52.618C89.1425 51.8447 89.2588 50.9008 89.2588 49.7863C89.2588 48.6717 89.1567 47.7563 88.9554 46.9545C88.7513 46.1527 88.4027 45.4874 87.9094 44.9586C87.4133 44.4298 86.7614 44.0346 85.9478 43.7759C85.1342 43.5171 84.1194 43.3892 82.9005 43.3892H78.7759V55.8791H78.7788Z" fill="#616262"/>
<path d="M107.972 57.9608H95.9668V56.2095H96.0887C96.5621 56.2095 97.0072 56.1753 97.4182 56.1071C97.8321 56.0389 98.1892 55.8996 98.4954 55.6892C98.7987 55.4788 99.0425 55.1774 99.2268 54.7822C99.4082 54.3899 99.5017 53.8667 99.5017 53.2128V40.194C99.5017 39.5828 99.411 39.0909 99.2268 38.7156C99.0453 38.3432 98.7959 38.0532 98.4841 37.8485C98.1722 37.6437 97.8094 37.5101 97.3984 37.4419C96.9845 37.3737 96.5479 37.3395 96.0887 37.3395H95.9668V35.5882H102.365L103.156 39.7249H103.36C103.629 39.0994 103.907 38.5138 104.193 37.9622C104.479 37.4106 104.825 36.9301 105.239 36.515C105.653 36.0999 106.163 35.7758 106.773 35.537C107.382 35.301 108.148 35.1816 109.069 35.1816C110.585 35.1816 111.714 35.446 112.451 35.9748C113.188 36.5037 113.559 37.2514 113.559 38.2152C113.559 38.6502 113.488 39.0511 113.346 39.4179C113.205 39.7846 112.978 40.1002 112.666 40.3646C112.354 40.629 111.955 40.8338 111.467 40.9759C110.979 41.1181 110.384 41.1891 109.678 41.1891C109.678 40.0348 109.517 39.2018 109.191 38.6929C108.865 38.1839 108.298 37.9281 107.484 37.9281C106.968 37.9281 106.509 38.0731 106.104 38.3659C105.698 38.6588 105.341 39.0454 105.038 39.5259C104.735 40.0092 104.477 40.5608 104.267 41.1863C104.057 41.8118 103.887 42.4543 103.759 43.1111C103.629 43.7707 103.538 44.4246 103.484 45.0786C103.431 45.7296 103.402 46.321 103.402 46.8498V53.4118C103.402 54.0231 103.493 54.5149 103.677 54.8902C103.859 55.2655 104.108 55.547 104.42 55.7347C104.732 55.9251 105.095 56.0502 105.506 56.1128C105.919 56.1725 106.356 56.2038 106.815 56.2038H107.972V57.9551V57.9608Z" fill="#616262"/>
<path d="M115.693 56.2064C116.152 56.2064 116.588 56.1751 117.002 56.1154C117.416 56.0557 117.776 55.9278 118.088 55.7373C118.4 55.5468 118.646 55.2653 118.831 54.8929C119.012 54.5204 119.106 54.0257 119.106 53.4145V40.191C119.106 39.5797 119.015 39.0879 118.831 38.7126C118.649 38.3401 118.4 38.0501 118.088 37.8454C117.776 37.6407 117.413 37.5071 117.002 37.4388C116.588 37.3706 116.152 37.3365 115.693 37.3365H115.571V35.5851H123.006V53.2097C123.006 53.8608 123.097 54.384 123.281 54.7792C123.463 55.1744 123.706 55.4757 124.012 55.6861C124.316 55.8965 124.679 56.0358 125.098 56.1041C125.518 56.1723 125.957 56.2064 126.419 56.2064H126.966V57.9578H115.143V56.2064H115.69H115.693ZM118.516 28.8213C118.516 28.3323 118.575 27.9257 118.697 27.5987C118.819 27.2718 118.989 27.0074 119.205 26.8055C119.42 26.6008 119.672 26.4586 119.956 26.379C120.239 26.2966 120.551 26.2568 120.891 26.2568C121.232 26.2568 121.521 26.2966 121.804 26.379C122.088 26.4615 122.334 26.6036 122.547 26.8055C122.757 27.0102 122.927 27.2746 123.054 27.5987C123.182 27.9257 123.247 28.3323 123.247 28.8213C123.247 29.3103 123.182 29.7169 123.054 30.0438C122.924 30.3708 122.757 30.6352 122.547 30.8371C122.337 31.0418 122.091 31.1868 121.804 31.2749C121.521 31.3631 121.215 31.4085 120.891 31.4085C120.568 31.4085 120.242 31.3659 119.956 31.2749C119.672 31.1868 119.42 31.0418 119.205 30.8371C118.986 30.6324 118.819 30.368 118.697 30.0438C118.575 29.7169 118.516 29.3103 118.516 28.8213Z" fill="#616262"/>
<path d="M128.572 56.2064C129.045 56.2064 129.49 56.1723 129.901 56.104C130.315 56.0358 130.672 55.8965 130.978 55.6861C131.282 55.4757 131.526 55.1743 131.71 54.7791C131.891 54.3868 131.985 53.8636 131.985 53.2097V30.8399C131.985 30.2286 131.894 29.7367 131.71 29.3615C131.528 28.989 131.279 28.699 130.967 28.4943C130.655 28.2896 130.292 28.1588 129.881 28.0963C129.468 28.0366 129.031 28.0053 128.572 28.0053H128.045V26.2539H135.905V53.2097C135.905 53.8608 135.993 54.3839 136.169 54.7791C136.345 55.1743 136.588 55.4757 136.9 55.6861C137.212 55.8965 137.575 56.0358 137.986 56.104C138.4 56.1723 138.842 56.2064 139.315 56.2064H139.843V57.9578H128.039V56.2064H128.566H128.572Z" fill="#616262"/>
<path d="M141.472 56.2064C141.945 56.2064 142.39 56.1723 142.801 56.104C143.215 56.0358 143.572 55.8965 143.878 55.6861C144.182 55.4757 144.425 55.1743 144.61 54.7791C144.791 54.3868 144.885 53.8636 144.885 53.2097V30.8399C144.885 30.2286 144.794 29.7367 144.61 29.3615C144.428 28.989 144.179 28.699 143.867 28.4943C143.555 28.2896 143.192 28.1588 142.781 28.0963C142.367 28.0366 141.931 28.0053 141.472 28.0053H140.944V26.2539H148.805V53.2097C148.805 53.8608 148.893 54.3839 149.069 54.7791C149.244 55.1743 149.488 55.4757 149.8 55.6861C150.112 55.8965 150.475 56.0358 150.886 56.104C151.3 56.1723 151.742 56.2064 152.215 56.2064H152.742V57.9578H140.939V56.2064H141.466H141.472Z" fill="#616262"/>
<path d="M154.798 56.2064C155.257 56.2064 155.693 56.1751 156.107 56.1154C156.521 56.0557 156.881 55.9278 157.193 55.7373C157.505 55.5468 157.751 55.2653 157.936 54.8929C158.117 54.5204 158.211 54.0257 158.211 53.4145V40.191C158.211 39.5797 158.12 39.0879 157.936 38.7126C157.754 38.3401 157.505 38.0501 157.193 37.8454C156.881 37.6407 156.518 37.5071 156.107 37.4388C155.693 37.3706 155.257 37.3365 154.798 37.3365H154.676V35.5851H162.111V53.2097C162.111 53.8608 162.202 54.384 162.386 54.7792C162.568 55.1744 162.811 55.4757 163.118 55.6861C163.421 55.8965 163.784 56.0358 164.203 56.1041C164.623 56.1723 165.062 56.2064 165.524 56.2064H166.071V57.9578H154.248V56.2064H154.795H154.798ZM157.621 28.8213C157.621 28.3323 157.681 27.9257 157.802 27.5987C157.924 27.2718 158.094 27.0074 158.31 26.8055C158.525 26.6008 158.778 26.4586 159.061 26.379C159.345 26.2966 159.656 26.2568 159.997 26.2568C160.337 26.2568 160.626 26.2966 160.909 26.379C161.193 26.4615 161.439 26.6036 161.652 26.8055C161.862 27.0102 162.032 27.2746 162.159 27.5987C162.287 27.9257 162.352 28.3323 162.352 28.8213C162.352 29.3103 162.287 29.7169 162.159 30.0438C162.029 30.3708 161.862 30.6352 161.652 30.8371C161.442 31.0418 161.196 31.1868 160.909 31.2749C160.626 31.3631 160.32 31.4085 159.997 31.4085C159.673 31.4085 159.347 31.3659 159.061 31.2749C158.778 31.1868 158.525 31.0418 158.31 30.8371C158.092 30.6324 157.924 30.368 157.802 30.0438C157.681 29.7169 157.621 29.3103 157.621 28.8213Z" fill="#616262"/>
<path d="M176.921 37.2599C176.121 37.2599 175.475 37.3708 174.982 37.5954C174.486 37.82 174.1 38.1356 173.825 38.5422C173.548 38.9487 173.36 39.4321 173.267 39.9893C173.171 40.5466 173.125 41.1493 173.125 41.8032C171.974 41.8032 171.096 41.6071 170.495 41.2119C169.891 40.8195 169.59 40.14 169.59 39.1733C169.59 38.454 169.786 37.8427 170.18 37.3395C170.571 36.8363 171.11 36.4269 171.796 36.1056C172.479 35.7872 173.275 35.5512 174.183 35.4033C175.09 35.2555 176.059 35.1787 177.088 35.1787C178.361 35.1787 179.472 35.3038 180.419 35.5569C181.366 35.8099 182.159 36.2193 182.794 36.7908C183.429 37.3623 183.908 38.1043 184.226 39.0226C184.543 39.9381 184.702 41.064 184.702 42.3946V53.2128C184.702 53.7956 184.75 54.2789 184.844 54.6599C184.937 55.0409 185.088 55.3451 185.292 55.5754C185.496 55.8057 185.762 55.9706 186.094 56.0644C186.426 56.1611 186.823 56.2066 187.282 56.2066H187.404V57.958H181.777L181.128 54.3728H180.782C180.348 54.9556 179.929 55.493 179.523 55.982C179.118 56.471 178.67 56.8918 178.182 57.2443C177.695 57.5969 177.142 57.8727 176.527 58.0689C175.912 58.265 175.169 58.3645 174.302 58.3645C173.38 58.3645 172.524 58.2309 171.73 57.9665C170.94 57.7021 170.254 57.2955 169.678 56.7439C169.103 56.1952 168.652 55.5015 168.326 54.6656C168 53.8297 167.838 52.8432 167.838 51.7002C167.838 49.4854 168.624 47.8421 170.194 46.7702C171.765 45.6983 174.143 45.1127 177.323 45.0188L180.776 44.8966V42.3918C180.776 41.644 180.736 40.956 180.654 40.3248C180.572 39.6936 180.396 39.1506 180.127 38.6957C179.855 38.2408 179.466 37.8882 178.959 37.6352C178.452 37.385 177.771 37.2571 176.918 37.2571L176.921 37.2599ZM171.884 51.9106C171.884 53.2156 172.159 54.1908 172.706 54.8334C173.253 55.4787 174.103 55.8 175.254 55.8C176.093 55.8 176.856 55.6636 177.539 55.3935C178.222 55.1234 178.806 54.7338 179.285 54.2335C179.764 53.7302 180.135 53.1189 180.393 52.3996C180.651 51.6803 180.779 50.8785 180.779 49.9943V46.611L178.117 46.7332C176.938 46.7873 175.954 46.9351 175.161 47.1711C174.37 47.4099 173.729 47.7426 173.241 48.169C172.754 48.5955 172.405 49.1243 172.195 49.747C171.986 50.3725 171.881 51.0918 171.881 51.9078L171.884 51.9106Z" fill="#616262"/>
<path d="M201.542 56.2066V57.958H190.348V56.2066H190.694C191.167 56.2066 191.612 56.1725 192.023 56.1042C192.437 56.036 192.794 55.8967 193.1 55.6863C193.404 55.4759 193.648 55.1745 193.832 54.7793C194.013 54.387 194.107 53.8638 194.107 53.2099V40.1912C194.107 39.5799 194.016 39.088 193.832 38.7127C193.65 38.3403 193.401 38.0503 193.089 37.8456C192.777 37.6409 192.414 37.5073 192.003 37.439C191.59 37.3708 191.153 37.3367 190.694 37.3367H190.572V35.5853H197.296L197.843 38.9686H198.047C198.481 38.1953 198.937 37.5584 199.419 37.0637C199.898 36.569 200.408 36.1824 200.941 35.9037C201.477 35.6251 202.044 35.4346 202.648 35.3323C203.249 35.2299 203.884 35.1787 204.547 35.1787C205.644 35.1787 206.622 35.3379 207.484 35.6564C208.343 35.9748 209.074 36.4638 209.678 37.1234C210.279 37.783 210.741 38.6275 211.058 39.6595C211.376 40.6916 211.535 41.9198 211.535 43.3471V53.2099C211.535 53.861 211.611 54.3841 211.767 54.7793C211.923 55.1745 212.144 55.4759 212.428 55.6863C212.711 55.8967 213.051 56.036 213.442 56.1042C213.834 56.1725 214.262 56.2066 214.721 56.2066H214.863V57.958H207.611V43.5518C207.611 42.642 207.529 41.8345 207.368 41.1266C207.206 40.4215 206.945 39.8216 206.585 39.3326C206.225 38.8435 205.755 38.4739 205.174 38.2209C204.592 37.9707 203.881 37.8427 203.042 37.8427C202.095 37.8427 201.298 38.0247 200.655 38.3915C200.012 38.7582 199.493 39.2529 199.102 39.8784C198.708 40.5039 198.427 41.2232 198.26 42.0392C198.09 42.8552 198.005 43.711 198.005 44.6066V53.4089C198.005 54.0202 198.095 54.5121 198.279 54.8874C198.461 55.2627 198.71 55.5441 199.022 55.7318C199.334 55.9223 199.697 56.0474 200.108 56.1099C200.522 56.1696 200.958 56.2009 201.418 56.2009H201.539L201.542 56.2066Z" fill="#616262"/>
<path d="M225.395 56.1665C225.896 56.1665 226.356 56.1409 226.775 56.0841C227.195 56.03 227.62 55.9618 228.054 55.8793V57.7132C227.878 57.7956 227.648 57.8752 227.362 57.9577C227.079 58.0401 226.77 58.1112 226.438 58.1709C226.106 58.2306 225.758 58.279 225.392 58.3131C225.026 58.3472 224.68 58.3643 224.357 58.3643C223.3 58.3643 222.393 58.2534 221.636 58.0288C220.876 57.8042 220.255 57.4402 219.768 56.9398C219.28 56.4366 218.917 55.7713 218.682 54.944C218.444 54.1166 218.328 53.1044 218.328 51.9075V37.9704H215.158V36.2986C215.66 36.2986 216.21 36.1963 216.814 35.9944C217.415 35.7897 217.948 35.4514 218.41 34.9766C218.883 34.462 219.266 33.845 219.558 33.1314C219.85 32.4178 220.102 31.525 220.321 30.4531H222.231V35.5879H227.677V37.9704H222.231V52.0297C222.231 53.457 222.517 54.5033 223.096 55.1686C223.671 55.8339 224.439 56.1665 225.4 56.1665H225.395Z" fill="#616262"/>
<path d="M263.241 35.6274C263.241 36.5657 263.108 37.3873 262.844 38.0924C262.581 38.7975 262.218 39.4173 261.759 39.9461C261.299 40.475 260.752 40.9213 260.123 41.2796C259.494 41.6407 258.813 41.942 258.082 42.1865V42.3486C259.029 42.5107 259.896 42.7893 260.681 43.1845C261.467 43.5797 262.141 44.0914 262.703 44.7226C263.264 45.3538 263.7 46.1015 264.012 46.963C264.324 47.8245 264.48 48.8082 264.48 49.9085C264.48 52.5981 263.598 54.6111 261.838 55.9502C260.078 57.2893 257.396 57.9574 253.793 57.9574H241.402V56.2061H241.93C242.403 56.2061 242.848 56.172 243.259 56.1037C243.673 56.0355 244.033 55.8962 244.345 55.6858C244.657 55.4754 244.9 55.174 245.076 54.7788C245.252 54.3865 245.34 53.8633 245.34 53.2094V32.7558C245.34 32.1446 245.249 31.6527 245.065 31.2774C244.883 30.905 244.634 30.615 244.322 30.4103C244.01 30.2055 243.648 30.0748 243.236 30.0122C242.823 29.9525 242.386 29.9212 241.927 29.9212H241.4V28.1699H252.551C256.154 28.1699 258.836 28.7698 260.596 29.9724C262.357 31.1751 263.238 33.0601 263.238 35.6274H263.241ZM249.549 41.3109H252.435C253.654 41.3109 254.669 41.2028 255.483 40.9839C256.296 40.7678 256.945 40.4295 257.433 39.9746C257.92 39.5197 258.269 38.9311 258.479 38.2118C258.689 37.4925 258.793 36.631 258.793 35.6246C258.793 34.6181 258.677 33.7538 258.448 33.0686C258.218 32.3834 257.844 31.829 257.331 31.4082C256.815 30.9874 256.149 30.6889 255.329 30.5126C254.51 30.3363 253.512 30.2482 252.333 30.2482H249.549V41.3109ZM249.549 55.8791H253.592C254.771 55.8791 255.766 55.7711 256.577 55.5521C257.39 55.3361 258.054 54.9864 258.567 54.503C259.08 54.0225 259.454 53.3914 259.684 52.618C259.913 51.8447 260.029 50.9008 260.029 49.7863C260.029 48.6717 259.927 47.7563 259.726 46.9545C259.522 46.1527 259.173 45.4874 258.68 44.9586C258.184 44.4298 257.532 44.0346 256.718 43.7759C255.905 43.5171 254.89 43.3892 253.671 43.3892H249.547V55.8791H249.549Z" fill="#616262"/>
<path d="M288.937 53.4173C288.937 54.0286 289.028 54.5204 289.212 54.8957C289.393 55.271 289.643 55.5525 289.955 55.7401C290.266 55.9306 290.629 56.0557 291.04 56.1183C291.454 56.178 291.891 56.2092 292.35 56.2092H292.472V57.9606H285.87L285.323 54.5773H285.119C284.699 55.3648 284.234 56.0045 283.727 56.4936C283.219 56.9826 282.681 57.3664 282.111 57.645C281.541 57.9237 280.946 58.1142 280.322 58.2165C279.699 58.3189 279.049 58.37 278.372 58.37C277.275 58.37 276.3 58.2137 275.447 57.9009C274.593 57.5882 273.876 57.0992 273.292 56.4339C272.711 55.7686 272.266 54.9185 271.963 53.8864C271.659 52.8543 271.506 51.6261 271.506 50.1988V40.1938C271.506 39.5826 271.416 39.0907 271.231 38.7154C271.05 38.3429 270.8 38.0529 270.489 37.8482C270.177 37.6435 269.814 37.5099 269.403 37.4417C268.989 37.3734 268.552 37.3393 268.093 37.3393H267.971V35.5879H275.427V49.9941C275.427 50.9039 275.498 51.7114 275.639 52.4193C275.781 53.1244 276.019 53.7243 276.351 54.2134C276.682 54.7024 277.13 55.072 277.692 55.325C278.253 55.5781 278.953 55.7032 279.795 55.7032C280.716 55.7032 281.504 55.5411 282.162 55.2141C282.82 54.8872 283.361 54.4294 283.786 53.8381C284.211 53.2467 284.529 52.5388 284.73 51.7086C284.934 50.8812 285.034 49.9629 285.034 48.9592V40.3616C285.034 39.7105 284.943 39.1845 284.759 38.7836C284.577 38.3828 284.333 38.0785 284.027 37.8681C283.724 37.6578 283.364 37.5184 282.95 37.4502C282.536 37.382 282.094 37.3479 281.621 37.3479H281.499V35.5965H288.934V53.4258L288.937 53.4173Z" fill="#616262"/>
<path d="M302.793 56.1665C303.295 56.1665 303.754 56.1409 304.174 56.0841C304.593 56.03 305.018 55.9618 305.452 55.8793V57.7132C305.276 57.7956 305.047 57.8752 304.76 57.9577C304.477 58.0401 304.168 58.1112 303.836 58.1709C303.505 58.2306 303.156 58.279 302.79 58.3131C302.425 58.3472 302.079 58.3643 301.756 58.3643C300.698 58.3643 299.791 58.2534 299.034 58.0288C298.275 57.8042 297.654 57.4402 297.166 56.9398C296.679 56.4366 296.316 55.7713 296.08 54.944C295.842 54.1166 295.726 53.1044 295.726 51.9075V37.9704H292.557V36.2986C293.059 36.2986 293.609 36.1963 294.212 35.9944C294.813 35.7897 295.346 35.4514 295.808 34.9766C296.282 34.462 296.664 33.845 296.956 33.1314C297.248 32.4178 297.501 31.525 297.719 30.4531H299.63V35.5879H305.075V37.9704H299.63V52.0297C299.63 53.457 299.916 54.5033 300.494 55.1686C301.07 55.8339 301.838 56.1665 302.799 56.1665H302.793Z" fill="#616262"/>
<path d="M316.61 56.1665C317.111 56.1665 317.57 56.1409 317.99 56.0841C318.41 56.03 318.835 55.9618 319.268 55.8793V57.7132C319.093 57.7956 318.863 57.8752 318.577 57.9577C318.293 58.0401 317.984 58.1112 317.653 58.1709C317.321 58.2306 316.972 58.279 316.607 58.3131C316.241 58.3472 315.895 58.3643 315.572 58.3643C314.515 58.3643 313.608 58.2534 312.851 58.0288C312.091 57.8042 311.47 57.4402 310.983 56.9398C310.495 56.4366 310.132 55.7713 309.897 54.944C309.659 54.1166 309.543 53.1044 309.543 51.9075V37.9704H306.373V36.2986C306.875 36.2986 307.425 36.1963 308.029 35.9944C308.63 35.7897 309.163 35.4514 309.625 34.9766C310.098 34.462 310.481 33.845 310.773 33.1314C311.065 32.4178 311.317 31.525 311.535 30.4531H313.446V35.5879H318.891V37.9704H313.446V52.0297C313.446 53.457 313.732 54.5033 314.311 55.1686C314.886 55.8339 315.654 56.1665 316.615 56.1665H316.61Z" fill="#616262"/>
<path d="M340.278 46.7333C340.278 50.6596 339.447 53.5796 337.789 55.4958C336.13 57.4121 333.701 58.3674 330.506 58.3674C329.004 58.3674 327.655 58.1286 326.464 57.6538C325.273 57.179 324.259 56.4597 323.428 55.493C322.595 54.5292 321.96 53.3151 321.517 51.8566C321.078 50.3981 320.857 48.6894 320.857 46.7333C320.857 42.8353 321.679 39.9353 323.326 38.0333C324.97 36.1312 327.405 35.1816 330.628 35.1816C332.131 35.1816 333.48 35.4147 334.671 35.8838C335.861 36.353 336.876 37.0666 337.707 38.0219C338.537 38.9772 339.175 40.1827 339.617 41.627C340.057 43.0742 340.278 44.7743 340.278 46.7304V46.7333ZM324.879 46.7333C324.879 48.2828 324.982 49.6475 325.183 50.8274C325.387 52.0101 325.713 52.9967 326.169 53.7928C326.623 54.586 327.212 55.1888 327.935 55.5953C328.658 56.0019 329.543 56.2066 330.586 56.2066C331.629 56.2066 332.508 56.0019 333.228 55.5953C333.945 55.1888 334.529 54.586 334.974 53.7928C335.422 52.9996 335.742 52.0101 335.938 50.8274C336.133 49.6446 336.233 48.2799 336.233 46.7333C336.233 45.1866 336.13 43.8276 335.929 42.659C335.725 41.4905 335.402 40.5153 334.954 39.7363C334.506 38.9544 333.922 38.3688 333.197 37.9736C332.471 37.5812 331.589 37.3822 330.546 37.3822C329.503 37.3822 328.624 37.5784 327.904 37.9736C327.187 38.3688 326.603 38.9544 326.158 39.7363C325.71 40.5182 325.387 41.4934 325.183 42.659C324.979 43.8276 324.879 45.1866 324.879 46.7333Z" fill="#616262"/>
<path d="M353.261 56.2066V57.958H342.066V56.2066H342.412C342.886 56.2066 343.331 56.1725 343.742 56.1042C344.156 56.036 344.513 55.8967 344.819 55.6863C345.122 55.4759 345.366 55.1745 345.55 54.7793C345.732 54.387 345.825 53.8638 345.825 53.2099V40.1912C345.825 39.5799 345.735 39.088 345.55 38.7127C345.369 38.3403 345.119 38.0503 344.808 37.8456C344.496 37.6409 344.133 37.5073 343.722 37.439C343.308 37.3708 342.872 37.3367 342.412 37.3367H342.29V35.5853H349.014L349.561 38.9686H349.766C350.199 38.1953 350.656 37.5584 351.138 37.0637C351.617 36.569 352.127 36.1824 352.66 35.9037C353.196 35.6251 353.763 35.4346 354.366 35.3323C354.967 35.2299 355.602 35.1787 356.266 35.1787C357.363 35.1787 358.341 35.3379 359.202 35.6564C360.061 35.9748 360.793 36.4638 361.396 37.1234C361.997 37.783 362.459 38.6275 362.777 39.6595C363.094 40.6916 363.253 41.9198 363.253 43.3471V53.2099C363.253 53.861 363.33 54.3841 363.486 54.7793C363.642 55.1745 363.863 55.4759 364.146 55.6863C364.43 55.8967 364.77 56.036 365.161 56.1042C365.552 56.1725 365.98 56.2066 366.439 56.2066H366.581V57.958H359.33V43.5518C359.33 42.642 359.248 41.8345 359.086 41.1266C358.925 40.4215 358.664 39.8216 358.304 39.3326C357.944 38.8435 357.473 38.4739 356.892 38.2209C356.311 37.9707 355.599 37.8427 354.76 37.8427C353.814 37.8427 353.017 38.0247 352.374 38.3915C351.73 38.7582 351.211 39.2529 350.82 39.8784C350.426 40.5039 350.145 41.2232 349.978 42.0392C349.808 42.8552 349.723 43.711 349.723 44.6066V53.4089C349.723 54.0202 349.814 54.5121 349.998 54.8874C350.179 55.2627 350.429 55.5441 350.741 55.7318C351.053 55.9223 351.415 56.0474 351.826 56.1099C352.24 56.1696 352.677 56.2009 353.136 56.2009H353.258L353.261 56.2066Z" fill="#616262"/>
<path d="M375.648 58.3676C374.605 58.3676 373.661 58.2767 372.814 58.0919C371.966 57.9099 371.246 57.6312 370.651 57.2559C370.056 56.8835 369.593 56.42 369.27 55.8713C368.944 55.3226 368.783 54.68 368.783 53.9465C368.783 53.3892 368.873 52.9258 369.058 52.5505C369.239 52.1781 369.463 51.8824 369.727 51.6634C369.99 51.4474 370.274 51.2938 370.58 51.2057C370.883 51.1176 371.158 51.0721 371.402 51.0721C371.402 51.8056 371.476 52.4909 371.626 53.1306C371.773 53.7703 372.026 54.3303 372.377 54.8108C372.729 55.2941 373.194 55.6723 373.769 55.9509C374.344 56.2295 375.053 56.3688 375.892 56.3688C376.638 56.3688 377.293 56.2779 377.862 56.0931C378.432 55.9111 378.908 55.6524 379.294 55.3197C379.679 54.9871 379.974 54.5862 380.178 54.1171C380.382 53.648 380.482 53.1362 380.482 52.5789C380.482 52.0643 380.402 51.618 380.249 51.2455C380.093 50.8731 379.824 50.5233 379.436 50.1964C379.05 49.8694 378.526 49.5368 377.862 49.1984C377.199 48.8601 376.366 48.4734 375.365 48.0384C374.296 47.5636 373.364 47.1059 372.573 46.6624C371.782 46.2217 371.127 45.7413 370.611 45.2267C370.095 44.7121 369.71 44.1234 369.455 43.4638C369.197 42.8042 369.069 42.0195 369.069 41.1097C369.069 40.1999 369.256 39.3157 369.627 38.5822C369.999 37.8486 370.532 37.2345 371.223 36.737C371.915 36.2422 372.74 35.8641 373.701 35.6054C374.662 35.3467 375.733 35.2188 376.91 35.2188C377.899 35.2188 378.772 35.3211 379.529 35.5229C380.286 35.7276 380.924 36.0007 381.44 36.3475C381.953 36.6944 382.341 37.1009 382.596 37.57C382.854 38.0391 382.982 38.531 382.982 39.0484C382.982 39.8104 382.721 40.416 382.199 40.8709C381.678 41.3258 380.935 41.5532 379.974 41.5532C379.974 40.1544 379.685 39.0683 379.11 38.2922C378.534 37.5188 377.63 37.1321 376.397 37.1321C375.694 37.1321 375.09 37.2146 374.588 37.3767C374.087 37.5387 373.678 37.7719 373.358 38.0704C373.04 38.3689 372.805 38.7215 372.658 39.1309C372.508 39.5375 372.434 39.9867 372.434 40.4757C372.434 41.0045 372.527 41.4651 372.717 41.8518C372.907 42.2384 373.208 42.5967 373.622 42.9208C374.035 43.2477 374.568 43.5633 375.226 43.8676C375.884 44.1718 376.672 44.5158 377.593 44.8968C378.69 45.3574 379.631 45.8123 380.416 46.2615C381.202 46.7107 381.848 47.1997 382.355 47.7285C382.863 48.2574 383.24 48.8573 383.484 49.5226C383.727 50.1879 383.849 50.9556 383.849 51.8256C383.849 52.9117 383.654 53.864 383.26 54.6772C382.866 55.4932 382.313 56.1755 381.593 56.7242C380.876 57.273 380.011 57.6852 379.002 57.9582C377.993 58.2283 376.873 58.3647 375.64 58.3647L375.648 58.3676Z" fill="#616262"/>
<path d="M51.4044 46.7474L51.0585 46.3323L51.084 46.3124C50.296 45.2036 49.8651 43.8701 49.8651 42.4997C49.8651 41.2658 50.1741 39.9978 50.8289 38.9543L51.1691 38.5478C53.7855 35.4374 55.2256 31.4968 55.2256 27.4567C55.2256 17.8781 47.3479 10.0851 37.6673 10.0851C36.9898 10.0851 36.2924 10.1249 35.5979 10.2073L34.8921 10.2898L34.5632 9.6558C31.4876 3.7307 25.4099 0.0488281 18.7001 0.0488281C8.86074 0.0488281 0.855469 7.98688 0.855469 17.7445C0.855469 22.0064 2.41457 26.1289 5.24646 29.3502L5.59797 29.7738C6.38319 30.8798 6.78288 32.2332 6.78288 33.6007C6.78288 34.8545 6.41437 36.097 5.74254 37.149L5.78506 37.1859L5.44773 37.5896C2.85112 40.6943 1.41958 44.6236 1.41958 48.6466C1.41958 58.2252 9.29729 66.021 18.9807 66.021C19.6526 66.021 20.3499 65.9812 21.0501 65.8988L21.7531 65.8163L22.0819 66.4475C25.1633 72.3726 31.2409 76.0517 37.9507 76.0517C47.7901 76.0517 55.7954 68.1136 55.7954 58.3559C55.7954 54.0941 54.2363 49.9715 51.4044 46.7502V46.7474ZM32.4089 18.3871V48.7291C32.3918 51.0377 31.7569 53.3122 30.5691 55.3024C29.421 57.2272 27.7826 58.8478 25.8294 59.9879L24.3809 60.8352L24.2675 58.9672C24.2533 58.7654 24.242 58.5606 24.242 58.3616V58.1569C24.2363 57.9892 24.2335 57.8243 24.242 57.7134V27.3714C24.259 25.0628 24.894 22.7911 26.0817 20.798C27.2298 18.8761 28.8683 17.2555 30.8214 16.1125L32.2699 15.2653L32.3833 17.1332C32.3975 17.3351 32.4089 17.5398 32.4089 17.7388V17.9407C32.4145 18.1084 32.4174 18.2762 32.4089 18.3842V18.3871Z" fill="#616262"/>
<path d="M36.5187 47.347L36.5244 47.8901C36.5357 48.1516 36.5414 48.399 36.5414 48.6435C36.5414 55.2566 32.8251 61.2073 26.8438 64.1756L25.7949 64.6987L26.4384 65.6824C28.984 69.5662 33.2843 71.8833 37.9474 71.8833C45.5076 71.8833 51.659 65.8132 51.659 58.3528C51.659 50.8924 45.5076 44.8223 37.9474 44.8223C37.8822 44.8223 37.7206 44.828 37.7206 44.828H36.6066L36.5414 45.8345V46.8239H36.5357L36.5187 47.3499V47.347Z" fill="white"/>
<path d="M18.9808 35.4346C11.5765 35.4346 5.55273 41.3597 5.55273 48.641C5.55273 55.9223 11.5765 61.8531 18.9808 61.8531C19.0659 61.8531 19.1453 61.8474 19.2246 61.8417L20.4095 61.782L20.2621 60.6618C20.1601 59.8714 20.1062 59.0953 20.1062 58.3532C20.1062 58.2054 20.1119 58.0604 20.1176 57.9154L20.1062 56.6729V35.5541L19.1963 35.446C19.1254 35.4375 19.0574 35.4346 18.9808 35.4346Z" fill="white"/>
<path d="M36.5416 40.5432L37.4515 40.6512C37.5224 40.6597 37.5904 40.6626 37.667 40.6626C45.0713 40.6626 51.0951 34.7375 51.0951 27.4562C51.0951 20.1749 45.0713 14.2441 37.667 14.2441C37.5819 14.2441 37.5025 14.2498 37.4232 14.2555L36.2383 14.3152L36.3857 15.4354C36.4877 16.2258 36.5416 17.0019 36.5416 17.744C36.5416 17.8833 36.5359 18.0198 36.5302 18.1591L36.5416 19.4243V40.5432Z" fill="white"/>
<path d="M18.6998 4.21387C11.1396 4.21387 4.98828 10.2839 4.98828 17.7443C4.98828 25.2047 11.1396 31.2748 18.6998 31.2748C18.7707 31.2748 18.938 31.2692 18.938 31.2692H20.0407L20.1059 30.2655V29.2761H20.1115L20.1285 28.7501L20.1229 28.2071C20.1115 27.9455 20.1059 27.701 20.1059 27.4537C20.1059 20.8405 23.8222 14.8898 29.8035 11.9216L30.8523 11.3984L30.2088 10.4147C27.6632 6.53103 23.363 4.21387 18.6998 4.21387Z" fill="white"/>
</svg>
