<svg width="21" height="20" viewBox="0 0 21 20" fill="none" xmlns="http://www.w3.org/2000/svg">
<path d="M17.8223 9.58336C17.8251 10.6832 17.5682 11.7683 17.0723 12.75C16.4843 13.9265 15.5804 14.916 14.4618 15.6078C13.3432 16.2995 12.0541 16.6662 10.7389 16.6667C9.63904 16.6696 8.55403 16.4126 7.57227 15.9167L2.82227 17.5L4.4056 12.75C3.90971 11.7683 3.65273 10.6832 3.6556 9.58336C3.65611 8.26815 4.02278 6.97907 4.71453 5.86048C5.40629 4.7419 6.39581 3.838 7.57227 3.25002C8.55403 2.75413 9.63904 2.49716 10.7389 2.50002H11.1556C12.8926 2.59585 14.5331 3.32899 15.7632 4.55907C16.9933 5.78915 17.7264 7.42973 17.8223 9.16669V9.58336Z" stroke="#F3F5F8" stroke-width="2" stroke-linecap="round" stroke-linejoin="round"/>
</svg>
