<svg width="77" height="77" viewBox="0 0 77 77" fill="none" xmlns="http://www.w3.org/2000/svg">
<path d="M76.9309 38.755C76.9309 48.8976 72.9018 58.6248 65.7298 65.7967C58.5579 72.9687 48.8307 76.9978 38.6881 76.9978C28.5455 76.9978 18.8183 72.9687 11.6464 65.7967C4.47445 58.6248 0.445313 48.8976 0.445312 38.755C0.445313 28.6124 4.47445 18.8852 11.6464 11.7133C18.8183 4.54135 28.5455 0.512207 38.6881 0.512207C48.8307 0.512207 58.5579 4.54135 65.7298 11.7133C72.9018 18.8852 76.9309 28.6124 76.9309 38.755ZM32.2155 30.3416C32.2155 27.0384 34.5722 24.0984 38.6021 24.0984C42.216 24.0984 44.8787 26.4504 44.8787 30.007C44.8787 33.3389 42.6367 35.8868 40.5668 38.1575L26.3644 53.8991V57.8764H51.9105V52.5845H35.1889V52.2165L44.6253 41.6041L45.0842 41.0926C48.3731 37.4452 51.2365 34.2663 51.2365 29.4763C51.2365 23.4244 46.308 18.8879 38.7455 18.8879C30.3416 18.8879 26.1397 24.5765 26.1397 30.3703V30.681H32.2155V30.3464V30.3416Z" fill="#59C1ED" fill-opacity="0.5" style="mix-blend-mode:darken"/>
</svg>
