<svg width="76" height="76" viewBox="0 0 76 76" fill="none" xmlns="http://www.w3.org/2000/svg">
<path d="M75.8633 38.0122C75.8633 47.9578 71.9124 57.4961 64.8798 64.5287C57.8472 71.5613 48.3089 75.5122 38.3633 75.5122C28.4177 75.5122 18.8794 71.5613 11.8468 64.5287C4.81416 57.4961 0.863281 47.9578 0.863281 38.0122C0.863281 28.0666 4.81416 18.5283 11.8468 11.4957C18.8794 4.46309 28.4177 0.512207 38.3633 0.512207C48.3089 0.512207 57.8472 4.46309 64.8798 11.4957C71.9124 18.5283 75.8633 28.0666 75.8633 38.0122ZM37.9789 39.9528C42.2914 39.9528 45.1742 42.4841 45.2023 46.131C45.2586 49.8388 42.3195 52.506 37.7586 52.4778C33.7227 52.4497 30.8117 50.2794 30.5398 47.481H24.7883C25.0086 52.9981 29.7102 57.531 37.6977 57.531C45.4461 57.531 51.5445 53.1388 51.432 46.2997C51.3242 40.3091 46.5992 37.6466 43.3039 37.3185V36.9903C46.1023 36.5216 50.3586 33.5263 50.2508 28.1966C50.1102 22.6794 45.3617 18.4747 37.8898 18.531C30.0383 18.5591 25.7492 23.1435 25.5852 28.4685H31.4352C31.6039 25.8622 34.0461 23.5278 37.7539 23.5278C41.4336 23.5278 44.0727 25.806 44.0727 29.1294C44.1008 32.481 41.4336 34.9278 37.782 34.9278H33.8539V39.9528H37.9742H37.9789Z" fill="#28CEBE" fill-opacity="0.5" style="mix-blend-mode:darken"/>
</svg>
