<svg width="121" height="125" viewBox="0 0 121 125" fill="none" xmlns="http://www.w3.org/2000/svg">
<path fill-rule="evenodd" clip-rule="evenodd" d="M75.3855 5.88447C75.1355 4.88641 74.5591 4.00051 73.748 3.3675C72.9369 2.73448 71.9375 2.39065 70.9086 2.39062H50.4163C49.3874 2.39065 48.388 2.73448 47.5768 3.3675C46.7657 4.00051 46.1894 4.88641 45.9393 5.88447L42.8932 18.0875C42.7428 18.6878 42.4733 19.2516 42.1006 19.7456C41.728 20.2395 41.2598 20.6535 40.724 20.9629L34.7655 24.4106C34.2286 24.7205 33.6347 24.919 33.0193 24.9944C32.404 25.0697 31.7798 25.0203 31.184 24.8491L19.0916 21.3875C18.1011 21.1036 17.0441 21.1593 16.0889 21.5457C15.1337 21.9321 14.3353 22.6271 13.8209 23.5199L3.57934 41.2614C3.06462 42.1529 2.86272 43.1909 3.00572 44.2103C3.14873 45.2297 3.62843 46.1721 4.36857 46.8875L13.4147 55.6337C13.86 56.0641 14.2141 56.5797 14.4559 57.1498C14.6978 57.7199 14.8224 58.3329 14.8224 58.9522V65.8291C14.823 66.4492 14.6987 67.063 14.4568 67.6339C14.215 68.2049 13.8606 68.7212 13.4147 69.1522L4.36857 77.8937C3.62809 78.61 3.14857 79.5535 3.00638 80.5739C2.86419 81.5943 3.06751 82.633 3.58395 83.5245L13.8209 101.261C14.3358 102.152 15.1338 102.846 16.0879 103.231C17.0421 103.617 18.0977 103.672 19.087 103.389L31.1332 99.946C31.7441 99.7712 32.3845 99.7245 33.0142 99.8086C33.644 99.8928 34.2497 100.106 34.7932 100.435L39.2378 103.131C40.1742 103.699 40.8777 104.583 41.2224 105.623L45.764 119.238C46.071 120.157 46.6592 120.956 47.4452 121.521C48.2313 122.087 49.1755 122.391 50.144 122.391H71.1809C72.1499 122.391 73.0945 122.086 73.8806 121.519C74.6668 120.953 75.2547 120.153 75.5609 119.234L80.0932 105.632C80.4418 104.585 81.1541 103.698 82.1009 103.131L86.6332 100.421C87.1759 100.097 87.7796 99.8867 88.4069 99.8049C89.0341 99.7231 89.6714 99.7712 90.2793 99.946L102.233 103.384C103.223 103.669 104.28 103.614 105.235 103.228C106.19 102.843 106.989 102.149 107.504 101.257L117.759 83.4968C118.271 82.6101 118.474 81.5785 118.335 80.5641C118.196 79.5498 117.724 78.6104 116.993 77.8937L108.072 69.1429C107.634 68.7138 107.286 68.2019 107.048 67.6368C106.811 67.0718 106.688 66.4651 106.687 65.8522V58.9291C106.688 58.3161 106.811 57.7094 107.048 57.1444C107.286 56.5794 107.634 56.0674 108.072 55.6383L116.993 46.8875C117.724 46.1708 118.196 45.2314 118.335 44.2171C118.474 43.2028 118.271 42.1711 117.759 41.2845L107.504 23.5245C106.988 22.6334 106.189 21.9403 105.234 21.5556C104.279 21.1709 103.223 21.1166 102.233 21.4014L90.2332 24.8491C89.6393 25.0204 89.0171 25.0706 88.4035 24.9969C87.7898 24.9232 87.1972 24.7269 86.6609 24.4199L80.6147 20.9583C80.0745 20.6498 79.6022 20.2352 79.2262 19.7395C78.8503 19.2438 78.5784 18.6771 78.427 18.0737L75.3809 5.88909L75.3855 5.88447ZM83.7169 63.4076C83.4634 69.1581 81.0677 74.621 76.9802 78.7085C72.6524 83.0362 66.7827 85.4675 60.6623 85.4675C54.542 85.4675 48.6723 83.0362 44.3445 78.7085C40.0167 74.3807 37.5854 68.511 37.5854 62.3906C37.5854 56.2702 40.0167 50.4005 44.3445 46.0728C48.6723 41.745 54.542 39.3137 60.6623 39.3137C66.7827 39.3137 72.6524 41.745 76.9802 46.0728C81.0756 50.1682 83.4727 55.6444 83.7183 61.4072C83.7325 61.7333 83.7397 62.0613 83.7397 62.391C83.7397 62.7317 83.732 63.0706 83.7169 63.4076Z" fill="#F3F5F8"/>
<path d="M75.3855 5.88447L76.7996 7.29879C77.2967 6.80179 77.4964 6.08032 77.3255 5.39847L75.3855 5.88447ZM70.9086 2.39062L70.9086 0.390625H70.9086V2.39062ZM50.4163 2.39062V0.390625H50.4162L50.4163 2.39062ZM47.5768 3.3675L48.8073 4.94419L48.8073 4.94418L47.5768 3.3675ZM45.9393 5.88447L43.9993 5.39847L43.9989 5.40009L45.9393 5.88447ZM42.8932 18.0875L44.8332 18.5736L44.8336 18.5719L42.8932 18.0875ZM42.1006 19.7456L40.504 18.5411L40.504 18.5411L42.1006 19.7456ZM40.724 20.9629L39.7239 19.2309L39.7223 19.2318L40.724 20.9629ZM34.7655 24.4106L35.7652 26.1429L35.7671 26.1417L34.7655 24.4106ZM33.0193 24.9944L32.7763 23.0092L32.7763 23.0092L33.0193 24.9944ZM31.184 24.8491L31.7363 22.9269L31.7344 22.9263L31.184 24.8491ZM19.0916 21.3875L18.5405 23.3101L18.5412 23.3103L19.0916 21.3875ZM13.8209 23.5199L15.553 24.5197L15.5538 24.5184L13.8209 23.5199ZM3.57934 41.2614L5.31138 42.2614L5.31145 42.2613L3.57934 41.2614ZM3.00572 44.2103L4.98633 43.9325L4.98633 43.9325L3.00572 44.2103ZM4.36857 46.8875L5.75874 45.4497L5.75861 45.4496L4.36857 46.8875ZM13.4147 55.6337L12.0246 57.0716L12.0247 57.0717L13.4147 55.6337ZM14.4559 57.1498L12.6147 57.9309H12.6147L14.4559 57.1498ZM14.8224 58.9522H16.8224V58.9521L14.8224 58.9522ZM14.8224 65.8291H12.8224L12.8224 65.8311L14.8224 65.8291ZM14.4568 67.6339L12.6153 66.8538H12.6153L14.4568 67.6339ZM13.4147 69.1522L14.8045 70.5904L14.8047 70.5902L13.4147 69.1522ZM4.36857 77.8937L2.97878 76.4555L2.97799 76.4562L4.36857 77.8937ZM3.58395 83.5245L5.31615 82.5247L5.31453 82.5219L3.58395 83.5245ZM13.8209 101.261L12.0887 102.261L12.0893 102.262L13.8209 101.261ZM16.0879 103.231L15.3387 105.086H15.3387L16.0879 103.231ZM19.087 103.389L18.5374 101.466L18.5366 101.466L19.087 103.389ZM31.1332 99.946L31.6828 101.869L31.6833 101.869L31.1332 99.946ZM33.0142 99.8086L32.7493 101.791H32.7493L33.0142 99.8086ZM34.7932 100.435L35.8303 98.7251L35.829 98.7244L34.7932 100.435ZM39.2378 103.131L40.2762 101.421L40.2749 101.421L39.2378 103.131ZM41.2224 105.623L39.324 106.252L39.3252 106.256L41.2224 105.623ZM45.764 119.238L43.8667 119.871L43.8671 119.872L45.764 119.238ZM47.4452 121.521L48.6135 119.898L48.6135 119.898L47.4452 121.521ZM50.144 122.391V120.391H50.1428L50.144 122.391ZM71.1809 122.391L71.1813 120.391H71.1809V122.391ZM73.8806 121.519L75.0501 123.142L75.0501 123.142L73.8806 121.519ZM75.5609 119.234L73.6634 118.601L73.6634 118.602L75.5609 119.234ZM80.0932 105.632L81.9906 106.264L81.9908 106.264L80.0932 105.632ZM82.1009 103.131L81.0747 101.414L81.0733 101.415L82.1009 103.131ZM86.6332 100.421L87.6593 102.138L87.6604 102.137L86.6332 100.421ZM90.2793 99.946L90.8322 98.0239L90.8322 98.0239L90.2793 99.946ZM102.233 103.384L101.68 105.307L101.681 105.307L102.233 103.384ZM105.235 103.228L104.486 101.374H104.486L105.235 103.228ZM107.504 101.257L109.236 102.257L109.236 102.257L107.504 101.257ZM117.759 83.4968L119.491 84.4969L119.491 84.4966L117.759 83.4968ZM118.335 80.5641L120.316 80.2932L118.335 80.5641ZM116.993 77.8937L115.593 79.3215L115.593 79.3219L116.993 77.8937ZM108.072 69.1429L109.472 67.7151L109.472 67.7146L108.072 69.1429ZM107.048 67.6368L105.205 68.4125V68.4125L107.048 67.6368ZM106.687 65.8522H104.687V65.8545L106.687 65.8522ZM106.687 58.9291L104.687 58.9268V58.9291H106.687ZM107.048 57.1444L105.205 56.3687L105.205 56.3688L107.048 57.1444ZM108.072 55.6383L109.472 57.0666L109.472 57.0661L108.072 55.6383ZM116.993 46.8875L115.593 45.4594L115.593 45.4597L116.993 46.8875ZM117.759 41.2845L119.491 40.2846L119.491 40.2843L117.759 41.2845ZM107.504 23.5245L109.236 22.5244L109.235 22.5225L107.504 23.5245ZM102.233 21.4014L102.785 23.3236L102.786 23.3234L102.233 21.4014ZM90.2332 24.8491L89.6809 22.9268L89.6789 22.9274L90.2332 24.8491ZM86.6609 24.4199L87.6546 22.6842L87.6546 22.6842L86.6609 24.4199ZM80.6147 20.9583L81.6084 19.2226L81.6066 19.2216L80.6147 20.9583ZM79.2262 19.7395L77.6327 20.948L77.6327 20.948L79.2262 19.7395ZM78.427 18.0737L76.4867 18.5588L76.4872 18.5604L78.427 18.0737ZM75.3809 5.88909L73.9668 4.47476C73.4699 4.97152 73.2702 5.69255 73.4406 6.37416L75.3809 5.88909ZM76.9802 78.7085L75.566 77.2943L76.9802 78.7085ZM83.7169 63.4076L81.7189 63.3176L81.7188 63.3195L83.7169 63.4076ZM76.9802 46.0728L75.566 47.487V47.487L76.9802 46.0728ZM83.7183 61.4072L81.7201 61.4923L81.7202 61.4942L83.7183 61.4072ZM72.5175 4.94418C72.9772 5.3029 73.3038 5.80491 73.4454 6.37047L77.3255 5.39847C76.9672 3.96791 76.1411 2.69813 74.9785 1.79081L72.5175 4.94418ZM70.9085 4.39062C71.4916 4.39064 72.0579 4.58548 72.5175 4.94418L74.9785 1.79081C73.8158 0.883484 72.3834 0.390664 70.9086 0.390625L70.9085 4.39062ZM50.4163 4.39062H70.9086V0.390625H50.4163V4.39062ZM48.8073 4.94418C49.2669 4.58548 49.8333 4.39064 50.4163 4.39062L50.4162 0.390625C48.9415 0.390664 47.509 0.883484 46.3464 1.79081L48.8073 4.94418ZM47.8794 6.37047C48.0211 5.8049 48.3477 5.30289 48.8073 4.94419L46.3464 1.79081C45.1838 2.69813 44.3577 3.96792 43.9993 5.39847L47.8794 6.37047ZM44.8336 18.5719L47.8798 6.36885L43.9989 5.40009L40.9527 17.6032L44.8336 18.5719ZM43.6972 20.9501C44.2314 20.2421 44.6177 19.4339 44.8332 18.5736L40.9531 17.6015C40.8679 17.9417 40.7152 18.2612 40.504 18.5411L43.6972 20.9501ZM41.724 22.695C42.4921 22.2515 43.1631 21.6581 43.6973 20.9501L40.504 18.5411C40.2929 18.821 40.0276 19.0556 39.7239 19.2309L41.724 22.695ZM35.7671 26.1417L41.7256 22.694L39.7223 19.2318L33.7638 22.6795L35.7671 26.1417ZM33.2624 26.9795C34.1444 26.8716 34.9956 26.587 35.7652 26.1428L33.7658 22.6784C33.4615 22.854 33.125 22.9665 32.7763 23.0092L33.2624 26.9795ZM30.6316 26.7713C31.4857 27.0167 32.3804 27.0875 33.2624 26.9795L32.7763 23.0092C32.4276 23.0519 32.0739 23.0239 31.7363 22.9269L30.6316 26.7713ZM18.5412 23.3103L30.6335 26.7719L31.7344 22.9263L19.6421 19.4648L18.5412 23.3103ZM16.839 23.3997C17.3803 23.1808 17.9792 23.1492 18.5405 23.3101L19.6428 19.465C18.2231 19.058 16.708 19.1378 15.3389 19.6917L16.839 23.3997ZM15.5538 24.5184C15.8453 24.0125 16.2977 23.6187 16.839 23.3997L15.3389 19.6917C13.9698 20.2456 12.8254 21.2416 12.088 22.5213L15.5538 24.5184ZM5.31145 42.2613L15.553 24.5197L12.0888 22.52L1.84722 40.2615L5.31145 42.2613ZM4.98633 43.9325C4.90529 43.3548 5.01971 42.7666 5.31138 42.2614L1.8473 40.2614C1.10954 41.5392 0.82014 43.027 1.02511 44.4881L4.98633 43.9325ZM5.75861 45.4496C5.3392 45.0441 5.06736 44.5101 4.98633 43.9325L1.02511 44.4881C1.23009 45.9493 1.91767 47.3 2.97853 48.3255L5.75861 45.4496ZM14.8049 54.1958L5.75874 45.4497L2.9784 48.3254L12.0246 57.0716L14.8049 54.1958ZM16.2971 56.3688C15.9505 55.5516 15.4429 54.8126 14.8047 54.1957L12.0247 57.0717C12.277 57.3156 12.4777 57.6078 12.6147 57.9309L16.2971 56.3688ZM16.8224 58.9521C16.8224 58.0645 16.6438 57.1859 16.2971 56.3688L12.6147 57.9309C12.7518 58.2539 12.8224 58.6012 12.8224 58.9522L16.8224 58.9521ZM16.8224 65.8291V58.9522H12.8224V65.8291H16.8224ZM16.2984 68.414C16.6451 67.5957 16.8233 66.7159 16.8224 65.8271L12.8224 65.8311C12.8228 66.1824 12.7523 66.5303 12.6153 66.8538L16.2984 68.414ZM14.8047 70.5902C15.4437 69.9725 15.9518 69.2324 16.2984 68.414L12.6153 66.8538C12.4782 67.1773 12.2774 67.4699 12.0247 67.7141L14.8047 70.5902ZM5.75836 79.3319L14.8045 70.5904L12.0249 67.7139L2.97878 76.4555L5.75836 79.3319ZM4.98724 80.85C5.06782 80.2717 5.33954 79.7371 5.75915 79.3312L2.97799 76.4562C1.91663 77.483 1.22932 78.8353 1.02552 80.2979L4.98724 80.85ZM5.31453 82.5219C5.02188 82.0168 4.90667 81.4282 4.98724 80.85L1.02552 80.2979C0.821719 81.7605 1.11314 83.2492 1.85337 84.527L5.31453 82.5219ZM15.5531 100.262L5.31615 82.5247L1.85175 84.5242L12.0887 102.261L15.5531 100.262ZM16.8371 101.377C16.2964 101.158 15.8443 100.766 15.5525 100.261L12.0893 102.262C12.8274 103.539 13.9711 104.533 15.3387 105.086L16.8371 101.377ZM18.5366 101.466C17.976 101.627 17.3778 101.595 16.8371 101.377L15.3387 105.086C16.7063 105.638 18.2194 105.718 19.6374 105.312L18.5366 101.466ZM30.5835 98.023L18.5374 101.466L19.6367 105.312L31.6828 101.869L30.5835 98.023ZM33.2792 97.8263C32.3765 97.7056 31.4586 97.7726 30.583 98.0232L31.6833 101.869C32.0295 101.77 32.3924 101.743 32.7493 101.791L33.2792 97.8263ZM35.829 98.7244C35.05 98.2527 34.1819 97.9469 33.2792 97.8263L32.7493 101.791C33.1061 101.839 33.4493 101.96 33.7573 102.146L35.829 98.7244ZM40.2749 101.421L35.8303 98.7251L33.7561 102.145L38.2007 104.841L40.2749 101.421ZM43.1208 104.994C42.6267 103.503 41.6184 102.237 40.2762 101.421L38.1994 104.84C38.73 105.162 39.1286 105.663 39.324 106.252L43.1208 104.994ZM47.6612 118.605L43.1197 104.99L39.3252 106.256L43.8667 119.871L47.6612 118.605ZM48.6135 119.898C48.1681 119.577 47.8348 119.125 47.6608 118.604L43.8671 119.872C44.3072 121.189 45.1502 122.334 46.2769 123.145L48.6135 119.898ZM50.1428 120.391C49.594 120.391 49.059 120.219 48.6135 119.898L46.2769 123.145C47.4036 123.955 48.7569 124.391 50.1451 124.391L50.1428 120.391ZM71.1809 120.391H50.144V124.391H71.1809V120.391ZM72.7112 119.897C72.2657 120.218 71.7305 120.391 71.1813 120.391L71.1804 124.391C72.5694 124.391 73.9232 123.954 75.0501 123.142L72.7112 119.897ZM73.6634 118.602C73.4898 119.123 73.1567 119.576 72.7112 119.897L75.0501 123.142C76.1769 122.33 77.0195 121.184 77.4584 119.866L73.6634 118.602ZM78.1957 105L73.6634 118.601L77.4583 119.866L81.9906 106.264L78.1957 105ZM81.0733 101.415C79.7163 102.227 78.6953 103.5 78.1956 105L81.9908 106.264C82.1883 105.671 82.5919 105.168 83.1284 104.846L81.0733 101.415ZM85.607 98.7047L81.0747 101.414L83.127 104.847L87.6593 102.138L85.607 98.7047ZM88.1483 97.8217C87.2493 97.9389 86.3839 98.2397 85.606 98.7053L87.6604 102.137C87.9679 101.953 88.31 101.834 88.6654 101.788L88.1483 97.8217ZM90.8322 98.0239C89.9608 97.7733 89.0473 97.7045 88.1483 97.8217L88.6654 101.788C89.0209 101.742 89.382 101.769 89.7265 101.868L90.8322 98.0239ZM102.786 101.462L90.8322 98.0239L89.7265 101.868L101.68 105.307L102.786 101.462ZM104.486 101.374C103.945 101.592 103.346 101.623 102.785 101.462L101.681 105.307C103.1 105.714 104.615 105.635 105.984 105.083L104.486 101.374ZM105.772 100.256C105.48 100.762 105.028 101.155 104.486 101.374L105.984 105.083C107.353 104.53 108.497 103.535 109.236 102.257L105.772 100.256ZM116.027 82.4967L105.772 100.257L109.236 102.257L119.491 84.4969L116.027 82.4967ZM116.353 80.8351C116.432 81.4099 116.317 81.9945 116.027 82.4969L119.491 84.4966C120.225 83.2258 120.515 81.7471 120.316 80.2932L116.353 80.8351ZM115.593 79.3219C116.007 79.728 116.275 80.2603 116.353 80.8351L120.316 80.2932C120.118 78.8393 119.441 77.4928 118.393 76.4655L115.593 79.3219ZM106.671 70.5707L115.593 79.3215L118.394 76.4659L109.472 67.7151L106.671 70.5707ZM105.205 68.4125C105.546 69.2224 106.044 69.9562 106.672 70.5712L109.472 67.7146C109.224 67.4715 109.026 67.1814 108.892 66.8612L105.205 68.4125ZM104.687 65.8545C104.688 66.7331 104.864 67.6027 105.205 68.4125L108.892 66.8612C108.757 66.541 108.687 66.1972 108.687 65.8499L104.687 65.8545ZM104.687 58.9291V65.8522H108.687V58.9291H104.687ZM105.205 56.3688C104.864 57.1786 104.688 58.0482 104.687 58.9268L108.687 58.9314C108.687 58.584 108.757 58.2402 108.892 57.92L105.205 56.3688ZM106.672 54.21C106.044 54.8251 105.546 55.5589 105.205 56.3687L108.892 57.9201C109.026 57.5999 109.224 57.3097 109.472 57.0666L106.672 54.21ZM115.593 45.4597L106.671 54.2105L109.472 57.0661L118.394 48.3154L115.593 45.4597ZM116.353 43.9461C116.275 44.5209 116.007 45.0533 115.593 45.4594L118.393 48.3157C119.441 47.2884 120.118 45.9419 120.316 44.488L116.353 43.9461ZM116.027 42.2843C116.317 42.7868 116.432 43.3714 116.353 43.9461L120.316 44.488C120.515 43.0342 120.225 41.5555 119.491 40.2846L116.027 42.2843ZM105.772 24.5246L116.027 42.2846L119.491 40.2843L109.236 22.5244L105.772 24.5246ZM104.487 23.4108C105.028 23.6288 105.481 24.0215 105.773 24.5265L109.235 22.5225C108.495 21.2452 107.35 20.2519 105.981 19.7005L104.487 23.4108ZM102.786 23.3234C103.347 23.162 103.946 23.1928 104.487 23.4108L105.981 19.7005C104.612 19.1491 103.098 19.0713 101.68 19.4794L102.786 23.3234ZM90.7855 26.7713L102.785 23.3236L101.681 19.4792L89.6809 22.9268L90.7855 26.7713ZM88.1649 26.9826C89.0444 27.0883 89.9363 27.0163 90.7875 26.7707L89.6789 22.9274C89.3424 23.0245 88.9898 23.053 88.6421 23.0112L88.1649 26.9826ZM85.6672 26.1555C86.4359 26.5957 87.2853 26.8769 88.1649 26.9826L88.6421 23.0112C88.2943 22.9694 87.9585 22.8582 87.6546 22.6842L85.6672 26.1555ZM79.621 22.694L85.6672 26.1555L87.6546 22.6842L81.6084 19.2226L79.621 22.694ZM77.6327 20.948C78.1715 21.6585 78.8485 22.2528 79.6228 22.695L81.6066 19.2216C81.3005 19.0468 81.0328 18.8118 80.8198 18.5309L77.6327 20.948ZM76.4872 18.5604C76.7042 19.4254 77.0938 20.2375 77.6327 20.948L80.8198 18.5309C80.6068 18.25 80.4527 17.9289 80.3669 17.587L76.4872 18.5604ZM73.4406 6.37416L76.4867 18.5588L80.3673 17.5886L77.3212 5.40401L73.4406 6.37416ZM73.9714 4.47015L73.9668 4.47476L76.795 7.30341L76.7996 7.29879L73.9714 4.47015ZM78.3944 80.1227C82.8362 75.6809 85.4395 69.7446 85.7149 63.4956L81.7188 63.3195C81.4874 68.5715 79.2992 73.5611 75.566 77.2943L78.3944 80.1227ZM60.6623 87.4675C67.3132 87.4675 73.6916 84.8255 78.3944 80.1227L75.566 77.2943C71.6133 81.2469 66.2523 83.4675 60.6623 83.4675V87.4675ZM42.9303 80.1227C47.6331 84.8255 54.0115 87.4675 60.6623 87.4675V83.4675C55.0724 83.4675 49.7114 81.247 45.7587 77.2943L42.9303 80.1227ZM35.5854 62.3906C35.5854 69.0414 38.2274 75.4198 42.9303 80.1227L45.7587 77.2943C41.806 73.3416 39.5854 67.9806 39.5854 62.3906H35.5854ZM42.9303 44.6586C38.2274 49.3614 35.5854 55.7398 35.5854 62.3906H39.5854C39.5854 56.8007 41.806 51.4397 45.7587 47.487L42.9303 44.6586ZM60.6623 37.3137C54.0115 37.3137 47.6331 39.9557 42.9303 44.6586L45.7587 47.487C49.7114 43.5343 55.0724 41.3137 60.6623 41.3137V37.3137ZM78.3944 44.6586C73.6916 39.9557 67.3132 37.3137 60.6623 37.3137V41.3137C66.2523 41.3137 71.6133 43.5343 75.566 47.487L78.3944 44.6586ZM85.7165 61.322C85.4496 55.0597 82.8448 49.1089 78.3944 44.6586L75.566 47.487C79.3064 51.2274 81.4958 56.2291 81.7201 61.4923L85.7165 61.322ZM81.7202 61.4942C81.7332 61.7914 81.7397 62.0903 81.7397 62.391H85.7397C85.7397 62.0323 85.7319 61.6753 85.7164 61.3201L81.7202 61.4942ZM81.7397 62.391C81.7397 62.7017 81.7327 63.0106 81.7189 63.3176L85.7149 63.4975C85.7314 63.1306 85.7397 62.7617 85.7397 62.391H81.7397Z" fill="#36353A"/>
</svg>
